<svg xmlns="http://www.w3.org/2000/svg" viewBox="0 0 135.5 194.2"><path d="M37.335 143.894c6 7.5 12.1 16.9 15.3 22.6 3.9 7.4 5.5 12.4 8.4 21.3 1.7 4.9 3.3 6.4 6.7 6.4 3.7 0 5.4-2.5 6.7-6.4 2.7-8.4 4.8-14.8 8.1-20.9 6.5-11.7 14.7-22.1 22.7-32.1 2.2-2.8 16.2-19.3 22.5-32.4 0 0 7.7-14.3 7.7-34.3 0-18.7-7.6-31.7-7.6-31.7l-22 5.9-13.4 35.2-3.3 4.8-.7.9-.9 1.1-1.5 1.8-2.2 2.2-11.9 9.7-29.7 17.2-4.9 28.7z" fill="#34a853"/><path d="M6.635 99.994c7.3 16.6 21.2 31.1 30.7 43.9l50.3-59.6s-7.1 9.3-19.9 9.3c-14.3 0-25.9-11.4-25.9-25.8 0-9.9 5.9-16.7 5.9-16.7l-34.1 9.1-7 39.8z" fill="#fbbc04"/><path d="M88.235 3.094c16.7 5.4 31 16.7 39.6 33.4l-40.2 47.9s5.9-6.9 5.9-16.7c0-14.7-12.4-25.8-25.8-25.8-12.7 0-20 9.2-20 9.2v-30.2l40.5-17.8z" fill="#4285f4"/><path d="M15.835 24.194c10-11.9 27.5-24.2 51.7-24.2 11.7 0 20.6 3.1 20.6 3.1l-40.4 48h-28.6l-3.3-26.9z" fill="#1a73e8"/><path d="M6.635 99.994s-6.6-13.1-6.6-32c0-17.9 7-33.5 15.9-43.7l31.9 26.9-41.2 48.8z" fill="#ea4335"/></svg>