<svg width="262" height="162" viewBox="0 0 262 162" fill="none" xmlns="http://www.w3.org/2000/svg">
<path d="M79.569 131.009C76.1813 131.009 73.4316 128.339 73.4316 125.049V55.6406H199.918V125.027C199.918 128.317 197.168 130.988 193.78 130.988H79.569V131.009Z" fill="#4722E9" stroke="#4722E9" stroke-width="1.08108" stroke-miterlimit="10" stroke-linecap="round"/>
<path d="M199.918 50.1382C199.918 46.0344 196.739 42.7197 192.804 42.7197H80.5451C76.61 42.7197 73.4316 46.0344 73.4316 50.1382V55.64H199.918V50.1382Z" stroke="#4722E9" stroke-miterlimit="10" stroke-linecap="round"/>
<path d="M84.0346 48.5231C84.0346 49.5943 83.1709 50.4544 82.0954 50.4544C81.0199 50.4544 80.1562 49.5943 80.1562 48.5231C80.1562 47.452 81.0199 46.5918 82.0954 46.5918C83.1709 46.5918 84.0346 47.4682 84.0346 48.5231Z" stroke="#B39EF5" stroke-width="1.08108" stroke-miterlimit="10" stroke-linecap="round"/>
<path d="M92.0717 48.5231C92.0717 49.5942 91.208 50.4544 90.1325 50.4544C89.057 50.4544 88.1934 49.5942 88.1934 48.5231C88.1934 47.452 89.057 46.5918 90.1325 46.5918C91.1918 46.5918 92.0717 47.4682 92.0717 48.5231Z" stroke="#B39EF5" stroke-width="1.08108" stroke-miterlimit="10" stroke-linecap="round"/>
<path d="M100.105 48.5231C100.105 49.5942 99.2413 50.4544 98.1657 50.4544C97.0902 50.4544 96.2266 49.5942 96.2266 48.5231C96.2266 47.452 97.0902 46.5918 98.1657 46.5918C99.2413 46.5918 100.105 47.4682 100.105 48.5231Z" stroke="#B39EF5" stroke-width="1.08108" stroke-miterlimit="10" stroke-linecap="round"/>
<path d="M201.112 107.75H72.2362C62.7853 107.75 55.0527 100.014 55.0527 90.5604C55.0527 81.1063 62.7853 73.3711 72.2362 73.3711H201.112C210.563 73.3711 218.296 81.1063 218.296 90.5604C218.296 100.014 210.563 107.75 201.112 107.75Z" fill="#B39EF5"/>
<path d="M73.7692 101.046C67.7206 101.303 62.5999 96.6108 62.3422 90.5601C62.0844 84.5095 66.7755 79.3871 72.8241 79.1293C78.8727 78.8714 83.9933 83.5641 84.2511 89.6147C84.5088 95.6654 79.8178 100.788 73.7692 101.046Z" fill="#4722E9"/>
<path d="M73.4243 99.7052C75.8471 99.7052 78.0638 98.7942 79.765 97.2987C79.6962 96.422 79.2151 95.6313 78.4075 95.236L75.7612 93.9124C75.5206 93.7921 75.366 93.5342 75.366 93.2592V92.331C75.4347 92.245 75.5035 92.1591 75.5722 92.0732C75.9159 91.5919 76.1908 91.059 76.397 90.4746C76.7922 90.3027 77.0328 89.9073 77.0328 89.4776V88.3775C77.0328 88.1196 76.9297 87.8618 76.7579 87.6555V86.1772C76.775 86.0225 76.8266 85.1115 76.1736 84.3724C75.6066 83.7192 74.6787 83.3926 73.4243 83.3926C72.1699 83.3926 71.2592 83.7192 70.6921 84.3724C70.0391 85.1115 70.0907 86.0225 70.1079 86.1772V87.6555C69.936 87.8618 69.8329 88.1196 69.8329 88.3775V89.4776C69.8329 89.8214 69.9876 90.1308 70.2453 90.337C70.5031 91.334 71.0358 92.0903 71.2076 92.331V93.242C71.2076 93.5171 71.0701 93.7577 70.8296 93.878L68.3552 95.2188C67.5819 95.6313 67.118 96.422 67.0664 97.2815C68.7676 98.7942 70.9842 99.7052 73.4243 99.7052Z" fill="white"/>
<path d="M198.537 101.734H102.31C96.1754 101.734 91.1406 96.7145 91.1406 90.5607C91.1406 84.407 96.1754 79.3877 102.31 79.3877H198.537C204.672 79.3877 209.706 84.407 209.706 90.5607C209.706 96.6973 204.672 101.734 198.537 101.734Z" fill="white"/>
<path d="M108.031 90.5599L109.457 91.3334L108.65 92.6742L107.189 91.7975L107.223 93.3961H105.642L105.677 91.7975L104.216 92.6742L103.426 91.3334L104.852 90.5599L103.426 89.7863L104.216 88.4456L105.677 89.3394L105.642 87.7236H107.223L107.189 89.3394L108.65 88.4456L109.457 89.7863L108.031 90.5599Z" fill="#B39EF5"/>
<path d="M117.67 90.5599L119.096 91.3334L118.288 92.6742L116.828 91.7975L116.862 93.3961H115.281L115.316 91.7975L113.855 92.6742L113.064 91.3334L114.491 90.5599L113.064 89.7864L113.855 88.4456L115.316 89.3394L115.281 87.7236H116.862L116.828 89.3394L118.288 88.4456L119.096 89.7864L117.67 90.5599Z" fill="#B39EF5"/>
<path d="M127.31 90.5599L128.736 91.3334L127.929 92.6742L126.468 91.7975L126.503 93.3961H124.922L124.956 91.7975L123.496 92.6742L122.705 91.3334L124.131 90.5599L122.705 89.7864L123.496 88.4456L124.956 89.3394L124.922 87.7236H126.503L126.468 89.3394L127.929 88.4456L128.736 89.7864L127.31 90.5599Z" fill="#B39EF5"/>
<path d="M136.953 90.5599L138.379 91.3334L137.571 92.6742L136.111 91.7975L136.145 93.3961H134.564L134.599 91.7975L133.138 92.6742L132.348 91.3334L133.774 90.5599L132.348 89.7864L133.138 88.4456L134.599 89.3394L134.564 87.7236H136.145L136.111 89.3394L137.571 88.4456L138.379 89.7864L136.953 90.5599Z" fill="#B39EF5"/>
<path d="M146.593 90.5599L148.02 91.3334L147.212 92.6742L145.751 91.7975L145.786 93.3961H144.205L144.239 91.7975L142.779 92.6742L141.988 91.3334L143.415 90.5599L141.988 89.7864L142.779 88.4456L144.239 89.3394L144.205 87.7236H145.786L145.751 89.3394L147.212 88.4456L148.02 89.7864L146.593 90.5599Z" fill="#B39EF5"/>
<path d="M156.234 90.5599L157.66 91.3334L156.853 92.6742L155.392 91.7975L155.426 93.3961H153.846L153.88 91.7975L152.419 92.6742L151.629 91.3334L153.055 90.5599L151.629 89.7864L152.419 88.4456L153.88 89.3394L153.846 87.7236H155.426L155.392 89.3394L156.853 88.4456L157.66 89.7864L156.234 90.5599Z" fill="#B39EF5"/>
<path d="M165.873 90.5599L167.299 91.3334L166.491 92.6742L165.031 91.7975L165.065 93.3961H163.484L163.519 91.7975L162.058 92.6742L161.268 91.3334L162.694 90.5599L161.268 89.7864L162.058 88.4456L163.519 89.3394L163.484 87.7236H165.065L165.031 89.3394L166.491 88.4456L167.299 89.7864L165.873 90.5599Z" fill="#B39EF5"/>
<path d="M175.511 90.5599L176.937 91.3334L176.13 92.6742L174.669 91.7975L174.703 93.3961H173.105L173.14 91.7975L171.679 92.6742L170.889 91.3334L172.315 90.5599L170.889 89.7864L171.679 88.4456L173.14 89.3394L173.105 87.7236H174.686L174.652 89.3394L176.112 88.4456L176.92 89.7864L175.511 90.5599Z" fill="#B39EF5"/>
<path d="M185.152 90.5599L186.578 91.3334L185.771 92.6742L184.31 91.7975L184.344 93.3961H182.764L182.798 91.7975L181.337 92.6742L180.547 91.3334L181.973 90.5599L180.547 89.7864L181.337 88.4456L182.798 89.3394L182.764 87.7236H184.344L184.31 89.3394L185.771 88.4456L186.578 89.7864L185.152 90.5599Z" fill="#B39EF5"/>
<path d="M194.775 90.5599L196.201 91.3334L195.394 92.6742L193.933 91.7975L193.967 93.3961H192.387L192.421 91.7975L190.96 92.6742L190.17 91.3334L191.596 90.5599L190.17 89.7864L190.96 88.4456L192.421 89.3394L192.387 87.7236H193.967L193.933 89.3394L195.394 88.4456L196.201 89.7864L194.775 90.5599Z" fill="#B39EF5"/>
<path d="M148.665 30.6528L137.217 26.5703L125.878 30.5967C124.433 31.2755 123.162 31.6819 123.162 33.0214V39.6866C123.162 44.3157 124.384 48.9027 126.897 52.9531C129.012 56.3609 132.287 59.8707 137.328 62.1011C141.962 60.6055 145.422 56.6211 147.536 53.2134C150.048 49.163 151.27 44.576 151.27 39.9469V33.9524C151.27 32.0443 150.252 31.1113 148.665 30.6528Z" fill="#06BF9D"/>
<path d="M140.594 39.4334L140.61 38.1898C140.61 35.9381 138.824 34.1074 136.627 34.1074C134.43 34.1074 132.644 35.9381 132.644 38.1843L132.628 39.4528C131.553 39.6162 130.729 40.5634 130.729 41.71V49.0495C130.729 50.3125 131.726 51.3345 132.958 51.3345H140.391C141.623 51.3345 142.62 50.3125 142.62 49.0495V41.71C142.618 40.5136 141.729 39.5387 140.594 39.4334ZM137.689 47.2188H135.744L136.046 45.7786C135.708 45.5654 135.484 45.1831 135.484 44.7455C135.484 44.0753 136.014 43.5297 136.67 43.5297C137.324 43.5297 137.857 44.0725 137.857 44.7455C137.857 45.1665 137.649 45.5377 137.332 45.7537C137.47 46.3159 137.689 47.2188 137.689 47.2188ZM139.735 39.4223H133.485L133.501 38.1871C133.501 36.4201 134.903 34.9854 136.624 34.9854C138.348 34.9854 139.748 36.4228 139.748 38.1815L139.735 39.4223Z" fill="white"/>
<rect x="1" y="1" width="260" height="159.73" rx="8.64863" stroke="#B39EF5" stroke-width="1.0155" stroke-miterlimit="10" stroke-linecap="round"/>
<path d="M1 9.37813C1 4.60162 4.87212 0.729492 9.64863 0.729492H31.2702V22.2282C31.2702 27.0047 27.3981 30.8769 22.6216 30.8769H1V9.37813Z" fill="#B39EF5"/>
<path d="M19.7172 12.0463C19.7172 12.9933 19.4447 13.7457 18.8999 14.3036C18.368 14.8614 17.6739 15.2311 16.8177 15.4128V15.4906C17.9204 15.6203 18.7507 15.9706 19.3085 16.5414C19.8664 17.0992 20.1453 17.8387 20.1453 18.7598C20.1453 19.5641 19.9507 20.2841 19.5615 20.9198C19.1853 21.5425 18.595 22.0354 17.7907 22.3987C16.9993 22.749 15.981 22.9241 14.7356 22.9241C13.9961 22.9241 13.3085 22.8657 12.6729 22.749C12.0372 22.6322 11.4339 22.4376 10.8631 22.1652V20.2971C11.4469 20.5954 12.0696 20.8225 12.7312 20.9781C13.4058 21.1338 14.048 21.2117 14.6577 21.2117C15.8383 21.2117 16.688 20.9911 17.2069 20.55C17.7258 20.096 17.9853 19.4668 17.9853 18.6625C17.9853 17.8841 17.6739 17.3133 17.0512 16.95C16.4285 16.5868 15.4945 16.4052 14.2491 16.4052H12.9842V14.7122H14.2685C15.4491 14.7122 16.3053 14.4917 16.8372 14.0506C17.3691 13.6095 17.635 13.0322 17.635 12.3187C17.635 11.696 17.4274 11.216 17.0123 10.8787C16.6102 10.5284 16.0264 10.3533 15.261 10.3533C14.5475 10.3533 13.9248 10.4636 13.3929 10.6841C12.8739 10.9047 12.3875 11.1706 11.9334 11.482L10.9215 10.0614C11.4275 9.67223 12.0437 9.34142 12.7702 9.06898C13.5096 8.78358 14.3593 8.64088 15.3193 8.64088C16.7593 8.64088 17.8491 8.95871 18.5885 9.59439C19.341 10.2171 19.7172 11.0344 19.7172 12.0463Z" fill="#4722E9"/>
</svg>
