<svg width="261" height="162" viewBox="0 0 261 162" fill="none" xmlns="http://www.w3.org/2000/svg">
<rect x="1" y="1" width="259.459" height="160" rx="8.64863" stroke="#B39EF5" stroke-width="1.0155" stroke-miterlimit="10" stroke-linecap="round"/>
<mask id="mask0" mask-type="alpha" maskUnits="userSpaceOnUse" x="1" y="1" width="260" height="160">
<rect x="1" y="1" width="260" height="160" rx="8.64863" fill="#C4C4C4"/>
</mask>
<g mask="url(#mask0)">
</g>
<g clip-path="url(#clip0)">
<path d="M204.96 134.882H56.6328V43.0055C56.6328 37.7207 60.9065 33.4316 66.1724 33.4316H195.421C200.687 33.4316 204.96 37.7207 204.96 43.0055V134.882Z" fill="#4722E9"/>
<path d="M136.509 38.1225C136.509 39.0033 135.771 39.7117 134.862 39.7117C133.953 39.7117 133.215 38.9969 133.215 38.1225C133.215 37.2417 133.953 36.5332 134.862 36.5332C135.771 36.5332 136.509 37.248 136.509 38.1225Z" stroke="white" stroke-width="1.08108" stroke-miterlimit="10"/>
<path d="M56.8672 134.883L40.5927 171.927C39.3272 174.812 41.5149 178.003 44.7584 178.003H216.413C219.937 178.003 222.328 174.538 220.98 171.397L204.842 134.883L56.8672 134.883Z" fill="#4722E9"/>
<path d="M67.5025 141.993L63.0316 156.219C62.4592 158.038 63.4704 160.043 64.9522 160.043H196.725C198.188 160.043 199.199 158.09 198.665 156.283L194.62 142.446C194.309 141.386 193.539 140.684 192.681 140.684L69.4231 140.295C68.5836 140.289 67.8268 140.959 67.5025 141.993Z" fill="#B39EF5"/>
<path d="M66.3984 145.649H195.456" stroke="white" stroke-width="0.915174" stroke-miterlimit="10" stroke-linecap="round" stroke-linejoin="round"/>
<path d="M64.5137 152.301H197.387" stroke="white" stroke-width="0.915174" stroke-miterlimit="10" stroke-linecap="round" stroke-linejoin="round"/>
<path d="M104.95 152.301L102.477 160.075" stroke="white" stroke-width="0.915174" stroke-miterlimit="10" stroke-linecap="round" stroke-linejoin="round"/>
<path d="M156.354 152.301L158.827 160.075" stroke="white" stroke-width="0.915174" stroke-miterlimit="10" stroke-linecap="round" stroke-linejoin="round"/>
<path d="M82.7266 140.32L81.1367 145.586" stroke="white" stroke-width="0.915174" stroke-miterlimit="10" stroke-linecap="round" stroke-linejoin="round"/>
<path d="M91.5216 140.32L89.9316 145.586" stroke="white" stroke-width="0.915174" stroke-miterlimit="10" stroke-linecap="round" stroke-linejoin="round"/>
<path d="M99.6817 140.32L98.0918 145.586" stroke="white" stroke-width="0.915174" stroke-miterlimit="10" stroke-linecap="round" stroke-linejoin="round"/>
<path d="M110.936 140.32L109.346 145.586" stroke="white" stroke-width="0.915174" stroke-miterlimit="10" stroke-linecap="round" stroke-linejoin="round"/>
<path d="M121.437 140.32L120.693 145.586" stroke="white" stroke-width="0.915174" stroke-miterlimit="10" stroke-linecap="round" stroke-linejoin="round"/>
<path d="M131.295 140.32L131.346 145.586" stroke="white" stroke-width="0.915174" stroke-miterlimit="10" stroke-linecap="round" stroke-linejoin="round"/>
<path d="M183.77 140.32L185.359 145.586" stroke="white" stroke-width="0.915174" stroke-miterlimit="10" stroke-linecap="round" stroke-linejoin="round"/>
<path d="M173.436 140.32L175.025 145.586" stroke="white" stroke-width="0.915174" stroke-miterlimit="10" stroke-linecap="round" stroke-linejoin="round"/>
<path d="M160.047 140.32L161.637 145.586" stroke="white" stroke-width="0.915174" stroke-miterlimit="10" stroke-linecap="round" stroke-linejoin="round"/>
<path d="M148.975 140.32L150.558 145.586" stroke="white" stroke-width="0.915174" stroke-miterlimit="10" stroke-linecap="round" stroke-linejoin="round"/>
<path d="M139.314 140.32L140.059 145.586" stroke="white" stroke-width="0.915174" stroke-miterlimit="10" stroke-linecap="round" stroke-linejoin="round"/>
<path d="M85.8946 145.72L84.3047 152.3" stroke="white" stroke-width="0.915174" stroke-miterlimit="10" stroke-linecap="round" stroke-linejoin="round"/>
<path d="M81.3969 152.83L79.3555 161.281" stroke="white" stroke-width="0.915174" stroke-miterlimit="10" stroke-linecap="round" stroke-linejoin="round"/>
<path d="M184.178 152.83L186.213 161.281" stroke="white" stroke-width="0.915174" stroke-miterlimit="10" stroke-linecap="round" stroke-linejoin="round"/>
<path d="M102.957 145.72L101.367 152.3" stroke="white" stroke-width="0.915174" stroke-miterlimit="10" stroke-linecap="round" stroke-linejoin="round"/>
<path d="M114.211 145.72L112.621 152.3" stroke="white" stroke-width="0.915174" stroke-miterlimit="10" stroke-linecap="round" stroke-linejoin="round"/>
<path d="M124.719 145.72L123.969 152.3" stroke="white" stroke-width="0.915174" stroke-miterlimit="10" stroke-linecap="round" stroke-linejoin="round"/>
<path d="M134.57 145.72L134.621 152.3" stroke="white" stroke-width="0.915174" stroke-miterlimit="10" stroke-linecap="round" stroke-linejoin="round"/>
<path d="M173.363 145.72L174.953 152.3" stroke="white" stroke-width="0.915174" stroke-miterlimit="10" stroke-linecap="round" stroke-linejoin="round"/>
<path d="M158.49 145.72L160.08 152.3" stroke="white" stroke-width="0.915174" stroke-miterlimit="10" stroke-linecap="round" stroke-linejoin="round"/>
<path d="M143.748 145.72L144.492 152.3" stroke="white" stroke-width="0.915174" stroke-miterlimit="10" stroke-linecap="round" stroke-linejoin="round"/>
<path d="M196.61 42.1182H64.9766V126.815H196.61V42.1182Z" fill="#F8FBFD"/>
<path d="M144.921 69.6276L131.272 64.7832L117.752 69.5611C116.028 70.3665 114.514 70.8488 114.514 72.4382V80.3475C114.514 85.8405 115.971 91.2836 118.966 96.0899C121.489 100.134 125.393 104.299 131.404 106.945C136.929 105.17 141.055 100.443 143.574 96.3988C146.57 91.5924 148.027 86.1493 148.027 80.6563V73.543C148.027 71.2788 146.813 70.1717 144.921 69.6276Z" fill="#06BF9D"/>
<path d="M135.903 80.5288L135.922 79.1241C135.922 76.5806 133.811 74.5127 131.215 74.5127C128.619 74.5127 126.508 76.5806 126.508 79.1179L126.489 80.5507C125.218 80.7353 124.244 81.8053 124.244 83.1005V91.3911C124.244 92.8177 125.422 93.9721 126.879 93.9721H135.664C137.12 93.9721 138.298 92.8177 138.298 91.3911V83.1005C138.295 81.749 137.244 80.6477 135.903 80.5288ZM132.47 89.3231H130.171L130.529 87.6963C130.13 87.4554 129.864 87.0237 129.864 86.5294C129.864 85.7722 130.49 85.1559 131.266 85.1559C132.039 85.1559 132.668 85.7691 132.668 86.5294C132.668 87.0049 132.422 87.4241 132.049 87.6681C132.212 88.3032 132.47 89.3231 132.47 89.3231ZM134.888 80.5163H127.501L127.521 79.121C127.521 77.125 129.178 75.5044 131.212 75.5044C133.249 75.5044 134.904 77.1281 134.904 79.1148L134.888 80.5163Z" fill="white"/>
</g>
<path d="M1 9.64863C1 4.87212 4.87212 1 9.64863 1H31.2702V22.6216C31.2702 27.3981 27.3981 31.2702 22.6216 31.2702H1V9.64863Z" fill="#B39EF5"/>
<path d="M17.2653 23H15.2221V13.7762C15.2221 13.2962 15.2285 12.8552 15.2415 12.453C15.2545 12.0508 15.2739 11.6616 15.2999 11.2854C15.1312 11.4541 14.9561 11.6227 14.7745 11.7914C14.5929 11.9471 14.3853 12.1222 14.1518 12.3168L12.634 13.5427L11.5831 12.2195L15.5529 9.10598H17.2653V23Z" fill="#4722E9"/>
<defs>
<clipPath id="clip0">
<rect width="192.432" height="147.027" fill="white" transform="translate(34.5137 13.9727)"/>
</clipPath>
</defs>
</svg>
