<svg width="240" height="83" fill="none" xmlns="http://www.w3.org/2000/svg"><path d="M128.991 45.156c1.596 0 3.024-1.248 3.024-3.408 0-2.172-1.428-3.432-3.024-3.432s-3.024 1.26-3.024 3.432c0 2.16 1.428 3.408 3.024 3.408zm0-.912c-1.128 0-1.884-.996-1.884-2.496s.756-2.52 1.884-2.52 1.896 1.02 1.896 2.52-.768 2.496-1.896 2.496zm5.106.756h1.092v-4.188c.432-1.116 1.104-1.5 1.644-1.5.264 0 .42.024.636.108l.204-.96c-.204-.108-.408-.144-.696-.144-.732 0-1.392.528-1.848 1.356h-.036l-.096-1.188h-.9V45z" fill="#939598"/><g clip-path="url(#clip0)"><mask id="a" maskUnits="userSpaceOnUse" x="7.164" y=".164" width="86" height="61" fill="#000"><path fill="#fff" d="M7.164.164h86v61h-86z"/><path fill-rule="evenodd" clip-rule="evenodd" d="M89.76 52.965V6.764c0-3.08-2.532-5.6-5.628-5.6H16.605c-3.094 0-5.627 2.52-5.627 5.6v46.2l.009.002H8.164v1.4c0 3.08 2.533 5.6 5.628 5.6h73.155c3.096 0 5.627-2.52 5.627-5.6v-1.4h-2.822l.008-.001z"/></mask><path fill-rule="evenodd" clip-rule="evenodd" d="M89.76 52.965V6.764c0-3.08-2.532-5.6-5.628-5.6H16.605c-3.094 0-5.627 2.52-5.627 5.6v46.2l.009.002H8.164v1.4c0 3.08 2.533 5.6 5.628 5.6h73.155c3.096 0 5.627-2.52 5.627-5.6v-1.4h-2.822l.008-.001z" fill="#5D04D9"/><path d="M89.76 52.965l.059.395a.4.4 0 00.341-.395h-.4zm-78.782 0h-.4a.4.4 0 00.343.395l.057-.395zm.009 0v.4a.4.4 0 00.057-.795l-.057.396zm-2.823 0v-.4a.4.4 0 00-.4.4h.4zm84.41 0h.4a.4.4 0 00-.4-.4v.4zm-2.822 0l-.058-.395a.4.4 0 00.058.796v-.4zm-.392-46.2v46.2h.8v-46.2h-.8zm-5.228-5.2c2.877 0 5.228 2.343 5.228 5.2h.8c0-3.302-2.713-6-6.028-6v.8zm-67.527 0h67.527v-.8H16.605v.8zm-5.227 5.2c0-2.857 2.352-5.2 5.227-5.2v-.8c-3.313 0-6.027 2.698-6.027 6h.8zm0 46.2v-46.2h-.8v46.2h.8zm-.334-.394l-.008-.001-.115.791.008.002.115-.792zm-2.88.796h2.823v-.8H8.164v.8zm.4 1v-1.4h-.8v1.4h.8zm5.228 5.2c-2.876 0-5.228-2.343-5.228-5.2h-.8c0 3.303 2.713 6 6.028 6v-.8zm73.155 0H13.792v.8h73.155v-.8zm5.227-5.2c0 2.857-2.35 5.2-5.227 5.2v.8c3.315 0 6.027-2.697 6.027-6h-.8zm0-1.4v1.4h.8v-1.4h-.8zm-2.422.4h2.822v-.8h-2.822v.8zm-.05-.797l-.008.001.117.792.008-.002-.117-.791z" fill="#4D4D4F" mask="url(#a)"/><path d="M89.76 6.764v46.2l-28.488 4.2H39.82l-28.84-4.2v-46.2c0-3.08 2.532-5.6 5.627-5.6h67.526c3.096 0 5.629 2.52 5.629 5.6z" fill="#DFCDF7"/><path fill-rule="evenodd" clip-rule="evenodd" d="M84.132 6.764H16.605v42.001h67.527V6.764z" fill="#fff" stroke="#4D4D4F" stroke-width=".6" stroke-linecap="round" stroke-linejoin="round"/><path d="M92.574 52.966v1.4c0 3.08-2.53 5.6-5.627 5.6H13.792c-3.095 0-5.628-2.52-5.628-5.6v-1.4h35.17l.782 1.545c.343.694 1.258 1.253 2.032 1.253h8.44c.774 0 1.69-.559 2.034-1.253l.78-1.545h35.172z" fill="#5D04D9"/><g clip-path="url(#clip1)"><path d="M47.752 30.936c1.094 0 1.982-.841 1.982-1.88 0-1.037-.888-1.878-1.982-1.878-1.094 0-1.982.841-1.982 1.879s.888 1.879 1.982 1.879z" fill="#06BF9D"/><path d="M40.006 27.69c.376 0 .706.1.991.3.12.085.24.127.39.099a.547.547 0 00.346-.185.505.505 0 00-.09-.712 2.662 2.662 0 00-1.577-.513c-.69 0-1.29.242-1.786.698-.495.456-.75 1.01-.75 1.665s.255 1.21.75 1.666a2.568 2.568 0 001.786.697c.57 0 1.096-.17 1.576-.498.12-.1.18-.213.196-.341a.492.492 0 00-.465-.555.486.486 0 00-.376.099c-.285.2-.63.299-.99.299a1.39 1.39 0 01-.992-.399c-.285-.284-.435-.598-.435-.953 0-.37.15-.684.435-.954.3-.27.63-.413.991-.413zm4.969-1.01c-.66 0-1.216.227-1.682.697-.465.47-.705 1.025-.705 1.68s.225 1.21.69 1.665a2.3 2.3 0 001.697.698c.675 0 1.23-.242 1.666-.712.465-.427.69-.968.69-1.623a2.32 2.32 0 00-.69-1.694 2.223 2.223 0 00-1.666-.712zm.93 3.373c-.255.228-.57.356-.93.356-.36 0-.676-.114-.931-.356-.24-.27-.36-.612-.36-.996 0-.385.12-.712.36-.982.285-.242.6-.356.93-.356.346 0 .646.113.931.355.256.27.39.598.39.983a1.517 1.517 0 01-.39.996zm4.535-3.373c-.66 0-1.216.227-1.682.697-.465.47-.705 1.025-.705 1.68s.225 1.21.69 1.665a2.3 2.3 0 001.697.698c.675 0 1.23-.242 1.666-.712.465-.427.69-.968.69-1.623s-.225-1.224-.69-1.694a2.223 2.223 0 00-1.666-.712zm.93 3.373a1.37 1.37 0 01-.93.356c-.36 0-.676-.114-.931-.356-.24-.27-.36-.612-.36-.996 0-.385.12-.712.36-.982.285-.242.6-.356.93-.356.33 0 .646.113.931.355.256.27.39.598.39.983 0 .384-.134.711-.39.996zm4.729-3.373c-.48 0-.916.128-1.306.384v-1.552a.525.525 0 00-.54-.512c-.3 0-.541.227-.541.512v3.659c0 .028 0 .056.015.085.045.57.27 1.053.69 1.466a2.3 2.3 0 001.697.698c.675 0 1.23-.242 1.666-.712.465-.427.69-.968.69-1.623s-.225-1.224-.69-1.694c-.465-.47-1.02-.711-1.681-.711zm.93 3.373a1.37 1.37 0 01-.93.356c-.36 0-.676-.114-.931-.356-.24-.27-.36-.612-.36-.996 0-.385.12-.712.36-.982.285-.242.6-.356.93-.356.331 0 .646.113.931.355.256.271.39.598.39.983 0 .384-.134.711-.39.996zm6.351-3.231a.512.512 0 00-.376-.143.51.51 0 00-.375.143.46.46 0 00-.15.356v2.235c0 .27-.106.498-.3.683a1.013 1.013 0 01-.721.285c-.285 0-.526-.1-.736-.285a.912.912 0 01-.3-.683v-2.235a.44.44 0 00-.15-.356.512.512 0 00-.375-.143c-.15 0-.27.043-.376.143a.46.46 0 00-.15.356v2.235c0 .54.21 1.01.616 1.395.405.384.9.583 1.47.583.346 0 .661-.071.946-.228-.075.242-.24.442-.465.613a1.24 1.24 0 01-.706.241c-.24 0-.435-.028-.6-.113a.636.636 0 00-.45-.043.534.534 0 00-.316.242.522.522 0 00-.014.398.457.457 0 00.285.285c.33.157.675.242 1.02.242.661 0 1.231-.213 1.682-.655.465-.44.69-.968.69-1.594v-3.601a.48.48 0 00-.15-.356z" fill="#000"/></g></g><path d="M107.581 20.883v2.095H69.807v-2.096c0-2.305 1.89-4.19 4.197-4.19h29.379c2.309 0 4.198 1.886 4.198 4.19z" fill="#4D4D4F"/><path fill-rule="evenodd" clip-rule="evenodd" d="M83.242 20.538h5.03a.484.484 0 100-.966h-5.03a.484.484 0 100 .966zm8.512 0h1.355a.484.484 0 100-.966h-1.355a.484.484 0 100 .966z" fill="#fff"/><path d="M107.906 19.752v2.232H67.675v-2.232c0-2.455 2.012-4.463 4.47-4.463h31.291c2.458 0 4.47 2.008 4.47 4.463z" fill="#5D04D9"/><path fill-rule="evenodd" clip-rule="evenodd" d="M82.5 19.212h5.325a.484.484 0 100-.967H82.5a.484.484 0 100 .967zm9.037 0h.968a.484.484 0 100-.967h-.968a.484.484 0 100 .967z" fill="#fff"/><path d="M107.581 20.884v54.485c0 2.306-1.889 4.191-4.197 4.191h-29.38c-2.308 0-4.197-1.885-4.197-4.19V20.882c0-2.305 1.89-4.19 4.197-4.19h29.38c2.308 0 4.197 1.885 4.197 4.19z" fill="#fff"/><path d="M107.581 73.273v2.096c0 2.306-1.889 4.191-4.197 4.191h-29.38a4.211 4.211 0 01-3.824-2.468 4.13 4.13 0 01-.373-1.723v-2.096h37.774z" fill="#4D4D4F"/><path fill-rule="evenodd" clip-rule="evenodd" d="M86.597 76.923h4.197a.484.484 0 100-.966h-4.197a.484.484 0 100 .966z" fill="#fff"/><path d="M107.905 19.753V77.78c0 2.456-2.012 4.464-4.47 4.464h-31.29c-2.459 0-4.471-2.008-4.471-4.464V19.752c0-2.454 2.012-4.463 4.47-4.463h31.291c2.458 0 4.47 2.009 4.47 4.464z" fill="#fff"/><path d="M107.906 75.55v2.232c0 2.455-2.012 4.463-4.47 4.463H72.145a4.486 4.486 0 01-4.073-2.628 4.397 4.397 0 01-.397-1.835v-2.233h40.231z" fill="#5D04D9"/><path fill-rule="evenodd" clip-rule="evenodd" d="M85.555 79.407h4.47a.484.484 0 100-.967h-4.47a.484.484 0 100 .967z" fill="#fff"/><path fill-rule="evenodd" clip-rule="evenodd" d="M107.616 27.387V77.78c0 2.296-1.881 4.174-4.18 4.174H75.684a.29.29 0 100 .58h27.752c2.619 0 4.761-2.14 4.761-4.754V27.386a.29.29 0 00-.581 0zM67.964 77.781V28.388a.29.29 0 00-.58 0v49.393a.29.29 0 00.58 0z" fill="#4D4D4F"/><path fill-rule="evenodd" clip-rule="evenodd" d="M67.965 34.08V19.754c0-2.295 1.881-4.173 4.18-4.173h31.29c2.299 0 4.18 1.878 4.18 4.173v15.004a.29.29 0 00.58 0V19.753c0-2.614-2.142-4.753-4.76-4.753h-31.29c-2.618 0-4.761 2.14-4.761 4.754V34.08a.29.29 0 00.58 0zm7.047 22.026h5.375a.29.29 0 110 .58h-5.665a.29.29 0 01-.29-.29v-5.658a.29.29 0 01.58 0v5.368zm27.362 0v-5.368a.29.29 0 01.581 0v5.658c0 .16-.13.29-.29.29h-5.667a.29.29 0 110-.58h5.376z" fill="#4D4D4F"/><path fill-rule="evenodd" clip-rule="evenodd" d="M75.013 28.782v5.368a.29.29 0 01-.58 0v-5.657c0-.16.13-.29.29-.29h5.665a.29.29 0 110 .58h-5.375zm27.361 0h-5.376a.29.29 0 110-.58h5.667c.16 0 .29.13.29.29v5.658a.29.29 0 01-.581 0v-5.368z" fill="#4D4D4F"/><path d="M100.864 30.292H76.525v24.303h24.339V30.292z" fill="#fff"/><path d="M77.838 31.604v21.679h21.71V31.604h-21.71zm21.01 20.98h-20.31v-20.28h20.31v20.28zM85.541 33.701h-5.603v5.594h5.603v-5.594zm-.7 4.895h-4.203V34.4h4.202v4.196zm-.701-.699h-2.802V35.1h2.802v2.797zm13.305-4.196h-5.602v5.594h5.603v-5.594zm-.7 4.895h-4.202V34.4h4.202v4.196zm-.7-.699h-2.801V35.1h2.801v2.797zM85.541 45.59H79.94v5.594h5.603V45.59zm-.7 4.895H80.64V46.29h4.202v4.196zm-.7-.699h-2.802V46.99h2.802v2.797zM86.942 35.8h-.7v-2.098h.7V35.8zm0 10.49v.699h1.4v.7h-1.4v.699h-.7V46.29h.7zm-6.303-2.797h1.4v1.398h2.102v-1.398h2.1v1.398h1.401v-2.797h.7v4.196h.7v-.7h.7v2.798h-1.4v.699h1.4v.7h.7v.698h-1.4v.7h2.101v-2.798h.7v.7h.7v-.7h.7v1.399h.7v.699h-1.4v.7h2.101v-1.4h1.4v-2.098h-2.1v-.699h2.1v-.7h-2.1v-1.397h-2.101v-.7h.7v-1.398h1.4v-2.098h-1.4v1.4h-2.1v-1.4h2.101v-.7h-2.802v2.798h2.101v.7h-2.801v-2.099h-1.4v-2.098h-.7v1.4H85.54v-.7h-2.1v.7h1.4v.698h-1.4v.7h1.4v.699h-1.4v1.398h-.7v-3.496h-2.101v-.7h-.7v4.197h.7v-.7zm10.505 2.097v.7h.7v-.7h1.4v2.098h-.7v-.7h-.7v.7h-1.4V45.59h.7zm-5.603-2.797v-1.399h1.401v1.4h-1.4zm-4.902-1.399h1.4v.7h-1.4v-.7zm14.006-.698h2.802v2.097h-.7v-1.399h-1.401v2.098h1.4v1.399h.7v2.098h-.7V45.59h-1.4v-1.399h-.7v-3.495zm-6.302-2.099h-2.101V37.2h1.4v-3.497h2.802v.7h-2.101v4.195zm0 .7v-.7h.7v-3.496h.7v.7h1.401v2.097h-1.4v.7h.7v.698h-2.101zm-.7 9.79h.7v1.398h-2.101v-.699h1.4v-.699zm9.103.7h.7v1.398h-2.1v-.7h1.4v-.699z" fill="#4D4D4F"/><path d="M102.283 36.96H74.929v1.575h27.354V36.96zm-3.51 30.224a1.94 1.94 0 01-1.935 1.933H80.464a1.94 1.94 0 01-1.935-1.933v-2.2a1.94 1.94 0 011.935-1.932h16.374a1.94 1.94 0 011.935 1.932v2.2z" fill="#5D04D9"/><path d="M84.066 67.157a.158.158 0 01-.07-.057.145.145 0 01.012-.187.132.132 0 01.103-.042c.023 0 .044.004.066.014.211.094.438.141.68.141.404 0 .605-.132.605-.397a.22.22 0 00-.078-.172.563.563 0 00-.191-.109 4.207 4.207 0 00-.325-.095 4.25 4.25 0 01-.453-.14.788.788 0 01-.297-.202.508.508 0 01-.124-.359c0-.13.034-.25.103-.357a.712.712 0 01.307-.255c.134-.064.296-.095.485-.095.254 0 .483.038.688.114a.135.135 0 01.097.138c0 .037-.013.07-.038.1a.125.125 0 01-.1.045.162.162 0 01-.055-.014 1.692 1.692 0 00-.557-.093.85.85 0 00-.444.103.322.322 0 00-.171.29c0 .083.027.15.081.202a.55.55 0 00.204.12c.082.03.193.06.334.092.182.044.329.088.44.131a.725.725 0 01.288.204.55.55 0 01.118.373.579.579 0 01-.11.346.724.724 0 01-.311.24 1.16 1.16 0 01-.463.087 2.07 2.07 0 01-.825-.165zm2.631.016a1.084 1.084 0 01-.431-.431 1.325 1.325 0 01-.158-.657c0-.251.053-.47.158-.658.105-.188.249-.331.431-.432.183-.1.39-.15.621-.15a1.462 1.462 0 01.788.214.14.14 0 01.076.131.132.132 0 01-.138.131.134.134 0 01-.062-.014 1.23 1.23 0 00-.633-.162.987.987 0 00-.506.123.786.786 0 00-.315.334c-.07.141-.105.302-.105.482s.035.34.105.48c.07.142.175.254.315.336.14.081.308.122.506.122a1.235 1.235 0 00.633-.162.14.14 0 01.062-.014c.042 0 .075.013.1.038a.126.126 0 01.038.093c0 .06-.025.103-.076.131a1.476 1.476 0 01-.788.214 1.261 1.261 0 01-.62-.149zm1.838.088a.154.154 0 01-.025-.18l.88-2.077a.256.256 0 01.079-.101.191.191 0 01.123-.04h.034a.19.19 0 01.123.04.26.26 0 01.077.101l.882 2.078c.01.028.017.05.017.069 0 .043-.015.08-.043.11a.148.148 0 01-.113.045.153.153 0 01-.087-.026.156.156 0 01-.06-.07l-.225-.539h-1.175l-.225.538a.163.163 0 01-.149.097.15.15 0 01-.112-.045zm.607-.876h.933l-.467-1.122-.466 1.122zm2.136.875a.15.15 0 01-.046-.11v-2.06a.22.22 0 01.066-.16.214.214 0 01.16-.068h.044c.074 0 .137.035.19.104l1.33 1.918v-1.863c0-.044.016-.081.045-.112a.148.148 0 01.11-.047c.044 0 .082.016.113.047.031.03.047.068.047.112v2.06a.213.213 0 01-.068.159.222.222 0 01-.16.065h-.042a.237.237 0 01-.183-.093l-1.337-1.93v1.868c0 .043-.016.08-.048.11a.155.155 0 01-.112.045.148.148 0 01-.11-.044z" fill="#fff"/><path d="M197.943 5.882v2.096h-37.775V5.882c0-2.305 1.89-4.19 4.197-4.19h29.38c2.308 0 4.198 1.885 4.198 4.19z" fill="#4D4D4F"/><path fill-rule="evenodd" clip-rule="evenodd" d="M173.602 5.538h5.03a.484.484 0 100-.966h-5.03a.484.484 0 100 .966zm8.514-.001h1.354a.484.484 0 100-.966h-1.354a.484.484 0 100 .966z" fill="#fff"/><path d="M198.266 4.752v2.232h-40.231V4.752c0-2.455 2.012-4.463 4.47-4.463h31.291c2.458 0 4.47 2.008 4.47 4.463z" fill="#5D04D9"/><path fill-rule="evenodd" clip-rule="evenodd" d="M172.86 4.211h5.327a.484.484 0 100-.966h-5.327a.484.484 0 000 .966zm9.037 0h.969a.484.484 0 100-.966h-.969a.484.484 0 000 .966z" fill="#fff"/><path d="M197.942 5.883v54.486c0 2.306-1.889 4.19-4.197 4.19h-29.38c-2.307 0-4.197-1.885-4.197-4.19V5.883c0-2.305 1.89-4.191 4.197-4.191h29.38c2.308 0 4.197 1.886 4.197 4.191z" fill="#fff"/><path d="M197.942 58.273v2.096c0 2.305-1.889 4.19-4.197 4.19h-29.38a4.212 4.212 0 01-3.824-2.467 4.138 4.138 0 01-.373-1.724v-2.095h37.774z" fill="#4D4D4F"/><path fill-rule="evenodd" clip-rule="evenodd" d="M176.957 61.923h4.197a.484.484 0 100-.967h-4.197a.483.483 0 100 .967z" fill="#fff"/><path d="M198.265 4.752v58.03c0 2.454-2.011 4.463-4.47 4.463h-31.29c-2.458 0-4.471-2.009-4.471-4.464V4.752c0-2.455 2.012-4.463 4.471-4.463h31.29c2.459 0 4.47 2.008 4.47 4.463z" fill="#fff"/><g clip-path="url(#clip2)"><path d="M175.752 32.265c1.094 0 1.982-.842 1.982-1.88 0-1.037-.888-1.878-1.982-1.878-1.094 0-1.981.84-1.981 1.879 0 1.037.887 1.879 1.981 1.879z" fill="#06BF9D"/><path d="M168.006 29.019c.375 0 .706.1.991.299.12.085.24.128.39.1a.553.553 0 00.346-.185.502.502 0 00-.091-.712 2.659 2.659 0 00-1.576-.513c-.69 0-1.291.242-1.786.698-.496.455-.751 1.01-.751 1.665s.255 1.21.751 1.666a2.567 2.567 0 001.786.697 2.74 2.74 0 001.576-.498.506.506 0 00.196-.342.496.496 0 00-.466-.555.485.485 0 00-.375.1 1.72 1.72 0 01-.991.299 1.39 1.39 0 01-.991-.399c-.285-.284-.435-.598-.435-.953 0-.37.15-.684.435-.954.301-.27.631-.413.991-.413zm4.969-1.011c-.661 0-1.216.228-1.682.698-.465.47-.705 1.025-.705 1.68 0 .654.225 1.21.69 1.665a2.3 2.3 0 001.697.697c.675 0 1.231-.241 1.666-.711.465-.427.691-.968.691-1.623s-.226-1.224-.691-1.694a2.223 2.223 0 00-1.666-.712zm.93 3.374c-.255.228-.57.356-.93.356-.361 0-.676-.114-.931-.356-.24-.27-.36-.612-.36-.997 0-.384.12-.711.36-.982.285-.242.6-.356.931-.356.345 0 .645.114.93.356.256.27.391.598.391.983a1.514 1.514 0 01-.391.996zm4.535-3.374c-.661 0-1.216.228-1.682.698-.465.47-.705 1.025-.705 1.68 0 .654.225 1.21.69 1.665a2.3 2.3 0 001.697.697c.675 0 1.231-.241 1.666-.711.465-.427.69-.968.69-1.623s-.225-1.224-.69-1.694a2.223 2.223 0 00-1.666-.712zm.93 3.374c-.255.228-.57.356-.93.356-.361 0-.676-.114-.931-.356-.24-.27-.36-.612-.36-.997 0-.384.12-.711.36-.982.285-.242.6-.356.931-.356.33 0 .645.114.93.356.255.27.391.598.391.983 0 .384-.136.711-.391.996zm4.729-3.374a2.32 2.32 0 00-1.306.385V26.84a.525.525 0 00-.541-.512c-.3 0-.54.227-.54.512v3.66c0 .029 0 .057.015.086.045.57.27 1.053.69 1.466a2.3 2.3 0 001.697.697c.675 0 1.231-.241 1.666-.711.465-.427.691-.968.691-1.623s-.226-1.224-.691-1.694c-.465-.47-1.021-.712-1.681-.712zm.93 3.374c-.255.228-.57.356-.93.356-.361 0-.676-.114-.931-.356-.24-.27-.36-.612-.36-.996 0-.385.12-.712.36-.983.285-.242.6-.355.931-.355.33 0 .645.113.93.355.256.27.391.598.391.983 0 .384-.135.711-.391.996zm6.35-3.232a.512.512 0 00-.375-.142.51.51 0 00-.375.143.461.461 0 00-.151.355v2.235c0 .27-.105.499-.3.684a1.012 1.012 0 01-.72.284c-.286 0-.526-.1-.736-.284a.912.912 0 01-.3-.684v-2.235a.44.44 0 00-.15-.355.513.513 0 00-.376-.143.51.51 0 00-.375.143.46.46 0 00-.15.355v2.235c0 .541.21 1.011.616 1.395.405.385.9.584 1.471.584.345 0 .66-.071.945-.228-.075.242-.24.442-.465.612a1.238 1.238 0 01-.705.242c-.241 0-.436-.028-.601-.113a.634.634 0 00-.45-.043.539.539 0 00-.316.242.522.522 0 00-.015.398.459.459 0 00.286.285c.33.157.675.242 1.02.242.661 0 1.231-.213 1.682-.655.465-.441.69-.968.69-1.594v-3.601a.481.481 0 00-.15-.356z" fill="#000"/></g><path d="M198.266 60.549v2.232c0 2.456-2.012 4.464-4.47 4.464h-31.291a4.486 4.486 0 01-4.073-2.628 4.401 4.401 0 01-.397-1.836V60.55h40.231z" fill="#5D04D9"/><path fill-rule="evenodd" clip-rule="evenodd" d="M175.916 64.407h4.47a.484.484 0 000-.967h-4.47a.483.483 0 100 .967z" fill="#fff"/><path fill-rule="evenodd" clip-rule="evenodd" d="M197.977 12.386v50.395c0 2.296-1.881 4.173-4.18 4.173h-27.753a.29.29 0 000 .58h27.753c2.618 0 4.76-2.139 4.76-4.753V12.386a.29.29 0 00-.58 0zM158.325 62.78V13.389a.29.29 0 00-.581 0V62.78a.29.29 0 00.581 0z" fill="#4D4D4F"/><path fill-rule="evenodd" clip-rule="evenodd" d="M158.325 19.08V4.754c0-2.295 1.881-4.174 4.18-4.174h31.29c2.299 0 4.18 1.878 4.18 4.174v15.003a.29.29 0 00.581 0V4.753c0-2.614-2.143-4.753-4.761-4.753h-31.29c-2.618 0-4.761 2.139-4.761 4.753v14.328a.29.29 0 00.581 0z" fill="#4D4D4F"/><path d="M231.544 20.883v2.095H193.77v-2.096c0-2.305 1.889-4.19 4.197-4.19h29.379c2.309 0 4.198 1.886 4.198 4.19z" fill="#4D4D4F"/><path fill-rule="evenodd" clip-rule="evenodd" d="M207.204 20.538h5.031a.484.484 0 100-.966h-5.031a.483.483 0 100 .966zm8.514 0h1.354a.484.484 0 100-.966h-1.354a.484.484 0 100 .966z" fill="#fff"/><path d="M231.869 19.752v2.232h-40.231v-2.232c0-2.455 2.012-4.463 4.47-4.463h31.29c2.459 0 4.471 2.008 4.471 4.463z" fill="#5D04D9"/><path fill-rule="evenodd" clip-rule="evenodd" d="M206.462 19.212h5.326a.483.483 0 100-.967h-5.326a.484.484 0 000 .967zm9.037 0h.968a.483.483 0 100-.967h-.968a.483.483 0 100 .967z" fill="#fff"/><path d="M231.544 20.883V75.37c0 2.306-1.889 4.191-4.197 4.191h-29.38c-2.308 0-4.197-1.886-4.197-4.191V20.883c0-2.305 1.889-4.19 4.197-4.19h29.38c2.308 0 4.197 1.885 4.197 4.19z" fill="#fff"/><path d="M231.544 73.273v2.096c0 2.306-1.889 4.19-4.197 4.19h-29.38a4.21 4.21 0 01-3.824-2.467 4.122 4.122 0 01-.373-1.724v-2.095h37.774z" fill="#4D4D4F"/><path fill-rule="evenodd" clip-rule="evenodd" d="M210.56 76.923h4.196a.484.484 0 100-.966h-4.196a.484.484 0 100 .966z" fill="#fff"/><path d="M231.868 19.752v58.03c0 2.454-2.012 4.463-4.47 4.463h-31.291c-2.458 0-4.47-2.009-4.47-4.464V19.752c0-2.455 2.012-4.463 4.47-4.463h31.29c2.459 0 4.471 2.008 4.471 4.463z" fill="#fff"/><path d="M231.869 75.55v2.231c0 2.456-2.012 4.464-4.471 4.464h-31.29a4.485 4.485 0 01-4.073-2.628 4.386 4.386 0 01-.397-1.836V75.55h40.231z" fill="#5D04D9"/><path fill-rule="evenodd" clip-rule="evenodd" d="M209.518 79.407h4.47a.484.484 0 100-.967h-4.47a.484.484 0 000 .967z" fill="#fff"/><path fill-rule="evenodd" clip-rule="evenodd" d="M231.579 27.387V77.78c0 2.296-1.881 4.174-4.18 4.174h-27.752a.29.29 0 100 .58h27.752c2.618 0 4.761-2.14 4.761-4.754V27.386a.29.29 0 00-.581 0zm-39.652 50.394V28.388a.29.29 0 00-.58 0v49.393a.29.29 0 00.58 0z" fill="#4D4D4F"/><path fill-rule="evenodd" clip-rule="evenodd" d="M191.928 34.08V19.754c0-2.295 1.881-4.173 4.179-4.173h31.291c2.299 0 4.18 1.878 4.18 4.173v15.004a.29.29 0 00.58 0V19.753c0-2.614-2.142-4.753-4.76-4.753h-31.291c-2.617 0-4.76 2.14-4.76 4.754V34.08a.29.29 0 00.581 0zm7.048 22.026h5.375a.29.29 0 010 .58h-5.665a.29.29 0 01-.29-.29v-5.658a.29.29 0 01.58 0v5.368zm27.362 0v-5.368a.29.29 0 01.581 0v5.658c0 .16-.13.29-.291.29h-5.666a.29.29 0 010-.58h5.376z" fill="#4D4D4F"/><path fill-rule="evenodd" clip-rule="evenodd" d="M198.978 28.782v5.368a.29.29 0 01-.581 0v-5.658c0-.16.13-.29.291-.29h5.665a.29.29 0 010 .58h-5.375zm27.36 0h-5.376a.29.29 0 010-.58h5.666a.29.29 0 01.291.29v5.657a.29.29 0 01-.581 0v-5.367z" fill="#4D4D4F"/><path d="M224.828 30.291h-24.339v24.304h24.339V30.292z" fill="#fff"/><path d="M201.802 31.604v21.678h21.71V31.604h-21.71zm21.009 20.98h-20.308v-20.28h20.308v20.28zm-13.306-18.882h-5.602v5.594h5.602v-5.594zm-.7 4.895h-4.202V34.4h4.202v4.196zm-.7-.7h-2.802V35.1h2.802v2.798zm13.305-4.195h-5.602v5.594h5.602v-5.594zm-.7 4.895h-4.202V34.4h4.202v4.196zm-.7-.7h-2.801V35.1h2.801v2.798zm-10.505 7.693h-5.602v5.594h5.602V45.59zm-.7 4.895h-4.202v-4.196h4.202v4.196zm-.7-.7h-2.802V46.99h2.802v2.797zm2.801-13.985h-.701v-2.098h.701V35.8zm0 10.49v.699h1.4v.699h-1.4v.7h-.701v-2.099h.701zm-6.303-2.798h1.401v1.4h2.101v-1.4h2.1v1.4h1.401v-2.798h.7v4.195h.701v-.699h.7v2.797h-1.401v.7h1.401v.699h.7v.699h-1.401v.7h2.101v-2.798h.7v.7h.701v-.7h.7v1.398h.7v.7h-1.401v.699h2.101v-1.399h1.4v-2.098h-2.1v-.7h2.1v-.699h-2.1v-1.397h-2.101v-.7h.7v-1.398h1.401v-2.098h-1.401v1.399h-2.1v-1.399h2.101v-.7h-2.802v2.798h2.101v.7h-2.801v-2.099h-1.401v-2.098h-.7v1.399h-1.4v-.7h-2.101v.7h1.401v.699h-1.401v.7h1.401v.698h-1.401v1.4h-.7v-3.497h-2.101v-.7h-.7v4.197h.7v-.7zm10.505 2.098v.7h.7v-.7h1.401v2.098h-.7v-.7h-.701v.7h-1.401V45.59h.701zm-5.603-2.797v-1.399h1.401v1.399h-1.401zm-4.902-1.399h1.401v.7h-1.401v-.7zm14.006-.699h2.801v2.098h-.7v-1.399h-1.401v2.098h1.401v1.399h.7v2.098h-.7V45.59h-1.401v-1.399h-.7v-3.496zm-6.302-2.098h-2.101v-1.399h1.4v-3.496h2.801v.699h-2.1v4.196zm0 .7v-.7h.7V35.1h.7v.7h1.401v2.098h-1.401v.7h.7v.698h-2.1zm-.701 9.79h.7v1.398h-2.101v-.7h1.401v-.698zm9.104.699h.7v1.399h-2.101v-.7h1.401v-.7z" fill="#4D4D4F"/><path d="M226.247 36.96h-27.354v1.575h27.354V36.96zm-3.511 30.224a1.94 1.94 0 01-1.935 1.932h-16.374a1.94 1.94 0 01-1.935-1.932v-2.2a1.94 1.94 0 011.935-1.932h16.374a1.94 1.94 0 011.935 1.932v2.2z" fill="#5D04D9"/><path d="M208.028 67.157a.155.155 0 01-.068-.057.141.141 0 01-.028-.084c0-.04.013-.073.04-.102a.131.131 0 01.102-.043.16.16 0 01.065.014c.212.094.439.141.681.141.404 0 .605-.132.605-.397a.22.22 0 00-.078-.172.57.57 0 00-.191-.109 4.31 4.31 0 00-.325-.095 4.278 4.278 0 01-.453-.14.79.79 0 01-.297-.202.507.507 0 01-.125-.359c0-.13.035-.25.104-.357a.715.715 0 01.307-.255c.134-.064.296-.095.485-.095.254 0 .483.038.688.114a.135.135 0 01.097.138c0 .037-.013.07-.038.1a.124.124 0 01-.1.045.16.16 0 01-.055-.014 1.693 1.693 0 00-.557-.093.85.85 0 00-.444.103.323.323 0 00-.171.29c0 .083.027.15.081.202a.553.553 0 00.204.12c.082.03.193.06.334.092.182.044.329.088.441.131a.72.72 0 01.286.204c.08.092.119.216.119.373a.582.582 0 01-.11.346.73.73 0 01-.311.24 1.162 1.162 0 01-.463.087 2.07 2.07 0 01-.825-.165zm2.633.016a1.084 1.084 0 01-.431-.431 1.324 1.324 0 01-.158-.658c0-.25.053-.47.158-.657a1.09 1.09 0 01.431-.432c.183-.1.39-.15.621-.15.157 0 .296.018.42.055.123.037.246.09.368.158a.14.14 0 01.076.132.132.132 0 01-.138.131.134.134 0 01-.062-.014 1.239 1.239 0 00-.633-.162.987.987 0 00-.506.123.792.792 0 00-.315.334 1.07 1.07 0 00-.105.482c0 .179.035.34.105.48a.788.788 0 00.315.335.985.985 0 00.506.123 1.235 1.235 0 00.633-.162.142.142 0 01.062-.014c.042 0 .075.012.1.038a.125.125 0 01.038.093.14.14 0 01-.076.131 1.474 1.474 0 01-.788.214c-.231 0-.437-.049-.621-.15zm1.837.087a.156.156 0 01-.043-.11c0-.018.006-.04.017-.069l.882-2.077a.259.259 0 01.077-.102.193.193 0 01.123-.04h.034c.049 0 .09.013.124.04.033.027.059.06.077.102l.881 2.078a.156.156 0 01-.025.179.15.15 0 01-.113.045.156.156 0 01-.088-.026.16.16 0 01-.06-.071l-.224-.538h-1.176l-.224.538a.164.164 0 01-.149.097.153.153 0 01-.113-.045zm.607-.876h.933l-.467-1.121-.466 1.121zm2.136.876a.15.15 0 01-.046-.11v-2.06c0-.062.022-.116.066-.16a.215.215 0 01.159-.068h.045c.074 0 .137.034.19.104l1.331 1.918v-1.863a.16.16 0 01.044-.113.149.149 0 01.111-.046c.043 0 .081.015.112.046s.047.069.047.113v2.06a.213.213 0 01-.068.159.221.221 0 01-.16.065h-.042a.214.214 0 01-.103-.026.23.23 0 01-.08-.068l-1.337-1.929v1.868c0 .043-.016.08-.048.11a.154.154 0 01-.112.045.147.147 0 01-.109-.045z" fill="#fff"/><defs><clipPath id="clip0"><path fill="#fff" transform="translate(7)" d="M0 0h86.165v60.548H0z"/></clipPath><clipPath id="clip1"><path fill="#fff" transform="translate(37.53 25)" d="M0 0h26v8H0z"/></clipPath><clipPath id="clip2"><path fill="#fff" transform="translate(165.529 26.329)" d="M0 0h26v8H0z"/></clipPath></defs></svg>