<svg version="1.1" id="Layer_1" xmlns="http://www.w3.org/2000/svg" x="0" y="0" viewBox="0 0 768 500" xml:space="preserve"><style>.st0{fill:#55bc9f}.st2{fill:#4722e9}.st3{fill:#fff}.st4{fill:#b39ef5}.st6{fill:none;stroke:#fff;stroke-width:1.5;stroke-linecap:round;stroke-linejoin:round}</style><path class="st0" d="M198.5 141h370c4.1 0 7.5 3.3 7.5 7.5V227H191v-78.5c0-4.2 3.3-7.5 7.5-7.5z"/><path d="M198.5 144h370c4.1 0 7.5 3.3 7.5 7.5V230H191v-78.5c0-4.2 3.3-7.5 7.5-7.5z" fill="#eaeef1"/><path class="st2" d="M486 187.5v18c0 6.4-5.1 11.5-11.5 11.5h-182c-6.4 0-11.5-5.1-11.5-11.5v-18c0-6.4-5.1-11.5-11.5-11.5h-70.9c-4.2 0-7.6 3.4-7.6 7.6v253.7c0 4.2 3.4 7.6 7.6 7.6h369.7c4.2 0 7.6-3.4 7.6-7.6V183.6c0-4.2-3.4-7.6-7.6-7.6h-70.9c-6.3 0-11.4 5.1-11.4 11.5z"/><path class="st3" d="M362 200h44c3.3 0 6 2.7 6 6v37c0 3.3-2.7 6-6 6h-44c-3.3 0-6-2.7-6-6v-37c0-3.3 2.7-6 6-6z"/><path class="st2" d="M307.3 104h154.5c2.4 0 4.3 1.9 4.3 4.3v17.5c0 2.4-1.9 4.3-4.3 4.3H307.3c-2.4 0-4.3-1.9-4.3-4.3v-17.5c0-2.4 1.9-4.3 4.3-4.3z"/><path class="st4" d="M512.6 61.3l22.7 10.6c7.7 3.6 11 12.7 7.4 20.4l-50.3 107.5-50.4-23.6 50.3-107.5c3.5-7.7 12.6-11 20.3-7.4z"/><path transform="rotate(-64.932 458.943 205.901)" class="st4" d="M342.3 182.5h233.4v46.7H342.3z"/><path class="st4" d="M420.1 340.7l-39.5-18.5c-.8-.4-.9-1.6-.4-2.9l6.7-14.7 42.3 19.8-6.7 14.7c-.5 1.3-1.6 2-2.4 1.6z"/><path class="st2" d="M524.9 101.2c1.3.6 1.8 2.1 1.2 3.3L491 179.7c-.6 1.3-2.1 1.8-3.3 1.2-1.3-.6-1.8-2.1-1.2-3.3l35.1-75.2c.5-1.2 2-1.8 3.3-1.2z"/><path class="st2" d="M521.6 99.7l6.5 3c1 .5 1.5 1.7 1 2.7l-7.9 17c-.5 1-1.7 1.5-2.7 1l-6.5-3c-1-.5-1.5-1.7-1-2.7l7.9-17c.5-1 1.7-1.5 2.7-1z"/><path fill="none" stroke="#fff" stroke-width="3" stroke-linecap="round" stroke-linejoin="round" d="M450.9 174.1l37.8 17.7"/><path class="st6" d="M448.3 193.5l-46.9 100.6"/><path class="st4" d="M375.3 383.5l4.9-51.1 22.9-8.3 8.3 22.9z"/><circle class="st2" cx="392.5" cy="347.1" r="2.2"/><path fill="none" stroke="#4722e9" stroke-width="2" stroke-miterlimit="10" d="M388.9 355l-14.4 30.1"/><path class="st6" d="M466.9 153.6l-6.4 13.6"/><path class="st3" d="M435.3 380.4c-2.1-1-4.1-2.1-6-3.5 2.4-.7 4.8-1.5 6.9-2.4.3-.1.5-.2.8-.3V371c-.6.3-1.2.5-1.9.8-2.5 1-5.3 1.9-8.2 2.7-1.3-1.9-2.2-4.1-2.7-6.3-1.1-4.9 1.5-9.2 4-11.9 2.3-2.2 5-3.8 8-4.9l.9-.2V348c-.6.1-1.2.3-1.8.5-3.5 1.2-6.7 3.2-9.3 5.7-4.2 4.7-5.8 9.8-4.6 14.6.5 2.3 1.4 4.4 2.6 6.4-11.5 2.9-37.7 5.7-47.2 6.3-.8.1-1.5.8-1.4 1.6.1.8.8 1.5 1.6 1.4 10.4-.7 37.2-3.6 49-6.7 2.4 2.1 5.2 3.9 8.1 5.2 1 .5 2 .9 3 1.3v-3.2c-.6-.2-1.2-.5-1.8-.7z"/><path class="st0" d="M480.5 386c4.2-1.2 8.1-3.1 11.7-5.6 4.4 2.2 9.1 3.7 14 4.5 14.6 2.6 32.1.6 48.4-5.5 8 4.1 19 6.6 32.7 7.6.8.1 1.5-.6 1.6-1.4.1-.8-.6-1.5-1.4-1.6-12-.8-21.8-2.9-29.1-6.1 5.8-2.5 12.5-6.5 14-12.3 1-3.1.6-6.5-1-9.4-1.8-3.1-5-5.3-9.3-6.5-5.4-1.3-11.1-.3-15.7 2.6-3.4 2.3-5.3 6.2-5.2 10.3.2 5.3 3.8 10.7 9.6 14.6l.3.2c-15.2 5.2-31.1 6.8-44.5 4.5-4.1-.7-8.1-1.9-11.9-3.6 3.7-2.9 6.6-6.8 8.2-11.2 1.4-4.1.9-7.8-1.4-10.9-1.9-2.8-4.9-4.7-8.3-5.4-7.7-1.5-13.5 2.8-15.2 7.7-1.2 3.7-.8 7.7 1.3 11 2.4 3.8 5.7 6.9 9.6 9.1-3 1.9-6.2 3.3-9.6 4.4-13.4 4-30.5 3.2-42.5-1.9v3.2c14.2 5.2 29.4 5.7 43.7 1.7zm63.7-23.4c-.1-3.1 1.4-6 4-7.8 2.8-1.7 6-2.6 9.3-2.6 1.3 0 2.6.2 3.9.5 3.5.9 6.1 2.7 7.5 5 1.2 2.2 1.5 4.7.8 7.1-1.1 4-6 7.8-13.7 10.9l-1.1.4c-.8-.5-1.6-.9-2.3-1.4-5.1-3.2-8.2-7.8-8.4-12.1zm-62.1 5.6c-1.6-2.5-2-5.6-1.1-8.5 1.5-3.8 5.3-6.2 9.3-6 .8 0 1.7.1 2.5.2 2.6.5 4.9 2 6.4 4.2 1.6 2.4 2 5.4 1 8.1-1.3 3.8-4.3 7.5-8.4 10.6-4.3-2.4-7.8-5.4-9.7-8.6zm-41.2-17.5c1.8-.1 3.7.3 5.3 1.2 1 .5 1.7 1.4 2 2.5 1.6 6.8-2.4 12.7-11.2 16.7v3.2c11-4.5 16.1-12 14.1-20.6-.5-1.9-1.7-3.5-3.5-4.4-2.7-1.5-6.8-2-10.7-1.1v3.1c1.4-.4 2.7-.6 4-.6z"/></svg>