<svg version="1.1" id="Layer_1" xmlns="http://www.w3.org/2000/svg" x="0" y="0" viewBox="0 0 768 500" xml:space="preserve"><style>.st0{fill:#b39ef5}.st1{fill:#eaeef1}.st3{fill:none;stroke:#55bc9f;stroke-width:1.5;stroke-miterlimit:10}</style><path transform="rotate(-85.2 391.514 262.986)" class="st0" d="M213.5 97.5h356v331h-356z"/><path transform="rotate(-85.2 389.514 264.981)" class="st1" d="M211.5 99.5h356v331h-356z"/><path fill="#4722e9" d="M218 93h331v350H218z"/><circle class="st3" cx="273" cy="225" r="19"/><path class="st1" d="M315 218h118c3.3 0 6 2.7 6 6s-2.7 6-6 6H315c-3.3 0-6-2.7-6-6s2.7-6 6-6z"/><circle class="st3" cx="273" cy="165" r="19"/><path class="st1" d="M315 158h118c3.3 0 6 2.7 6 6s-2.7 6-6 6H315c-3.3 0-6-2.7-6-6s2.7-6 6-6z"/><path fill="none" stroke="#55bc9f" stroke-width="2" stroke-miterlimit="10" d="M563.3 377.9l-172-1"/><path fill="none" stroke="#fff" stroke-width="2" stroke-miterlimit="10" d="M436.5 377.1l-45.1-.2"/><path fill="none" stroke="#b39ef5" stroke-width="3" stroke-miterlimit="10" d="M415.7 323.6L521.5 96.3"/><path class="st0" d="M537.4 132.1L555 94.4l-15.9-33.5-36.7 8.9-43.8 93.6 6.8 9.6-4.8 10.5-6.8-9.7-22.1 47.2 16 33.5 36.7-8.9 48.1-103-13.1 1 5.1-10.4zM389.5 375.5l4.5-46.9 22.9-8.3 8.3 22.9-33.1 33.5c-.6.6-1.6.6-2.1 0-.4-.3-.5-.7-.5-1.2z"/><path fill="none" stroke="#fff" stroke-width="3" stroke-linecap="round" stroke-linejoin="round" d="M514.8 110.6l-66.4 142.3"/></svg>