<svg version="1.1" id="Layer_1" xmlns="http://www.w3.org/2000/svg" x="0" y="0" viewBox="0 0 768 500" xml:space="preserve"><style>.st0{fill:#b39ef5}.st2{fill:none;stroke:#55bc9f;stroke-width:1.5;stroke-miterlimit:10}.st3{fill:#fff}</style><path class="st0" d="M224 87h331v198H224z"/><path fill="#eaeef1" d="M218 93h331v198H218z"/><circle class="st2" cx="273" cy="198" r="19"/><path class="st3" d="M315 191h118c3.3 0 6 2.7 6 6s-2.7 6-6 6H315c-3.3 0-6-2.7-6-6s2.7-6 6-6z"/><path d="M486 187.5v18c0 6.4-5.1 11.5-11.5 11.5h-182c-6.4 0-11.5-5.1-11.5-11.5v-18c0-6.4-5.1-11.5-11.5-11.5h-70.9c-4.2 0-7.6 3.4-7.6 7.6v253.7c0 4.2 3.4 7.6 7.6 7.6h369.7c4.2 0 7.6-3.4 7.6-7.6V183.6c0-4.2-3.4-7.6-7.6-7.6h-70.9c-6.3 0-11.4 5.1-11.4 11.5z" fill="#4722e9"/><path class="st3" d="M413.3 385.9h-.2c-8.1 0-12.1-3.3-16.3-6.8-4.4-3.6-9-7.4-18.2-7.4-.8 0-1.5.7-1.5 1.5s.7 1.5 1.5 1.5c8.1 0 12.1 3.3 16.4 6.8 4.4 3.6 9 7.4 18.2 7.4h.2c3.6.1 7.2-.7 10.5-2.2v-3.4c-3.3 1.8-6.9 2.7-10.6 2.6z"/><path d="M447.6 375.1h.2c8.1 0 12.1 3.3 16.3 6.8 4.4 3.6 9 7.4 18.2 7.4h.2c9.1 0 13.7-3.7 18.1-7.2 4.2-3.4 8.2-6.6 16.2-6.6h.2c8.1 0 12.1 3.3 16.3 6.8 4.4 3.6 9 7.4 18.2 7.4.8 0 1.5-.7 1.5-1.5s-.7-1.5-1.5-1.5c-8.1 0-12.1-3.3-16.3-6.8-4.5-3.6-9-7.4-18.2-7.4-9.1 0-13.7 3.7-18.1 7.2-4.2 3.4-8.2 6.6-16.2 6.6h-.2c-8.1 0-12.1-3.3-16.4-6.8-4.4-3.6-9-7.4-18.2-7.4h-.2c-9.1 0-13.7 3.7-18.1 7.2-1.8 1.5-3.7 2.8-5.7 4v3.4c2.7-1.4 5.3-3.1 7.6-5.1 4.1-3.3 8.1-6.5 16.1-6.5z" fill="#55bc9f"/><path class="st0" d="M498.9 61.3l39.9 18.6c3 1.4 4.3 5 2.9 8.1L431.3 324.2l-50.9-23.8L490.8 64.2c1.5-3 5.1-4.3 8.1-2.9zm-69 265.9l-50.7-23.7-1.7 45.2 18.9 8.8z"/><path class="st0" d="M396.4 357.5l-18.9-8.8-.9 23.5c-.1.8.4 1.4 1.2 1.5.4.1.9-.1 1.2-.4l17.4-15.8z"/><path fill="none" stroke="#fff" stroke-width="3" stroke-linecap="round" stroke-linejoin="round" d="M482.1 99.4l38.1 17.8"/><path d="M480.5 114.2l-83 178m97.9-171.1l-83 178m97.8-171l-83 178" fill="none" stroke="#fff" stroke-width="1.5" stroke-linecap="round" stroke-linejoin="round"/><path fill="none" stroke="#4722e9" stroke-width="2" stroke-miterlimit="10" d="M373.8 346.5l23 11"/><circle class="st2" cx="273" cy="145" r="19"/><path class="st3" d="M315 138h118c3.3 0 6 2.7 6 6s-2.7 6-6 6H315c-3.3 0-6-2.7-6-6s2.7-6 6-6z"/></svg>