<svg version="1.1" id="Layer_1" xmlns="http://www.w3.org/2000/svg" xmlns:xlink="http://www.w3.org/1999/xlink" x="0" y="0" viewBox="0 0 1400 768" xml:space="preserve"><style>.st2{fill:#df5751}.st3{fill:#fff}.st4{fill:none;stroke:#4722e9;stroke-width:1.5;stroke-linecap:round;stroke-linejoin:round}.st5{fill:#55bc9f}.st6{fill:#b39ef5}</style><defs><path id="SVGID_1_" d="M0 0h1400v768H0z"/></defs><clipPath id="SVGID_2_"><use xlink:href="#SVGID_1_" overflow="visible"/></clipPath><g clip-path="url(#SVGID_2_)"><path d="M249.9 449c13.2-.2 26.1 3.7 37 11 2 1.6 4.3 2.7 6.8 3.4 2.5.6 5 .8 7.6.4 5.1-.5 9.7-3 13-6.9 1.6-1.8 2.8-4 3.5-6.3.7-2.3.8-4.8.4-7.2-.3-2.4-1.1-4.8-2.4-6.9-1.3-2.1-3-3.9-5-5.3-17.3-12.4-38-19-59.2-18.9-25.8.2-48 8.7-66.7 25.4-18.6 16.7-27.9 36.8-27.8 60.3 0 23.5 9.3 43.7 27.9 60.5 18.6 16.8 40.8 25.2 66.7 25.2 21.1 0 40.8-6.1 59.2-18.2 4-3.1 6.7-7.6 7.4-12.5.4-2.4.2-4.8-.4-7-.7-2.3-1.9-4.4-3.5-6.2-3.4-3.9-8.1-6.3-13.2-6.8-2.5-.4-5-.3-7.4.3-2.4.6-4.7 1.6-6.7 3.1-11 7.4-24 11.2-37.2 11-13.9 0-26.3-4.9-37-14.6s-16.2-21.2-16.2-34.5 5.5-24.8 16.4-34.6c10.7-9.8 23.1-14.7 36.8-14.7zM465 421.3c-24.6 0-45.6 8.5-63.1 25.5s-26.2 37.3-26.2 60.9c0 23.5 8.7 43.8 26.1 60.7 17.4 16.9 38.6 25.4 63.7 25.4 24.6 0 45-8.3 61.2-25 .6-.7 1.3-1.3 2-2 16.7-15.4 25-34.7 25-58 0-23.8-8.6-44.3-25.9-61.5-17.4-17.4-38.3-26-62.8-26zm48.8 92.4c-1.3 10.9-6.2 21-14 28.7-7.8 7.7-18 12.5-28.9 13.6-2.1.2-4.2.3-6.3.3h-.4c-12.4-.1-24.3-5-33.2-13.6-8.9-8.6-14.2-20.3-14.7-32.7 0-.9-.1-1.8-.1-2.6v-2.3c.5-12.1 5.5-23.6 14-32.2 8.6-8.6 20-13.6 32.1-14.2h2.2c2.8 0 5.7.2 8.5.7 22.9 3.7 40.3 22.9 41 46v2c.1 2.1 0 4.2-.2 6.3zm178-95.4c-24.6 0-45.6 8.5-63.1 25.5s-26.2 37.3-26.2 60.9c0 23.5 8.7 43.8 26.1 60.7 17.4 16.9 38.6 25.4 63.7 25.4s45.8-8.7 62.2-26.1c17.4-15.5 26.1-35.2 26.1-59s-8.6-44.3-25.9-61.6c-17.4-17.2-38.3-25.8-62.9-25.8zm34.7 122.4c-9.7 8.5-21.3 12.7-35 12.7s-25.3-4.2-35-12.7c-9-10.1-13.5-22.2-13.5-36.3 0-14.2 4.5-26.1 13.4-35.7 10.7-8.7 22.3-13 35-13s24.3 4.3 35 13c9.7 9.6 14.6 21.5 14.6 35.7.1 6.7-1.1 13.4-3.6 19.6-2.5 6.2-6.2 11.9-10.9 16.7zm192.2-119.4c-17.3-.4-34.3 4.5-48.8 14v-56.4c0-10.3-9.1-18.7-20.3-18.7-11.2 0-20.3 8.4-20.3 18.7v133c0 1.1.1 2.1.3 3.1 1.6 20.4 10.2 38.2 25.8 53.4 17.4 16.9 38.6 25.4 63.7 25.4s45.8-8.7 62.2-26.1c17.4-15.5 26.1-35.2 26.1-59s-8.6-44.3-25.9-61.6c-17.3-17.2-38.3-25.6-62.8-25.8zm34.6 122.4c-9.7 8.5-21.3 12.7-35 12.7s-25.3-4.2-35-12.7c-8.9-10.1-13.4-22.2-13.4-36.3 0-14.2 4.5-26.1 13.4-35.7 10.7-8.7 22.3-13 35-13s24.3 4.3 35 13c9.7 9.6 14.5 21.5 14.5 35.7.1 6.7-1.1 13.4-3.6 19.6-2.5 6.2-6.2 11.9-10.9 16.7zM1217 417.6c-3.9-3.5-8.9-5.4-14.2-5.3-5.1-.1-10 1.7-13.8 5.1-1.8 1.6-3.2 3.6-4.2 5.9-1 2.2-1.4 4.7-1.4 7.1v80.9c.1 4.7-.9 9.4-2.8 13.7-1.9 4.3-4.8 8.1-8.3 11.2-7.4 6.8-16.5 10.1-27.2 10.1s-19.8-3.4-27.4-10.1c-7.6-6.7-11.4-15-11.4-24.9v-80.9c.1-2.4-.4-4.9-1.4-7.1-1-2.2-2.4-4.3-4.2-5.9-3.8-3.4-8.7-5.3-13.8-5.1-5.2-.1-10.2 1.8-14 5.3-1.8 1.6-3.3 3.6-4.3 5.8-1 2.2-1.5 4.6-1.5 7.1v80.9c0 19.7 7.6 36.6 22.9 50.8 15.3 14.2 33.6 21.3 54.9 21.3 13.2 0 25-2.7 35.4-8.2-3 8.9-8.8 16.3-17.3 22.1-8.6 5.8-17.3 8.8-26.2 8.9-8.9.1-16.4-1.2-22.3-4-6-2.7-11.6-3.3-16.9-1.7-5.3 1.6-9.2 4.5-11.7 8.6-1.1 2.2-1.7 4.6-1.9 7-.1 2.4.2 4.9 1.1 7.2 1.7 4.7 5.2 8 10.4 10.1 12 5.6 25.1 8.5 38.3 8.6 24.8 0 45.9-7.9 63.1-23.8 17.3-15.9 25.9-35.3 25.9-58.1V430.4c0-2.5-.5-4.9-1.6-7.1-.8-2.2-2.3-4.2-4.2-5.7z" opacity=".6" fill="none" stroke="#b39ef5" stroke-width="1.5" stroke-miterlimit="10"/><path class="st2" d="M431.3 692.3c33.8-3.8 60.6-12.1 59.9-18.6-.7-6.5-28.7-8.7-62.5-5-33.8 3.8-60.6 12.1-59.9 18.6.7 6.6 28.7 8.8 62.5 5z"/><path class="st3" d="M527.8 962l-54.2-319.8c-4.4 4.1-18 14.3-45.1 14.5 0 0-25.9 1-45.3-10.2L376.6 962h151.2z"/><path class="st3" d="M486.6 528.2c-.3-.2-.6-.4-.8-.6-.2-.3-.4-.6-.5-.9-5.4-18.6-20.4-10.1-20.4-10.1-3.4 2.9-7.1.4-7.1.4-5.9-5.4-18.5-4.9-18.5-4.9-7.6.1-13 7.6-13 7.6-4.3 7.6-15.3.3-15.3.3-5.5-5-13-2.4-13-2.4-8.1 2.7-13.8 10.1-13.8 10.1-4.6 5.2-12.5 1.3-12.5 1.3-7-2.2-12.6 3.6-12.6 3.6-3.3 2.6-6.5 12.9-7.3 15.7-.1.5-.2 1-.3 1.4-5.7 42.3 13.5 68.9 13.5 68.9 13.1 20.1 18 22.7 18 22.7 19.5 11.2 45.3 10.2 45.3 10.2 27-.2 40.7-10.4 45.1-14.5.6-.5 1.1-1.1 1.7-1.7 19.6-17.8 24.6-71 24.6-71 3.8-29.6-13.1-36.1-13.1-36.1z"/><path class="st4" d="M486 525s0 16-6 29"/><path class="st5" d="M370.5 688.7s67.3 16.3 123.2-12.4L536 947.1l-188.5 20.5 23-278.9z"/><path class="st2" d="M718.1 625.5c30.2-8.3 53.3-20.1 51.6-26.4-1.7-6.3-27.6-4.8-57.8 3.5-30.2 8.3-53.3 20.1-51.6 26.4 1.7 6.3 27.6 4.7 57.8-3.5z"/><path class="st6" d="M672.4 465s-1-25.1 4.7-29c0 0 3.9-5 12.7 2.1 0 0 8.1 7.9 10.4 10.5l5.2 12.8-5.3 6.7-14.7 3.7-11.3-1.2-1.7-5.6z"/><path class="st3" d="M825.6 850.8l-85.8-283.7h-.1c-8.7 5.7-18.7 9.1-29 10.2 0 0-23.7 3.1-37.4-1.6l18.5 292.9 133.8-17.8z"/><path class="st3" d="M739.5 470.1c-1.5-1-6.8-8.6-6.8-8.6-1.1-2.7-8.2-18.9-8.2-18.9-2.4-6.4-7.6-6-7.6-6-4.1-.1-8.1.6-11.8 2.2-7.6 2.4-4.8 18.5-4.8 18.5.1.9-.6.4-.6.4l-2.1-2.2c-4.5-4.3-11.3-2.5-11.3-2.5-7.6 2.1-10.5 12.3-10.5 12.3-.4 1.2-.9.6-.9.6l-4.1-1.6c-5.2-2.4-11.6.9-11.6.9-4.4 2-7.7 6.9-7.7 6.9-.3 1.3-2.1 1-2.1 1-5.2-2.5-12.7-1.1-12.7-1.1-14.4 3.9-11.3 20.3-11.3 20.3 5.8 36.2 16.6 55.2 16.6 55.2 5.9 11.3 27.6 22.6 27.6 22.6.6.2 1.2.5 1.8.7 13.7 4.8 37.4 1.9 37.4 1.9 10.3-1 20.3-4.4 29-10 1.5-1 2.3-1.7 2.3-1.7l9.2-21.1c17.7-41.1-9.8-69.8-9.8-69.8z"/><path d="M649 471s4 5 4 11m22-17l4 16m20.5-25.5l6 22" fill="none" stroke="#4722e9" stroke-width="1.5" stroke-miterlimit="10"/><path class="st6" d="M659.8 628s63.4 7.2 110-28.5l77.5 262.3-168 45.2-19.5-279z"/><path class="st2" d="M1261.8 694.2c30.7-6.2 54.5-16.4 53.2-22.9-1.3-6.4-27.2-6.6-58-.4-30.7 6.2-54.5 16.4-53.2 22.9 1.4 6.4 27.3 6.6 58 .4z"/><path class="st3" d="M1355.4 899.8l-62.3-258.1c-3.5 4.4-15 16.3-36.6 16.1 0 0-22.5.2-37.2-8.9l-7.9 259.9 144-9z"/><path class="st3" d="M1307.8 557.3c-7.3-16.2-12.5-13.9-12.5-13.9-5.7 0-8.2 5.6-8.2 5.6-.7 1.1-1.2.2-1.2.2-.4-6.8-20.8-64.5-20.8-64.5-.2-.9-.8-1.8-1.7-2.3s-1.8-.7-2.8-.5c-3.8 1.2-5.6 6-5.6 6-2.3 4.3-12.5 55-12.5 55-.8 4.3-4 4.3-4 4.3-2.1-.3-4.3-4.2-4.3-4.2l-27.2-46.2c-5.6-8.9-9.9-5.7-9.9-5.7-3.7 1.8-2.9 6-2.9 6l4.7 31.8c1.5 6.7-.5 6-.5 6-6.4-.5-9 1.7-9 1.7-5.4 3-4.1 12.1-4.1 12.1.1.7.1 1.3 0 2l-.4.2c-14 1.5-10.2 20.6-10.2 20.6 5.4 40.2 43.7 72.5 43.7 72.5 14.7 9.1 37.2 8.9 37.2 8.9 21.7.2 33.2-11.7 36.6-16.1l1.2-1.5 9.2-18.2c15.5-34.9 5.2-59.8 5.2-59.8z"/><path class="st4" d="M1184 548l5 19m9-35l7 26m79-27l4.5 36.5"/><path class="st5" d="M1203.5 692.7s62.7 11.5 111.6-21.1l59.7 266.9-170.7 33.8-.6-279.6zm-996.4-47.2c1-6.5-23.3-15.6-54.2-20.4S96 621.7 95 628.2s23.3 15.6 54.2 20.4c31 4.8 56.9 3.4 57.9-3.1z"/><path class="st3" d="M138.9 617.2S123 610 115 599l-2.1 6.8-88.8 285 139.5 26.4L198 618.6s-35 10.4-59.1-1.4z"/><path class="st2" d="M95 627.2s54.9 32.4 112 18.8l-36.1 271L-1 889.8l96-262.6z"/><path class="st3" d="M138.1 486.4s12.5-7.2 21.6-3.8c0 0 27.3-12 49.4 2.9 0 0 7.7 5.3 1.4 9.1 0 0-2.4 1.4-7.7.5 0 0-4.3-1-11.5 1 0 0-10.1 1.9-16.3 9.6 0 0-7.7 9.1-7.2 19.7 0 0 .5 15.3 12.5 20.6 0 0 9.1 4.3 17.8 3.8 0 0 14.4-1.4 19.7-12 .3-.9.9-1.6 1.7-2.1.8-.5 1.7-.8 2.6-.8 0 0 5.3 0 6.2 8.2 0 0 4.3 16.3-2.4 38.4 0 0-5.3 15.8-17.7 24.5 0 0-11.5 8.6-21.1 11 0 0-14.9 5.8-38.8-1.4-8.6-2.6-16.5-6.8-23.5-12.5 0 0-18.2-13.9-27.3-41.2 0 0-5.8-13.9 2.4-37.9 0 0 6.7-23 27.3-35-.1-.2 6.1-3.1 10.9-2.6z"/><path class="st4" d="M161.5 481.5s-20.7 3.7-33.7 33.4m10.7-29.4s-18.1 13.4-23.4 27.7"/><path class="st5" d="M1015.5 674.3c32-4.9 57.1-14.1 56.1-20.6-1-6.5-27.7-7.8-59.7-2.9s-57.1 14.1-56.1 20.6c1 6.6 27.7 7.8 59.7 2.9z"/><path class="st3" d="M962 911.8l144-9-54.4-280.8-1.4 2c-1.2 1.5-2.5 2.9-4 4.3l-4.1 4.9s-16.6 21-64.1 7.2c-2.5-.9-4.9-2.3-7-3.9v5.3l-9 270z"/><path class="st2" d="M955.4 670.5s64.3 14.1 116.2-16.4l50.1 269.2L944 949.9l11.4-279.4z"/><path class="st3" d="M936.1 525.4l-1.7-40.8s-1.3-10.6 4-10.6c0 0 0-6.6 2-9.3 0 0 1.3-2.7 4-2.7 0 0-.7-7.3 2.7-8.6 0 0 5.3-2.6 9.3 4.6 0 0 15.9 33.8 20.6 52.4 0 0 1.3 4 3.3 4 0 0 3.3.7 6-4.6 0 0 6.6-17.9 33.8-15.2 5.8 1 11.4 3.4 16.1 7 4.7 3.6 8.5 8.2 11.1 13.6 0 0 4.7 11.3-.7 13.9 0 0-1.3.7-4-1.3s-4.6-6-11.9-8.6c0 0-9.3-4.6-21.2 2.7 0 0-14.6 7.3-13.9 20.6 0 0 0 19.2 21.9 19.9 0 0 17.2 2.7 22.6-21.2 0 0 .7-11.3 5.3-11.3 0 0 10-1.3 11.9 17.9 0 0 7.3 39.1-6 65.7 0 0-10 23.2-37.1 26.5 0 0-36.5 7.3-62.3-26.5 0 0-17.9-19.2-15.9-61-.2-.2 1.1-15.5.1-27.1z"/><path class="st4" d="M944.4 461.1l4.7 54.7m-10.7-42.6l2.7 43.2"/></g></svg>