<svg version="1.1" id="Layer_1" xmlns="http://www.w3.org/2000/svg" x="0" y="0" viewBox="0 0 1400 768" xml:space="preserve"><style>.st1{fill:#df5751}.st2{fill:#fff}.st5{fill:#5005f2}.st6{fill:none;stroke:#333132;stroke-linecap:round;stroke-linejoin:round}.st7{fill:#333132}.st10{fill:#4722e9}.st11{fill:#b39ef5}</style><path d="M1401.6 724.4v-19h-33.3v19h-4.8v33.3h-16.7v-23.8h-16.7v2.4h-7.1v-35.7h-7.1l-2.8-11.9h-3.1v-11.9h-2.8v11.9h-2.8l-3 11.9h-7.1v35.7h-16.7v-9.5h-21.4v-11.9h-16.7v11.4l-9.5 8v-11.6h-33v10.4h-28.6v-10.4h-19v18.2h-13.7v-49.3H1125v-5.2h-23.8v5.2h-10.7V734h-8.4l-1.7-38.1h2.3V684h-2.4l2.4-28.5h-2.4l2.4-28.5h-2.4l2.4-28.6h-2.4l2.4-28.5h-2.4l2.4-28.5h-2.4l2.4-28.6h-2.4l2.4-28.5h-9.5v-9.5h-4.8v-16.7h4.8V446h-7.1v-9.5h2.4v-4.8h-4.8v-33.3h-4.7v33.3h-4.8v4.8h2.4v9.5h-7.1v11.9h4.8v16.6h-4.8v9.5h-9.5l2.4 28.6h-2.4l2.4 28.6h-2.4l2.4 28.5h-2.4l2.4 28.5h-2.4l2.4 28.6h-2.4l2.4 28.5h-2.4l2.4 28.5h-4.8v11.9h4.7l-1.7 38.1h-24.4V729h4.8v-4.8h-31v4.8h4.8v4.8h-7.2V722H971v-30.9h-21.5v-14.3h-2.4v14.3h-14.3V684h-16.7v-7.1h-2.4v7.1h-7.1v-7.1h-2.4v7.1h-9.5v40.5h-7.1v-26.2h-4.8v-7.1H859v-4.8h-21.4v4.8h-4.8v7.1h-7.1v45.4H802v-4.8h-11.2v-88.3h-8v-3.2h-8v3.2h-14.5v-20.9h-1.6v20.9h-6.4v-4.8h-16.1v4.8h-6.4v88.3H725v-16.1h-16.9v-45h-24.9v-191H676v-14.4h-77.1v14.5h-7.2V678h-24.9v3.2h-16.9v4.8h-4.8v3.2h-6.4v8h3.2v46.6h-17.3v-97.9H519v-4.8h-41.7v4.8h-5.6v97.9h-22.9l-9.6-1.6-6.4-48.2V575l-12.8-9.6-6.4-89.9H412l-6.4 89.9-11.2 11.2v114l-4.6 53h-.2V631.2h-22.5v-5.6H354V608h-3.2v-22.5h-3.2v45.8h-6.4v-45.8H338V608h-3.2v17.7h-12.9v5.6h-25.7V734h-14.5v9.6h-10.6v-96.3h-1.6v-23.1c0-.5-.4-.9-.9-1h-15.8c-.5 0-1 .4-1 1v23.1h-1.6v96.3h-8.6v-22.5h-8v-97.9h-86.7v-8h-3.2v-1.6h-22.5v-6.4h-1.6v6.4h-11.2v1.6h-8v122H94v-53H63.4v46.6h-16v-48.2H7.2v61H-4V772h1408v-47.6h-2.4z" opacity=".71" fill="none" stroke="#b39ef5" stroke-width="1.5" stroke-miterlimit="10"/><path class="st1" d="M1005 622.3V656c0 .7.6 1.3 1.3 1.3h41.3c.4 0 .8.2 1.1.6l6.3 9.5c.4.6 1.2.8 1.8.4.4-.2.6-.7.6-1.1v-44.4c0-.7-.6-1.3-1.3-1.3h-49.7c-.8 0-1.4.6-1.4 1.3z"/><path class="st2" d="M524.8 549.2v57.4c0 1.2 1 2.2 2.2 2.2h70.2c.7 0 1.4.4 1.8 1l10.8 16.2c.7 1 2.1 1.2 3.1.5.6-.4.9-1.1.9-1.8v-75.6c0-1.2-1-2.2-2.2-2.2H527c-1.2.1-2.2 1.1-2.2 2.3z"/><path d="M570.5 590.1c-.6.6-1.6.6-2.2 0l-10-10c-7.4-7.4 2.5-17.9 10.1-12 .6.5 1.4.5 2 0 7.4-5.6 17.2 4.8 10.1 12l-10 10z" fill="#55bc9f"/><path class="st1" d="M49.8 553.4V591c0 .8.6 1.4 1.4 1.4h45.9c.5 0 .9.2 1.2.6l7 10.6c.4.7 1.3.8 2 .4.4-.3.6-.7.6-1.2v-49.4c0-.8-.6-1.4-1.4-1.4H51.2c-.8 0-1.4.6-1.4 1.4z"/><path class="st1" d="M79.7 580.2c-.4.4-1 .4-1.4 0l-6.5-6.5c-4.8-4.8 1.7-11.7 6.6-7.8.4.3.9.3 1.3 0 4.8-3.7 11.3 3.2 6.6 7.8l-6.6 6.5z"/><path class="st2" d="M197 439.2v84.7c0 1.8 1.5 3.3 3.2 3.3h103.6c1.1 0 2.1.5 2.7 1.5l15.9 23.9c1 1.5 3 2 4.5 1 1-.6 1.5-1.7 1.5-2.8V439.2c0-1.8-1.5-3.2-3.3-3.2H200.2c-1.7 0-3.2 1.5-3.2 3.2z"/><path d="M265.7 458.7c-1.5 5.8 2.1 11.5 5.9 14.4 1.5 1.1 3.1 2 4.7 3 3.6 2.5 6.2 6 7.6 10.1 1.5 4.6.4 8.7 1 13.5.3 2.1 1.6 5.1 2.2 7.1.8 2.8 2.5 5.3 3.1 8.2 1.9 9.4-3.3 20.2-10.4 26.3-8.7 7.2-20.6 9.3-31.2 5.5-9.8-3.7-16.2-14.3-16.5-24.5-.1-4.1.8-8.1 2.5-11.8 1.8-3.6 3.3-7.4 4.5-11.3 2-6.1 5.3-8 9.2-13.2l17.4-27.3z" fill="#fff" stroke="#333132" stroke-linecap="round" stroke-linejoin="round"/><path class="st5" d="M238.4 532.3c-2.3-.3-4.6-1-6.6-2.2-2.8-1.6-5-4-6.4-6.9-1.3-2.5-1.5-5.3-3-7.7-2.5-3.9-7.5-3.3-9 1.1-2.1 6 2 10.1 6.4 13.3 5.4 4.1 12 6.1 18.7 5.7l-.1-3.3zm32.5-59.6c-2.2-3.1-3.6-6.7-4.2-10.4-.4-3.5-.3-7.1.2-10.6.2-1.6.4-3.1.6-4.7-7.2-.4-13.7 3.8-18.1 8.4-6.3 6.6-9.9 12.7-10.8 21-.4 3.3.1 5 1.4 8.1 1 2.6 1.3 5.3 2.2 8 .1.1.1.3.2.3.2 0 .3 0 .4-.1 2.1-1.5 4.1-3.1 5.9-4.9 1.9-1.9 3.1-4.1 4.8-6.2 1.1-1.4 2.4-2.7 3.8-3.9 1.8-1.5 3.9-2.7 6.1-3.6 2.1-.9 4.8-1.8 7.1-1.5.1.1.3.1.4.1z"/><path class="st6" d="M262.9 452.2c-2.7 6.4-2 12.4 1.3 19.6m-5.9-27.8c-4 11.6-2.9 18.5.8 28.1m-9.1-22.3c-.9 8.1 2.1 18.6 4.8 24.8m-3.4 2.3c-2.7-4-7.5-12.9-8-18.7m-3.4 8.3c.9 4.5 3.3 8.8 9.1 12.9m-10.7-2.2c2.3 3.2 4.9 4.6 8.9 5.6m-7.3 2.5c1.9 1.6 3.8 1.6 6.1 1"/><path class="st7" d="M287.6 492.9c.9.3 1.7.6 2.6.9.7.3 1.4.6 2 1.1.6.5 1 1.2 1.1 2-2.9-.3-5.8-.4-8.7-.2v-4.5c.8-.6 2.4.4 3 .7z"/><path class="st6" d="M253.6 548.2c.7 6.2.5 12.8-3.1 17.9-.8-3.5.5-7.2 3.2-9.6 1.1 3.4 2.4 7 1.3 10.5-1.4-3.4-1.7-7-1-10.6 1.3.1 2.4 1.6 3.2 2.5 1.1 1.5 1.8 3.2 2.3 5 .1.4-.4.2-.6 0-1.5-.9-2.9-2.2-3.8-3.8-.5-1.2-.9-2.5-1-3.8m11.6-8.1c0 .7 0 4 .5 4.5.4.4.8.6 1.3.8 3 1.3 1.4.5 3.9 2.7l2.8 2.6c1.6 1.4 3 3.1 3.9 5 .2.4.3.8.2 1.2v.3c0 .1 0 .1-.1.1-.2-.1-.4-.1-.5-.2-1.7-.9-2.6-2.7-3.5-4.2-.7-1.1-1.2-2.4-1.5-3.7 1.2-.2 2.4-.1 3.6.4 2 .9 3.5 2.7 4.2 4.8-2.9-.5-4.1-4.2-6.9-5.1-.7-.2-.9-.1-.9-.1-.6 1.2-1 2.5-.9 3.9 0 1.8.4 4 1.1 4.7.5-.3.6-2.9.6-4.1 0-2.6-.4-2.6-.7-4.4"/><circle class="st5" cx="273" cy="487.5" r="3.3"/><circle cx="273.8" cy="486.7" r=".8" fill="#f9f9f9"/><path class="st7" d="M242.4 493.2c-1.5 1.8-2.6 3.9-3.3 6.2-1.2 3.9-2.7 7.6-4.5 11.3-1.8 3.7-2.7 7.7-2.6 11.7.3 8 3.9 15.5 10 20.7 9.3-15.4 9.4-34.5.4-49.9z"/><path d="M279.8 541.3c7.1-6 12.3-16.9 10.4-26.3-.6-2.9-2.3-5.4-3.1-8.2-.5-1.9-1.8-4.7-2.1-6.8-18.8 4.4-32.7 19.7-32.7 37.8 0 3.5.5 7 1.6 10.4 9.2 1.7 18.6-.9 25.9-6.9z" fill="#d1d3d4"/><path class="st10" d="M208 527h96v53h-96z"/><path class="st2" d="M808 487.2v84.7c0 1.8 1.5 3.3 3.2 3.3h103.6c1.1 0 2.1.5 2.7 1.5l15.9 23.9c1 1.5 3 2 4.5 1 1-.6 1.5-1.7 1.5-2.8V487.2c0-1.8-1.5-3.2-3.3-3.2H811.2c-1.7 0-3.2 1.5-3.2 3.2z"/><path class="st11" d="M827 504h93v55h-93z"/><path class="st10" d="M827 504h93v8h-93z"/><circle class="st2" cx="831.5" cy="508.5" r="1.5"/><circle class="st2" cx="837.5" cy="508.5" r="1.5"/><circle class="st2" cx="843.5" cy="508.5" r="1.5"/><path class="st2" d="M1202 525.8v71.8c0 1.5 1.2 2.8 2.8 2.8h87.8c.9 0 1.8.5 2.3 1.2l13.5 20.2c.8 1.3 2.6 1.6 3.8.8.8-.5 1.2-1.4 1.2-2.3v-94.5c0-1.5-1.2-2.8-2.8-2.8h-105.8c-1.6 0-2.8 1.2-2.8 2.8 0-.1 0 0 0 0z"/><path class="st11" d="M1244 534h28v55h-28z"/><path class="st10" d="M1244 534h28v6h-28z"/><path d="M1266.5 536h3.5m-3.5 1h3.5m-3.5 1h3.5" fill="none" stroke="#fff" stroke-width=".25" stroke-linecap="round" stroke-linejoin="round"/></svg>