<svg width="262" height="162" viewBox="0 0 262 162" fill="none" xmlns="http://www.w3.org/2000/svg">
<rect x="1" y="1" width="260" height="159.73" rx="8.64863" stroke="#B39EF5" stroke-width="1.0155" stroke-miterlimit="10" stroke-linecap="round"/>
<path d="M197.756 155.773H133.973V160.08H197.756V155.773Z" fill="#4722E9"/>
<path fill-rule="evenodd" clip-rule="evenodd" d="M224.753 107.594C225.797 108.171 226.173 109.482 225.593 110.522L198.566 158.973C197.986 160.013 196.67 160.387 195.626 159.81C194.582 159.232 194.206 157.921 194.786 156.881L221.813 108.43C222.393 107.391 223.709 107.016 224.753 107.594Z" fill="#4722E9"/>
<path d="M204.492 81.8443L193.498 77.9561L182.609 81.7909C181.22 82.4373 180 82.8244 180 84.1002V90.4483C180 94.8571 181.174 99.2259 183.587 103.084C185.618 106.329 188.763 109.672 193.605 111.796C198.055 110.372 201.378 106.577 203.408 103.332C205.821 99.4738 206.994 95.105 206.994 90.6962V84.9869C206.994 83.1696 206.016 82.281 204.492 81.8443Z" fill="#06BF9D"/>
<path d="M197.122 90.3453L197.137 89.1957C197.137 87.1142 195.485 85.4219 193.453 85.4219C191.422 85.4219 189.77 87.1142 189.77 89.1906L189.755 90.3632C188.76 90.5142 187.998 91.3898 187.998 92.4498V99.2345C187.998 100.402 188.92 101.347 190.06 101.347H196.934C198.074 101.347 198.996 100.402 198.996 99.2345V92.4498C198.993 91.3438 198.171 90.4425 197.122 90.3453ZM194.435 97.5422H192.636L192.916 96.2108C192.604 96.0137 192.396 95.6604 192.396 95.2558C192.396 94.6363 192.886 94.1319 193.493 94.1319C194.098 94.1319 194.59 94.6337 194.59 95.2558C194.59 95.645 194.398 95.9881 194.105 96.1878C194.233 96.7075 194.435 97.5422 194.435 97.5422ZM196.327 90.335H190.547L190.562 89.1931C190.562 87.5597 191.859 86.2335 193.451 86.2335C195.045 86.2335 196.339 87.5623 196.339 89.188L196.327 90.335Z" fill="white"/>
<path d="M1 9.37813C1 4.60162 4.87212 0.729492 9.64863 0.729492H31.2702V22.2282C31.2702 27.0047 27.3981 30.8769 22.6216 30.8769H1V9.37813Z" fill="#B39EF5"/>
<path d="M20.2621 22.7295H10.9215V21.1338L14.5021 17.4949C15.2026 16.7814 15.7864 16.1652 16.2534 15.6463C16.7204 15.1144 17.0707 14.6084 17.3042 14.1284C17.5377 13.6355 17.6545 13.1036 17.6545 12.5328C17.6545 11.8322 17.4469 11.3003 17.0318 10.9371C16.6167 10.5738 16.0783 10.3922 15.4167 10.3922C14.781 10.3922 14.2102 10.509 13.7042 10.7425C13.1983 10.976 12.6729 11.3133 12.128 11.7544L11.0188 10.3728C11.5767 9.90574 12.2123 9.50358 12.9259 9.16628C13.6394 8.81601 14.4891 8.64088 15.475 8.64088C16.7983 8.64088 17.8361 8.97817 18.5885 9.65277C19.3539 10.3274 19.7366 11.229 19.7366 12.3576C19.7366 13.0971 19.5875 13.7846 19.2891 14.4203C18.9907 15.043 18.5691 15.6657 18.0242 16.2884C17.4794 16.9111 16.8372 17.5792 16.0977 18.2927L13.5096 20.803V20.9003H20.2621V22.7295Z" fill="#4722E9"/>
<path d="M71.9629 77.6475C71.9629 77.6475 47.8212 84.3826 45.9172 121.08C44.0133 157.766 45.6639 160.08 45.6639 160.08H101.014C101.014 160.08 99.7056 157.052 101.014 132.144C102.226 109.115 93.5243 84.4156 93.5243 84.4156L71.9629 77.6475Z" fill="#4722E9"/>
<path d="M95.4015 105.038L110.643 128.884L151.059 144.881L149.058 156.325L100.033 148.034C96.775 147.484 93.8522 145.707 91.8674 143.071L74.1719 119.559L95.4015 105.038Z" fill="#B39EF5"/>
<path d="M150.23 144.832C150.23 144.832 169.936 140.428 175.053 156.334H149.066L150.23 144.832Z" fill="#B39EF5"/>
<path d="M90.4559 64.4101L100.188 70.872C105.164 74.1693 111.928 71.7816 113.707 66.1061C124.324 32.252 109.864 34.7534 109.864 34.7534L95.8501 34.7439C94.6419 34.7439 93.6144 35.6156 93.4336 36.8L89.4094 62.0129C89.2477 62.9415 89.6663 63.8795 90.4559 64.4101Z" fill="#B39EF5"/>
<path d="M102.186 64.5424C101.482 65.1678 93.5189 84.7534 93.5189 84.7534L72.1133 77.6472L92.6436 41.6982L102.186 64.5424Z" fill="#B39EF5"/>
<path d="M116.476 51.9688C116.485 52.433 118.464 57.54 119.139 59.6814C119.358 60.373 118.721 61.0268 118.017 60.8468L112.68 59.7477L116.476 51.9688Z" fill="#B39EF5"/>
<path d="M99.3895 70.3416L93.8906 65.7178L96.4783 76.9077L99.3895 70.3416Z" fill="#9669F7"/>
<path d="M122.306 29.6557C120.079 20.5313 106.932 21.3366 101.119 26.5574C89.1888 28.1207 80.5314 30.7643 81.8158 41.0825C83.1952 52.1967 82.1297 60.0135 82.1297 60.0135L91.9192 55.6456L95.9244 50.0459C95.7722 50.8133 104.382 47.4971 102.47 40.4382C102.47 40.4382 115.713 40.4951 116.816 40.0403C116.816 40.0403 116.816 40.0403 116.826 40.0403C117.111 39.9929 124.494 38.6095 122.306 29.6557Z" fill="#4D4D4F"/>
<path d="M97.1519 48.7289C97.6371 51.5903 95.6963 54.3097 92.8232 54.7929C89.9501 55.2761 87.2197 53.3432 86.7345 50.4818C86.2493 47.6203 88.1901 44.901 91.0632 44.4178C93.9363 43.9346 96.6572 45.8675 97.1519 48.7289Z" fill="#B39EF5"/>
<path d="M94.0306 50.6234C94.0306 50.6234 94.0306 46.8334 90.6152 47.4019L94.0306 50.6234Z" fill="#9669F7"/>
<path d="M91.4958 97.9619C87.5992 91.5623 79.3133 89.462 72.8458 93.2317C66.1812 97.1182 63.9956 105.735 68.0176 112.332L78.3011 129.206L101 113.571L91.4958 97.9619Z" fill="#4722E9"/>
<path d="M80 127.214L67 106.299" stroke="white" stroke-width="0.915174" stroke-miterlimit="10" stroke-linecap="round" stroke-linejoin="round"/>
</svg>
