<svg width="251" height="29" viewBox="0 0 251 29" fill="none" xmlns="http://www.w3.org/2000/svg">
<path d="M2.7545 24.5039C2.63731 24.2461 2.52013 24 2.40294 23.7656C2.28575 23.5312 2.16856 23.3203 2.05138 23.1328C1.77013 22.5703 1.52403 22.0664 1.3131 21.6211C1.10216 21.1758 0.902939 20.6602 0.715439 20.0742C0.785751 19.6758 0.902939 19.0078 1.067 18.0703C1.2545 17.1328 1.46544 16.1133 1.69981 15.0117C1.93419 13.8867 2.18028 12.75 2.4381 11.6016C2.71935 10.4531 3.0006 9.46875 3.28185 8.64844C3.53966 7.92188 3.82091 7.14844 4.1256 6.32812C4.45372 5.50781 4.80528 4.75781 5.18028 4.07812C5.57872 3.375 6.0006 2.77734 6.44591 2.28516C6.89122 1.79297 7.37169 1.5 7.88731 1.40625C8.02794 1.59375 8.18028 1.74609 8.34435 1.86328C8.50841 1.95703 8.66075 2.02734 8.80138 2.07422C9.19981 2.63672 9.58653 3.11719 9.96153 3.51562C10.3365 3.89062 10.7818 4.26562 11.2975 4.64062C11.1568 5.34375 10.9459 6.12891 10.6647 6.99609C10.4068 7.83984 10.1256 8.69531 9.82091 9.5625C9.53966 10.4297 9.25841 11.2734 8.97716 12.0938C8.69591 12.8906 8.47325 13.582 8.30919 14.168C8.16856 14.6367 8.02794 15.1758 7.88731 15.7852C7.77013 16.3008 7.64122 16.9219 7.5006 17.6484C7.38341 18.375 7.26622 19.1719 7.14903 20.0391C7.47716 19.9453 7.84044 19.7578 8.23888 19.4766C8.66075 19.1953 9.04747 18.9023 9.39903 18.5977C9.82091 18.2461 10.2311 17.8711 10.6295 17.4727C11.1686 16.9336 11.6256 16.4414 12.0006 15.9961C12.3756 15.5508 12.7154 15.0938 13.0201 14.625C13.3483 14.1328 13.6764 13.6055 14.0045 13.043C14.3561 12.457 14.7662 11.7656 15.235 10.9688C15.6568 10.2891 16.0904 9.5625 16.5358 8.78906C17.0045 8.01562 17.4733 7.27734 17.942 6.57422C18.4108 5.87109 18.8678 5.22656 19.3131 4.64062C19.7584 4.03125 20.1686 3.5625 20.5436 3.23438C20.8014 3.49219 21.0943 3.76172 21.4225 4.04297C21.774 4.32422 22.149 4.52344 22.5475 4.64062C22.7115 4.89844 22.8639 5.13281 23.0045 5.34375C23.1686 5.53125 23.3209 5.71875 23.4615 5.90625C23.649 6.16406 23.8131 6.39844 23.9537 6.60938C24.1178 6.82031 24.2584 7.05469 24.3756 7.3125C24.3522 7.5 24.3053 7.74609 24.235 8.05078C24.1881 8.35547 24.1295 8.69531 24.0592 9.07031C23.9889 9.42188 23.9068 9.78516 23.8131 10.1602C23.7428 10.5352 23.6725 10.8984 23.6022 11.25C23.3678 12.3047 23.192 13.1016 23.0748 13.6406C22.9576 14.1797 22.8756 14.6016 22.8287 14.9062C22.7818 15.2109 22.7467 15.4688 22.7233 15.6797C22.7233 15.8906 22.7233 16.1836 22.7233 16.5586C22.7233 16.8398 22.7467 17.1211 22.7936 17.4023C22.8404 17.6602 22.8873 17.9297 22.9342 18.2109C23.0045 18.4688 23.1217 18.7148 23.2858 18.9492L24.9733 17.6484C25.442 17.2969 25.8873 16.8047 26.3092 16.1719C26.7545 15.5156 27.1764 14.7773 27.5748 13.957C27.9967 13.1133 28.4068 12.2109 28.8053 11.25C29.2037 10.2656 29.6022 9.25781 30.0006 8.22656C30.2818 7.47656 30.5631 6.73828 30.8443 6.01172C31.149 5.26172 31.4537 4.55859 31.7584 3.90234C32.0631 3.22266 32.3561 2.61328 32.6373 2.07422C32.942 1.51172 33.235 1.04297 33.5162 0.667969C34.149 1.06641 34.6881 1.46484 35.1334 1.86328C35.6022 2.26172 36.0006 2.70703 36.3287 3.19922C36.6803 3.66797 36.9498 4.21875 37.1373 4.85156C37.3483 5.46094 37.5006 6.1875 37.5943 7.03125C37.0787 8.01562 36.5983 9.02344 36.1529 10.0547C35.7076 11.0859 35.2623 12.1289 34.817 13.1836C34.2545 14.543 33.6686 15.9023 33.0592 17.2617C32.4733 18.5977 31.817 19.875 31.0904 21.0938C30.3639 22.3125 29.5436 23.4375 28.6295 24.4688C27.7389 25.4766 26.7076 26.332 25.5358 27.0352C25.2076 26.9648 24.9264 26.9297 24.692 26.9297C24.4342 26.9297 24.2115 26.9648 24.024 27.0352C23.86 27.1055 23.7076 27.1992 23.567 27.3164C22.6061 26.8711 21.8326 26.2148 21.2467 25.3477C20.6608 24.457 20.0865 23.4727 19.524 22.3945C19.4537 22.2305 19.3717 22.0781 19.2779 21.9375C19.2076 21.7734 19.1256 21.6094 19.0318 21.4453L18.4342 20.3555L18.0826 19.6875L17.5904 20.1445L16.8522 20.8125L16.4303 21.2344C15.7037 21.9141 14.9654 22.582 14.2154 23.2383C13.4654 23.8711 12.6803 24.457 11.86 24.9961C11.0397 25.5117 10.1608 25.9336 9.22325 26.2617C8.30919 26.5898 7.32481 26.7656 6.27013 26.7891C6.08263 26.6953 5.90685 26.6133 5.74278 26.543C5.60216 26.4727 5.46153 26.4023 5.32091 26.332C4.78185 26.0742 4.33653 25.8281 3.98497 25.5938C3.63341 25.3594 3.22325 24.9961 2.7545 24.5039ZM55.8506 7.20703C55.874 7.37109 55.874 7.5 55.8506 7.59375C55.8506 7.66406 55.8388 7.73438 55.8154 7.80469C55.8154 7.875 55.8154 7.95703 55.8154 8.05078C55.8154 8.12109 55.8388 8.23828 55.8857 8.40234C55.3935 9.19922 54.8193 9.75 54.1631 10.0547C53.5303 10.3359 52.8388 10.5469 52.0888 10.6875C51.3388 10.8047 50.5654 10.9336 49.7685 11.0742C48.9951 11.2148 48.2217 11.5195 47.4482 11.9883C47.1435 11.8711 46.8623 11.8711 46.6045 11.9883C46.3701 12.1055 46.0185 12.1406 45.5498 12.0938C45.4092 12.2344 45.2334 12.3398 45.0224 12.4102C44.8115 12.457 44.6006 12.5156 44.3896 12.5859C44.4834 12.7969 44.5185 13.0195 44.4951 13.2539C44.4951 13.4648 44.5303 13.6406 44.6006 13.7812C45.4209 13.8516 46.3232 13.8398 47.3076 13.7461C48.3154 13.6523 49.2998 13.5938 50.2607 13.5703C50.2842 13.6875 50.2724 13.7695 50.2256 13.8164C50.1787 13.8398 50.167 13.8984 50.1904 13.9922C50.3545 14.1094 50.5185 14.2617 50.6826 14.4492C50.8467 14.6133 51.0107 14.7773 51.1748 14.9414C51.3388 15.1055 51.5029 15.2461 51.667 15.3633C51.8545 15.457 52.0654 15.4922 52.2998 15.4688C52.3935 15.6562 52.4521 15.8672 52.4756 16.1016C52.5224 16.3125 52.499 16.5352 52.4053 16.7695C52.0303 17.0273 51.6553 17.2969 51.2803 17.5781C50.9053 17.8359 50.5068 18.0703 50.0849 18.2812C49.6865 18.4922 49.2529 18.668 48.7842 18.8086C48.3388 18.9258 47.8349 18.9727 47.2724 18.9492C47.1553 18.9492 47.0615 18.9492 46.9912 18.9492C46.9443 18.9492 46.874 18.9141 46.7803 18.8438C46.5928 18.9609 46.3232 18.9961 45.9717 18.9492C45.6435 18.9023 45.3857 18.9375 45.1982 19.0547C44.9404 18.9375 44.624 18.8906 44.249 18.9141C43.8974 18.9141 43.581 18.8672 43.2998 18.7734C42.9248 19.2656 42.5849 19.793 42.2803 20.3555C41.9756 20.918 41.706 21.5156 41.4717 22.1484C42.2685 22.2656 42.9248 22.3125 43.4404 22.2891C43.9795 22.2656 44.4834 22.2305 44.9521 22.1836C45.4209 22.1133 45.9013 22.0547 46.3935 22.0078C46.8857 21.9375 47.5068 21.9141 48.2568 21.9375C48.7256 21.6797 49.2763 21.5156 49.9092 21.4453C50.5654 21.3516 51.1631 21.2109 51.7021 21.0234C51.8896 21.0938 52.0537 21.2227 52.1943 21.4102C52.3349 21.5742 52.4638 21.7383 52.581 21.9023C52.7217 22.043 52.8623 22.1719 53.0029 22.2891C53.1435 22.4062 53.3193 22.4531 53.5303 22.4297C53.624 22.5234 53.6826 22.6406 53.706 22.7812C53.7529 22.8984 53.7881 23.0156 53.8115 23.1328C53.8349 23.25 53.8701 23.3555 53.917 23.4492C53.9873 23.5195 54.0928 23.543 54.2334 23.5195C53.8818 24.293 53.4717 24.8906 53.0029 25.3125C52.5576 25.7109 52.042 26.0156 51.456 26.2266C50.8701 26.4375 50.2138 26.6016 49.4873 26.7188C48.7842 26.8359 47.999 26.9766 47.1318 27.1406C46.9209 27.1875 46.7451 27.1758 46.6045 27.1055C46.4638 27.0586 46.2998 27.0352 46.1123 27.0352C45.5732 27.1523 44.9287 27.2578 44.1787 27.3516C43.4287 27.4453 42.667 27.4805 41.8935 27.457C41.1201 27.4336 40.3818 27.3281 39.6787 27.1406C38.9756 26.9766 38.4013 26.6719 37.956 26.2266C37.7685 26.0625 37.6396 25.875 37.5693 25.6641C37.5224 25.4297 37.3701 25.2539 37.1123 25.1367C37.0888 24.832 37.042 24.4922 36.9717 24.1172C36.9013 23.7422 36.831 23.3555 36.7607 22.957C36.6904 22.5352 36.6318 22.125 36.5849 21.7266C36.5615 21.3281 36.5849 20.9648 36.6553 20.6367C36.7256 20.2852 36.8662 19.9688 37.0771 19.6875C37.3115 19.4062 37.3935 19.1016 37.3232 18.7734C37.4404 18.75 37.5107 18.6914 37.5342 18.5977C37.5576 18.4805 37.6513 18.4336 37.8154 18.457C37.956 18.0352 38.1084 17.6367 38.2724 17.2617C38.4365 16.8867 38.6006 16.5234 38.7646 16.1719C38.9521 15.8203 39.1279 15.4688 39.292 15.1172C39.4795 14.7422 39.6553 14.332 39.8193 13.8867C39.4912 13.582 39.2451 13.2539 39.081 12.9023C38.9404 12.5273 38.8349 12.1641 38.7646 11.8125C38.6943 11.4375 38.6357 11.0625 38.5888 10.6875C38.542 10.2891 38.4599 9.89062 38.3428 9.49219C38.5771 9.14062 38.8584 8.85938 39.1865 8.64844C39.5381 8.41406 39.9131 8.22656 40.3115 8.08594C40.7099 7.94531 41.1435 7.82812 41.6123 7.73438C42.081 7.64062 42.5732 7.53516 43.0888 7.41797C44.0263 7.11328 44.8584 6.87891 45.5849 6.71484C46.3349 6.55078 47.0615 6.42188 47.7646 6.32812C48.4912 6.21094 49.2412 6.10547 50.0146 6.01172C50.7881 5.91797 51.667 5.77734 52.6513 5.58984C52.8623 5.80078 53.0615 5.90625 53.249 5.90625C53.3428 5.69531 53.4482 5.63672 53.5654 5.73047C53.706 5.80078 53.7646 5.73047 53.7412 5.51953C53.9756 5.91797 54.2685 6.25781 54.6201 6.53906C54.9951 6.79688 55.4053 7.01953 55.8506 7.20703ZM70.7771 17.0859C70.8005 16.9922 70.8474 16.957 70.9177 16.9805C71.0114 16.9805 71.0935 16.9688 71.1638 16.9453C70.9763 16.7578 70.8591 16.5117 70.8122 16.207C70.7653 15.8789 70.6482 15.6094 70.4607 15.3984C70.5075 15.2812 70.5427 15.1641 70.5661 15.0469C70.613 14.9297 70.7185 14.8828 70.8825 14.9062C70.8122 14.3906 70.8239 13.9102 70.9177 13.4648C71.0114 13.0195 71.1521 12.5977 71.3396 12.1992C71.5505 11.8008 71.7849 11.4141 72.0427 11.0391C72.3239 10.6406 72.5935 10.2422 72.8513 9.84375C73.0622 9.79688 73.1911 9.82031 73.238 9.91406C73.2849 9.98438 73.3669 9.96094 73.4841 9.84375C73.8591 9.58594 74.1169 9.30469 74.2575 9C74.3982 8.67188 74.4685 8.32031 74.4685 7.94531C74.6794 7.33594 74.9138 6.73828 75.1716 6.15234C75.4528 5.54297 75.7692 4.98047 76.1208 4.46484C76.4724 3.94922 76.8474 3.50391 77.2458 3.12891C77.6442 2.73047 78.0778 2.42578 78.5466 2.21484C78.8747 1.93359 79.2849 1.67578 79.7771 1.44141C80.2927 1.20703 80.8317 1.03125 81.3942 0.914062C81.9802 0.773438 82.5778 0.703125 83.1872 0.703125C83.7966 0.679688 84.3591 0.738281 84.8747 0.878906C84.9919 0.925781 85.0622 0.902344 85.0857 0.808594C85.1091 0.691406 85.1677 0.632812 85.2614 0.632812C86.4333 0.773438 87.4763 1.00781 88.3903 1.33594C89.3278 1.66406 90.1247 2.12109 90.781 2.70703C91.2263 3.41016 91.6482 4.17188 92.0466 4.99219C92.445 5.78906 92.7497 6.63281 92.9607 7.52344C93.195 8.39062 93.3005 9.29297 93.2771 10.2305C93.2536 11.168 93.0544 12.1055 92.6794 13.043C91.8591 14.0742 90.863 14.9062 89.6911 15.5391C88.5192 16.1484 87.2536 16.6641 85.8942 17.0859C84.5583 17.4844 83.1638 17.8125 81.7107 18.0703C80.281 18.3281 78.8864 18.6094 77.5271 18.9141C77.5505 19.5469 77.5505 20.2266 77.5271 20.9531C77.5036 21.6562 77.4216 22.3711 77.281 23.0977C77.1638 23.8008 76.9763 24.4922 76.7185 25.1719C76.4841 25.8516 76.156 26.4844 75.7341 27.0703C75.2653 27.0469 74.7732 27.0938 74.2575 27.2109C73.7653 27.3281 73.32 27.4453 72.9216 27.5625C72.7341 27.4453 72.5466 27.3281 72.3591 27.2109C72.195 27.1172 71.9841 27.0586 71.7263 27.0352C71.7966 26.7539 71.7263 26.4609 71.5153 26.1562C71.3278 25.8516 71.1286 25.5586 70.9177 25.2773C70.7302 24.9727 70.6013 24.6797 70.531 24.3984C70.4841 24.0938 70.6247 23.8242 70.9528 23.5898C70.7653 23.4258 70.6716 23.168 70.6716 22.8164C70.7653 22.9102 70.8825 22.957 71.0232 22.957C70.9763 22.5352 71.0232 22.0312 71.1638 21.4453C71.3278 20.8594 71.4567 20.2852 71.5505 19.7227C71.6677 19.1367 71.6911 18.6094 71.6208 18.1406C71.5505 17.6484 71.2692 17.2969 70.7771 17.0859ZM79.9177 8.85938C79.8239 9.11719 79.7419 9.35156 79.6716 9.5625C79.6247 9.75 79.5661 9.92578 79.4958 10.0898C79.4255 10.2539 79.3435 10.418 79.2497 10.582C79.1794 10.7461 79.0974 10.9336 79.0036 11.1445C79.0505 11.2852 79.1442 11.3906 79.2849 11.4609C79.4255 11.5312 79.5192 11.6367 79.5661 11.7773C79.8942 11.6133 80.2224 11.4961 80.5505 11.4258C80.8786 11.332 81.2067 11.2617 81.5349 11.2148C81.863 11.168 82.1911 11.1094 82.5192 11.0391C82.8474 10.9688 83.1872 10.8516 83.5388 10.6875C83.8903 10.5234 84.2536 10.3945 84.6286 10.3008C85.0271 10.1836 85.4138 10.0664 85.7888 9.94922C86.1638 9.83203 86.5271 9.70312 86.8786 9.5625C87.2302 9.39844 87.5349 9.1875 87.7927 8.92969C87.4646 8.625 86.9724 8.35547 86.3161 8.12109C85.6599 7.88672 84.945 7.74609 84.1716 7.69922C83.4216 7.62891 82.6599 7.67578 81.8864 7.83984C81.1364 8.00391 80.4802 8.34375 79.9177 8.85938ZM98.3145 23.3438C98.0567 24.2812 97.8223 24.9961 97.6114 25.4883C97.4239 25.957 97.1309 26.4492 96.7325 26.9648C96.4278 26.918 96.2169 26.9531 96.0997 27.0703C95.9825 27.1875 95.8536 27.293 95.713 27.3867C95.502 27.4336 95.3497 27.4336 95.2559 27.3867C95.1622 27.3398 95.0802 27.2812 95.0098 27.2109C94.9395 27.1641 94.8458 27.1055 94.7286 27.0352C94.6348 26.9883 94.4825 26.9648 94.2716 26.9648C94.2247 26.7773 94.1661 26.6016 94.0958 26.4375C94.0489 26.2734 93.8966 26.2148 93.6387 26.2617C93.6856 26.0742 93.6973 25.9219 93.6739 25.8047C93.6505 25.6641 93.6153 25.5469 93.5684 25.4531C93.545 25.3359 93.5216 25.2305 93.4981 25.1367C93.4747 25.0195 93.4864 24.8789 93.5333 24.7148C93.4161 24.7148 93.3223 24.6328 93.252 24.4688C93.1817 24.3047 93.0997 24.1406 93.0059 23.9766C93.0762 23.5547 93.1466 23.1562 93.2169 22.7812C93.2872 22.4062 93.3692 22.0547 93.463 21.7266C93.5802 21.3984 93.6739 21.0703 93.7442 20.7422C93.8145 20.4141 93.7794 20.0742 93.6387 19.7227C93.7325 19.793 93.8028 19.7812 93.8497 19.6875C93.8966 19.5703 93.9317 19.4297 93.9552 19.2656C93.9786 19.0781 93.9903 18.9023 93.9903 18.7383C93.9903 18.5508 93.9786 18.3984 93.9552 18.2812C94.1895 17.6719 94.377 17.0508 94.5177 16.418C94.6817 15.7617 94.8223 15.1172 94.9395 14.4844C95.0802 13.8516 95.2208 13.2305 95.3614 12.6211C95.502 12.0117 95.6895 11.4492 95.9239 10.9336C96.1817 10.8867 96.463 10.9219 96.7677 11.0391C97.0958 11.1328 97.295 11.2617 97.3653 11.4258C97.9747 10.957 98.5137 10.3945 98.9825 9.73828C99.4512 9.05859 99.9317 8.40234 100.424 7.76953C100.916 7.13672 101.455 6.57422 102.041 6.08203C102.65 5.58984 103.412 5.29688 104.326 5.20312C104.795 5.55469 105.311 5.91797 105.873 6.29297C106.459 6.64453 106.94 7.11328 107.315 7.69922C107.502 7.79297 107.654 7.89844 107.772 8.01562C107.912 8.10938 108.076 8.21484 108.264 8.33203V8.75391C108.545 9.01172 108.768 9.31641 108.932 9.66797C109.119 9.99609 109.283 10.3594 109.424 10.7578C109.565 11.1328 109.705 11.5195 109.846 11.918C109.986 12.293 110.15 12.6562 110.338 13.0078C110.291 13.125 110.268 13.2305 110.268 13.3242C110.268 13.3945 110.279 13.4766 110.303 13.5703C110.35 13.6641 110.385 13.7578 110.408 13.8516C110.432 13.9453 110.432 14.0742 110.408 14.2383C110.338 15.2695 109.998 16.1016 109.389 16.7344C108.803 17.3672 108.088 17.8945 107.244 18.3164C106.4 18.7148 105.498 19.0547 104.537 19.3359C103.576 19.6172 102.709 19.9219 101.936 20.25C101.936 20.3438 101.971 20.3906 102.041 20.3906C102.135 20.3906 102.17 20.4492 102.147 20.5664C102.709 20.918 103.154 21.1992 103.482 21.4102C103.811 21.6211 104.115 21.7969 104.397 21.9375C104.701 22.0781 105.018 22.207 105.346 22.3242C105.697 22.418 106.178 22.5352 106.787 22.6758C107.397 22.8164 107.865 22.9336 108.193 23.0273C108.545 23.0977 108.861 23.168 109.143 23.2383C109.424 23.2852 109.705 23.332 109.986 23.3789C110.291 23.4023 110.713 23.4375 111.252 23.4844C111.463 23.6953 111.639 23.9531 111.779 24.2578C111.943 24.5391 112.049 24.832 112.096 25.1367C112.143 25.418 112.154 25.6992 112.131 25.9805C112.107 26.2383 112.025 26.4492 111.885 26.6133C111.908 26.6836 111.955 26.7188 112.025 26.7188C112.119 26.6953 112.213 26.6953 112.307 26.7188C112.166 26.8125 112.049 26.9297 111.955 27.0703C111.861 27.2109 111.768 27.3516 111.674 27.4922C111.58 27.6328 111.475 27.75 111.357 27.8438C111.24 27.9609 111.076 28.0312 110.865 28.0547C110.139 28.3359 109.225 28.3477 108.123 28.0898C107.022 27.8555 105.627 27.4102 103.94 26.7539C103.096 26.4258 102.404 26.1445 101.865 25.9102C101.35 25.6523 100.893 25.4062 100.494 25.1719C100.119 24.9141 99.7677 24.6445 99.4395 24.3633C99.1348 24.082 98.7598 23.7422 98.3145 23.3438ZM103.342 11.2852C103.084 11.6602 102.791 12 102.463 12.3047C102.158 12.6094 101.854 12.9258 101.549 13.2539C101.268 13.5586 101.01 13.9102 100.775 14.3086C100.541 14.6836 100.377 15.1289 100.283 15.6445C101.104 15.5508 101.959 15.3281 102.85 14.9766C103.74 14.6016 104.584 14.25 105.381 13.9219C105.287 13.1953 105.029 12.6094 104.607 12.1641C104.209 11.7188 103.787 11.4258 103.342 11.2852ZM133.059 16.4531C133.036 16.7344 133.059 17.0039 133.129 17.2617C133.2 17.5195 133.282 17.7773 133.375 18.0352C133.493 18.2695 133.598 18.5156 133.692 18.7734C133.786 19.0312 133.856 19.2891 133.903 19.5469C133.95 19.875 133.95 20.2383 133.903 20.6367C133.856 21.0117 133.774 21.3867 133.657 21.7617C133.54 22.1133 133.387 22.4414 133.2 22.7461C133.012 23.0273 132.79 23.2383 132.532 23.3789C132.204 23.8008 131.805 24.1289 131.336 24.3633C130.868 24.5977 130.434 24.8789 130.036 25.207C129.778 25.3711 129.485 25.4883 129.157 25.5586C128.852 25.6289 128.536 25.6992 128.207 25.7695C127.95 25.9102 127.645 26.0625 127.293 26.2266C126.942 26.3672 126.579 26.5078 126.204 26.6484C125.829 26.7656 125.454 26.8594 125.079 26.9297C124.704 26.9766 124.375 26.9883 124.094 26.9648C123.391 27.2227 122.7 27.3867 122.02 27.457C121.364 27.5508 120.59 27.5039 119.7 27.3164C118.856 27.4336 118.071 27.3984 117.344 27.2109C116.641 27.0234 116.008 26.7305 115.446 26.332C114.907 25.9102 114.426 25.418 114.004 24.8555C113.606 24.2695 113.278 23.6602 113.02 23.0273C112.832 21.6914 112.879 20.4844 113.161 19.4062C113.442 18.3047 113.84 17.2969 114.356 16.3828C114.895 15.4453 115.504 14.5898 116.184 13.8164C116.864 13.0195 117.52 12.2461 118.153 11.4961C118.293 11.543 118.399 11.543 118.469 11.4961C118.563 11.4258 118.645 11.3438 118.715 11.25C118.786 11.1328 118.856 11.0273 118.926 10.9336C119.02 10.8398 119.125 10.7812 119.243 10.7578C119.407 10.4062 119.641 10.1484 119.946 9.98438C120.274 9.79688 120.532 9.53906 120.719 9.21094C120.93 9.16406 121.106 9.09375 121.247 9C121.387 8.90625 121.516 8.80078 121.633 8.68359C121.774 8.56641 121.915 8.46094 122.055 8.36719C122.196 8.25 122.36 8.16797 122.547 8.12109V7.73438C122.969 7.54688 123.274 7.33594 123.461 7.10156C123.672 6.84375 123.918 6.53906 124.2 6.1875C124.411 6.16406 124.575 6.15234 124.692 6.15234C124.832 6.15234 125.032 6.12891 125.29 6.08203C125.477 5.75391 125.641 5.50781 125.782 5.34375C125.946 5.17969 126.18 5.00391 126.485 4.81641C126.766 4.95703 127.071 5.05078 127.399 5.09766C127.75 5.14453 128.055 5.29688 128.313 5.55469C128.336 5.78906 128.407 5.97656 128.524 6.11719C128.641 6.23438 128.77 6.35156 128.911 6.46875C129.051 6.5625 129.18 6.66797 129.297 6.78516C129.438 6.90234 129.532 7.06641 129.579 7.27734C129.672 7.30078 129.731 7.28906 129.754 7.24219C129.801 7.19531 129.872 7.18359 129.965 7.20703C130.036 7.53516 130.118 7.75781 130.211 7.875C130.305 7.96875 130.399 8.16797 130.493 8.47266C130.375 8.70703 130.282 8.95312 130.211 9.21094C130.165 9.44531 130.024 9.62109 129.79 9.73828C129.766 9.90234 129.813 9.99609 129.93 10.0195C130.047 10.0195 130.118 10.0781 130.141 10.1953C130.165 10.4062 130.129 10.5586 130.036 10.6523C130.598 11.5664 131.102 12.5391 131.547 13.5703C131.993 14.5781 132.497 15.5391 133.059 16.4531ZM128.665 19.793C128.758 19.5352 128.875 19.3242 129.016 19.1602C129.18 18.9961 129.274 18.75 129.297 18.4219C129.18 18.2344 129.11 18.0938 129.086 18C129.063 17.8828 129.051 17.707 129.051 17.4727C128.536 16.7461 128.09 15.9727 127.715 15.1523C127.34 14.3086 126.918 13.5234 126.45 12.7969C126.403 12.8906 126.321 12.9844 126.204 13.0781C126.086 13.1719 125.957 13.1484 125.817 13.0078C125.77 13.1953 125.688 13.3359 125.571 13.4297C125.454 13.5 125.325 13.5352 125.184 13.5352C125.043 13.5117 124.891 13.4766 124.727 13.4297C124.586 13.3594 124.457 13.2773 124.34 13.1836C123.661 13.7227 122.981 14.25 122.301 14.7656C121.622 15.2812 121.012 15.8789 120.473 16.5586C120.379 16.6055 120.321 16.6289 120.297 16.6289C120.274 16.6055 120.204 16.6172 120.086 16.6641C119.899 17.1094 119.665 17.5195 119.383 17.8945C119.125 18.2461 118.868 18.6094 118.61 18.9844C118.352 19.3594 118.129 19.7578 117.942 20.1797C117.754 20.6016 117.649 21.0938 117.625 21.6562C118.024 21.9844 118.493 22.1836 119.032 22.2539C119.571 22.3242 120.122 22.3359 120.684 22.2891C121.27 22.2422 121.832 22.1719 122.372 22.0781C122.934 21.9609 123.45 21.9023 123.918 21.9023C124.903 21.668 125.747 21.3633 126.45 20.9883C127.153 20.5898 127.891 20.1914 128.665 19.793ZM159.964 26.3672C159.729 26.4844 159.507 26.5898 159.296 26.6836C159.108 26.7773 158.886 26.8242 158.628 26.8242C157.714 26.1445 157.233 24.9609 157.186 23.2734C157.163 21.5859 157.526 19.4414 158.276 16.8398C158.393 16.7695 158.452 16.6289 158.452 16.418L158.136 16.0664C158.042 16.0664 157.948 16.0781 157.854 16.1016C157.784 16.125 157.725 16.207 157.679 16.3477C157.069 16.793 156.401 17.2617 155.675 17.7539C154.948 18.2227 154.186 18.668 153.389 19.0898C152.616 19.4883 151.819 19.8164 150.999 20.0742C150.202 20.332 149.417 20.4609 148.643 20.4609C146.675 20.4609 145.198 19.4648 144.214 17.4727L143.932 16.9453L143.651 17.4023C143.581 17.4961 143.475 17.6953 143.335 18C143.194 18.2812 143.054 18.6094 142.913 18.9844C142.772 19.3594 142.643 19.7461 142.526 20.1445C142.432 20.5195 142.397 20.8477 142.421 21.1289C142.21 21.3398 141.987 21.5859 141.753 21.8672C141.518 22.1484 141.343 22.4648 141.225 22.8164C141.179 23.0039 141.202 23.1797 141.296 23.3438C141.249 23.5547 141.143 23.7188 140.979 23.8359C140.886 23.9531 140.78 24.0703 140.663 24.1875C140.569 24.2812 140.487 24.3867 140.417 24.5039C140.37 24.6211 140.335 24.7383 140.311 24.8555C140.311 24.9727 140.3 25.0898 140.276 25.207C140.276 25.3711 140.253 25.5234 140.206 25.6641C139.807 26.4844 139.491 27.0117 139.257 27.2461C139.022 27.5039 138.706 27.6328 138.307 27.6328C138.12 27.6328 137.815 27.5977 137.393 27.5273C137.089 27.1992 136.807 26.7539 136.55 26.1914C136.315 25.6055 136.128 24.9844 135.987 24.3281C135.87 23.6719 135.811 23.0156 135.811 22.3594C135.835 21.6797 135.952 21.0938 136.163 20.6016C136.163 20.5781 136.257 20.3438 136.444 19.8984C136.632 19.4531 136.866 18.8789 137.147 18.1758C137.452 17.4727 137.792 16.6992 138.167 15.8555C138.542 14.9883 138.917 14.1562 139.292 13.3594C139.667 12.5391 140.018 11.7891 140.346 11.1094C140.698 10.4297 140.991 9.91406 141.225 9.5625C141.413 9.28125 141.577 9.02344 141.718 8.78906C141.882 8.53125 142.034 8.28516 142.175 8.05078C142.596 7.32422 142.995 6.72656 143.37 6.25781C143.768 5.76562 144.343 5.37891 145.093 5.09766C145.608 5.30859 145.983 5.55469 146.218 5.83594L146.288 6.22266C146.382 6.45703 146.522 6.57422 146.71 6.57422C146.968 6.64453 147.179 6.71484 147.343 6.78516C147.53 6.83203 147.729 6.87891 147.94 6.92578C148.104 7.11328 148.257 7.33594 148.397 7.59375C148.585 7.875 148.761 8.15625 148.925 8.4375C149.112 8.69531 149.253 8.96484 149.346 9.24609C149.464 9.50391 149.522 9.77344 149.522 10.0547C149.546 10.3359 149.499 10.6289 149.382 10.9336L149.417 11.2852C149.534 11.4961 149.557 11.7891 149.487 12.1641C149.464 12.3281 149.452 12.5039 149.452 12.6914C149.452 12.8555 149.475 13.043 149.522 13.2539C149.944 13.582 150.319 13.7461 150.647 13.7461C151.022 13.7461 151.362 13.6641 151.667 13.5C151.995 13.3125 152.3 13.125 152.581 12.9375C152.768 12.7969 152.956 12.6797 153.143 12.5859C153.331 12.4688 153.518 12.3984 153.706 12.375C154.128 11.9766 154.503 11.625 154.831 11.3203C155.182 11.0156 155.546 10.7109 155.921 10.4062C156.624 9.84375 157.304 9.23438 157.96 8.57812C158.616 7.92188 159.143 7.10156 159.542 6.11719C159.776 5.97656 160.022 5.90625 160.28 5.90625C160.538 5.90625 160.807 5.96484 161.089 6.08203C161.37 6.19922 161.639 6.31641 161.897 6.43359C161.968 6.48047 162.026 6.51562 162.073 6.53906C162.143 6.5625 162.202 6.58594 162.249 6.60938C162.249 6.84375 162.343 7.04297 162.53 7.20703C162.624 7.27734 162.682 7.32422 162.706 7.34766C162.729 7.37109 162.764 7.39453 162.811 7.41797C163.163 7.60547 163.386 7.79297 163.479 7.98047C163.643 8.51953 163.936 8.92969 164.358 9.21094C164.311 9.44531 164.311 9.66797 164.358 9.87891C164.429 10.0664 164.511 10.2656 164.604 10.4766C164.628 10.5469 164.651 10.6172 164.675 10.6875C164.698 10.7578 164.733 10.8398 164.78 10.9336L164.112 10.8633L164.218 11.5312C164.264 11.8594 164.229 12.2227 164.112 12.6211C164.018 13.0195 163.901 13.3359 163.761 13.5703C163.784 14.1797 163.796 14.6602 163.796 15.0117C163.819 15.3398 163.807 15.6562 163.761 15.9609C163.714 16.2422 163.643 16.5117 163.55 16.7695C163.479 17.0273 163.374 17.3086 163.233 17.6133C163.327 19.1133 163.151 20.4844 162.706 21.7266C162.284 22.9453 161.839 24.0938 161.37 25.1719C161.323 25.2891 161.264 25.4062 161.194 25.5234C161.147 25.6406 161.1 25.7578 161.054 25.875C160.843 25.9453 160.655 26.0273 160.491 26.1211C160.327 26.1914 160.151 26.2734 159.964 26.3672ZM172.841 24.5391C172.958 25.2422 172.911 25.793 172.7 26.1914C172.513 26.5898 172.232 26.8828 171.857 27.0703C171.505 27.2812 171.095 27.3984 170.626 27.4219C170.157 27.4453 169.712 27.4219 169.29 27.3516C169.056 27.0234 168.845 26.6133 168.657 26.1211C168.47 25.6289 168.294 25.125 168.13 24.6094C167.966 24.0703 167.814 23.543 167.673 23.0273C167.556 22.5117 167.45 22.0547 167.357 21.6562C167.474 21.375 167.544 21.0586 167.568 20.707C167.614 20.332 167.638 19.957 167.638 19.582C167.661 19.207 167.673 18.832 167.673 18.457C167.696 18.0586 167.732 17.6836 167.779 17.332C167.943 16.3477 168.177 15.4102 168.482 14.5195C168.81 13.6289 169.068 12.7031 169.255 11.7422C169.302 11.5312 169.279 11.332 169.185 11.1445C169.114 10.957 169.103 10.7812 169.15 10.6172C169.173 10.5234 169.243 10.4648 169.361 10.4414C169.478 10.3945 169.548 10.3125 169.571 10.1953C169.642 9.9375 169.654 9.72656 169.607 9.5625C169.583 9.39844 169.63 9.19922 169.747 8.96484C169.864 8.77734 170.005 8.50781 170.169 8.15625C170.357 7.78125 170.427 7.39453 170.38 6.99609C170.591 6.85547 170.79 6.69141 170.978 6.50391C171.165 6.31641 171.353 6.15234 171.54 6.01172C171.751 5.84766 171.974 5.70703 172.208 5.58984C172.466 5.47266 172.771 5.41406 173.122 5.41406C173.31 5.64844 173.427 5.90625 173.474 6.1875C173.544 6.46875 173.603 6.75 173.65 7.03125C173.72 7.3125 173.814 7.58203 173.931 7.83984C174.048 8.07422 174.247 8.26172 174.529 8.40234C174.529 8.58984 174.529 8.82422 174.529 9.10547C174.529 9.38672 174.54 9.66797 174.564 9.94922C174.587 10.207 174.634 10.4531 174.704 10.6875C174.798 10.8984 174.939 11.0391 175.126 11.1094C174.704 12.2344 174.306 13.3477 173.931 14.4492C173.579 15.5508 173.286 16.6641 173.052 17.7891C172.818 18.8906 172.665 20.0039 172.595 21.1289C172.548 22.2539 172.63 23.3906 172.841 24.5391ZM177.914 11.1797C178.078 10.6875 178.335 10.2656 178.687 9.91406C179.062 9.5625 179.46 9.26953 179.882 9.03516C180.328 8.77734 180.785 8.56641 181.253 8.40234C181.722 8.23828 182.168 8.09766 182.589 7.98047C183.527 7.58203 184.523 7.20703 185.578 6.85547C186.656 6.48047 187.746 6.15234 188.847 5.87109C189.972 5.58984 191.121 5.41406 192.293 5.34375C193.464 5.25 194.695 5.39062 195.984 5.76562C196.054 6 196.16 6.22266 196.3 6.43359C196.441 6.64453 196.582 6.85547 196.722 7.06641C196.886 7.27734 197.027 7.48828 197.144 7.69922C197.261 7.88672 197.332 8.08594 197.355 8.29688C197.589 8.50781 197.777 8.74219 197.918 9C198.058 9.23438 198.082 9.55078 197.988 9.94922C197.753 10.1367 197.519 10.3125 197.285 10.4766C197.074 10.6172 196.839 10.7461 196.582 10.8633C195.714 10.6523 194.835 10.582 193.945 10.6523C193.054 10.7227 192.257 10.7812 191.554 10.8281C191.343 10.6172 191.085 10.5117 190.781 10.5117C190.5 10.5117 190.195 10.5586 189.867 10.6523C189.562 10.7461 189.246 10.8398 188.918 10.9336C188.613 11.0273 188.32 11.0508 188.039 11.0039C187.804 11.1914 187.511 11.3203 187.16 11.3906C186.832 11.4375 186.468 11.4844 186.07 11.5312C186.046 11.6484 186.07 11.7305 186.14 11.7773C186.21 11.8008 186.222 11.8711 186.175 11.9883C186.316 12.1523 186.492 12.2695 186.703 12.3398C186.937 12.4102 187.171 12.4805 187.406 12.5508C187.664 12.6211 187.886 12.7148 188.074 12.832C188.261 12.9258 188.39 13.0898 188.46 13.3242C188.812 13.3242 189.117 13.4062 189.375 13.5703C189.632 13.7344 189.843 13.9336 190.007 14.168C190.171 14.4023 190.289 14.6602 190.359 14.9414C190.453 15.1992 190.5 15.4336 190.5 15.6445C190.57 15.832 190.652 15.9141 190.746 15.8906C190.839 15.8672 190.945 15.9141 191.062 16.0312C191.132 16.3359 191.308 16.6523 191.589 16.9805C191.871 17.2852 192.093 17.625 192.257 18C192.304 18.5859 192.339 19.1133 192.363 19.582C192.386 20.0273 192.304 20.4844 192.117 20.9531C191.765 21.8203 191.273 22.5938 190.64 23.2734C190.031 23.9531 189.328 24.5625 188.531 25.1016C187.757 25.6172 186.925 26.0625 186.035 26.4375C185.144 26.8125 184.277 27.1289 183.433 27.3867C183.339 27.3633 183.246 27.3633 183.152 27.3867C183.058 27.4102 183.035 27.3516 183.082 27.2109C182.894 27.375 182.683 27.4805 182.449 27.5273C182.238 27.5742 182.003 27.5859 181.746 27.5625C181.488 27.5625 181.218 27.5508 180.937 27.5273C180.679 27.5039 180.433 27.5156 180.199 27.5625C180.035 27.3984 179.882 27.2344 179.742 27.0703C179.625 26.9297 179.531 26.7422 179.46 26.5078C179.343 26.5078 179.285 26.4492 179.285 26.332C179.308 26.2148 179.273 26.1562 179.179 26.1562C179.32 25.9219 179.378 25.793 179.355 25.7695C179.355 25.7227 179.32 25.6875 179.25 25.6641C179.203 25.6406 179.156 25.6172 179.109 25.5938C179.062 25.5469 179.05 25.4883 179.074 25.418C179.168 25.2305 179.203 25.0195 179.179 24.7852C179.156 24.5273 179.132 24.2695 179.109 24.0117C179.085 23.7539 179.097 23.5078 179.144 23.2734C179.214 23.0391 179.39 22.8516 179.671 22.7109C180.468 22.8047 181.218 22.7812 181.921 22.6406C182.648 22.4766 183.328 22.2539 183.96 21.9727C184.593 21.6914 185.191 21.3867 185.753 21.0586C186.339 20.7305 186.914 20.4375 187.476 20.1797C187.546 19.9688 187.64 19.793 187.757 19.6523C187.898 19.5117 188.039 19.3828 188.179 19.2656C188.32 19.1484 188.449 19.0195 188.566 18.8789C188.683 18.7383 188.765 18.5625 188.812 18.3516C188.835 18.1875 188.789 18.0938 188.671 18.0703C188.578 18.0234 188.531 17.9297 188.531 17.7891L188.144 17.6836C187.699 17.4258 187.195 17.2148 186.632 17.0508C186.07 16.8633 185.589 16.6641 185.191 16.4531C184.933 16.5938 184.687 16.6289 184.453 16.5586C184.242 16.4883 183.96 16.418 183.609 16.3477C182.812 16.3008 182.039 16.2188 181.289 16.1016C180.562 15.9844 179.859 15.7734 179.179 15.4688C179.132 15.3516 179.074 15.2461 179.003 15.1523C178.933 15.0586 178.804 15.0352 178.617 15.082C178.476 14.8945 178.335 14.7188 178.195 14.5547C178.054 14.3672 177.925 14.168 177.808 13.957C177.855 13.6758 177.89 13.4414 177.914 13.2539C177.937 13.043 177.867 12.8438 177.703 12.6562C177.796 12.3516 177.867 12.1055 177.914 11.918C177.96 11.7305 177.96 11.4844 177.914 11.1797ZM214.1 7.20703C214.123 7.37109 214.123 7.5 214.1 7.59375C214.1 7.66406 214.088 7.73438 214.064 7.80469C214.064 7.875 214.064 7.95703 214.064 8.05078C214.064 8.12109 214.088 8.23828 214.135 8.40234C213.643 9.19922 213.068 9.75 212.412 10.0547C211.779 10.3359 211.088 10.5469 210.338 10.6875C209.588 10.8047 208.814 10.9336 208.018 11.0742C207.244 11.2148 206.471 11.5195 205.697 11.9883C205.393 11.8711 205.111 11.8711 204.853 11.9883C204.619 12.1055 204.268 12.1406 203.799 12.0938C203.658 12.2344 203.482 12.3398 203.271 12.4102C203.06 12.457 202.85 12.5156 202.639 12.5859C202.732 12.7969 202.768 13.0195 202.744 13.2539C202.744 13.4648 202.779 13.6406 202.85 13.7812C203.67 13.8516 204.572 13.8398 205.557 13.7461C206.564 13.6523 207.549 13.5938 208.51 13.5703C208.533 13.6875 208.521 13.7695 208.475 13.8164C208.428 13.8398 208.416 13.8984 208.439 13.9922C208.603 14.1094 208.768 14.2617 208.932 14.4492C209.096 14.6133 209.26 14.7773 209.424 14.9414C209.588 15.1055 209.752 15.2461 209.916 15.3633C210.103 15.457 210.314 15.4922 210.549 15.4688C210.643 15.6562 210.701 15.8672 210.725 16.1016C210.771 16.3125 210.748 16.5352 210.654 16.7695C210.279 17.0273 209.904 17.2969 209.529 17.5781C209.154 17.8359 208.756 18.0703 208.334 18.2812C207.935 18.4922 207.502 18.668 207.033 18.8086C206.588 18.9258 206.084 18.9727 205.521 18.9492C205.404 18.9492 205.31 18.9492 205.24 18.9492C205.193 18.9492 205.123 18.9141 205.029 18.8438C204.842 18.9609 204.572 18.9961 204.221 18.9492C203.893 18.9023 203.635 18.9375 203.447 19.0547C203.189 18.9375 202.873 18.8906 202.498 18.9141C202.146 18.9141 201.83 18.8672 201.549 18.7734C201.174 19.2656 200.834 19.793 200.529 20.3555C200.225 20.918 199.955 21.5156 199.721 22.1484C200.518 22.2656 201.174 22.3125 201.689 22.2891C202.228 22.2656 202.732 22.2305 203.201 22.1836C203.67 22.1133 204.15 22.0547 204.643 22.0078C205.135 21.9375 205.756 21.9141 206.506 21.9375C206.975 21.6797 207.525 21.5156 208.158 21.4453C208.814 21.3516 209.412 21.2109 209.951 21.0234C210.139 21.0938 210.303 21.2227 210.443 21.4102C210.584 21.5742 210.713 21.7383 210.83 21.9023C210.971 22.043 211.111 22.1719 211.252 22.2891C211.393 22.4062 211.568 22.4531 211.779 22.4297C211.873 22.5234 211.932 22.6406 211.955 22.7812C212.002 22.8984 212.037 23.0156 212.06 23.1328C212.084 23.25 212.119 23.3555 212.166 23.4492C212.236 23.5195 212.342 23.543 212.482 23.5195C212.131 24.293 211.721 24.8906 211.252 25.3125C210.807 25.7109 210.291 26.0156 209.705 26.2266C209.119 26.4375 208.463 26.6016 207.736 26.7188C207.033 26.8359 206.248 26.9766 205.381 27.1406C205.17 27.1875 204.994 27.1758 204.853 27.1055C204.713 27.0586 204.549 27.0352 204.361 27.0352C203.822 27.1523 203.178 27.2578 202.428 27.3516C201.678 27.4453 200.916 27.4805 200.143 27.457C199.369 27.4336 198.631 27.3281 197.928 27.1406C197.225 26.9766 196.65 26.6719 196.205 26.2266C196.018 26.0625 195.889 25.875 195.818 25.6641C195.771 25.4297 195.619 25.2539 195.361 25.1367C195.338 24.832 195.291 24.4922 195.221 24.1172C195.15 23.7422 195.08 23.3555 195.01 22.957C194.939 22.5352 194.881 22.125 194.834 21.7266C194.81 21.3281 194.834 20.9648 194.904 20.6367C194.975 20.2852 195.115 19.9688 195.326 19.6875C195.56 19.4062 195.643 19.1016 195.572 18.7734C195.689 18.75 195.76 18.6914 195.783 18.5977C195.807 18.4805 195.9 18.4336 196.064 18.457C196.205 18.0352 196.357 17.6367 196.521 17.2617C196.685 16.8867 196.85 16.5234 197.014 16.1719C197.201 15.8203 197.377 15.4688 197.541 15.1172C197.728 14.7422 197.904 14.332 198.068 13.8867C197.74 13.582 197.494 13.2539 197.33 12.9023C197.189 12.5273 197.084 12.1641 197.014 11.8125C196.943 11.4375 196.885 11.0625 196.838 10.6875C196.791 10.2891 196.709 9.89062 196.592 9.49219C196.826 9.14062 197.107 8.85938 197.435 8.64844C197.787 8.41406 198.162 8.22656 198.56 8.08594C198.959 7.94531 199.393 7.82812 199.861 7.73438C200.33 7.64062 200.822 7.53516 201.338 7.41797C202.275 7.11328 203.107 6.87891 203.834 6.71484C204.584 6.55078 205.31 6.42188 206.014 6.32812C206.74 6.21094 207.49 6.10547 208.264 6.01172C209.037 5.91797 209.916 5.77734 210.9 5.58984C211.111 5.80078 211.31 5.90625 211.498 5.90625C211.592 5.69531 211.697 5.63672 211.814 5.73047C211.955 5.80078 212.014 5.73047 211.99 5.51953C212.225 5.91797 212.518 6.25781 212.869 6.53906C213.244 6.79688 213.654 7.01953 214.1 7.20703ZM232.577 22.8164C232.624 23.0039 232.659 23.1797 232.682 23.3438C232.706 23.5078 232.741 23.6836 232.788 23.8711C232.694 24.1055 232.612 24.3398 232.542 24.5742C232.471 24.7852 232.401 24.9961 232.331 25.207C232.26 25.3711 232.214 25.4766 232.19 25.5234C232.167 25.5703 232.155 25.6055 232.155 25.6289C232.155 25.6523 232.155 25.6875 232.155 25.7344C232.178 25.7578 232.19 25.8516 232.19 26.0156L232.049 26.4375C231.932 26.6016 231.792 26.7305 231.628 26.8242C231.464 26.918 231.299 27 231.135 27.0703C231.089 27.1172 231.018 27.1523 230.924 27.1758C230.831 27.2227 230.76 27.2695 230.714 27.3164L230.608 27.7383L230.151 27.8086C229.753 27.9023 229.413 27.9492 229.132 27.9492H228.71C228.428 27.6914 228.206 27.4922 228.042 27.3516C227.878 27.2109 227.702 27.082 227.514 26.9648C227.28 26.6367 227.151 26.4023 227.128 26.2617C227.104 26.0977 227.069 25.9453 227.022 25.8047C226.975 25.5 226.917 25.3008 226.846 25.207L226.354 24.7148L226.776 24.3984L226.389 23.7305C226.671 23.5195 226.882 23.3672 227.022 23.2734C227.163 23.1797 227.28 23.0859 227.374 22.9922C227.467 22.875 227.573 22.7344 227.69 22.5703C227.807 22.4062 227.995 22.1367 228.253 21.7617L228.569 21.3047L229.026 21.5508C229.12 21.6211 229.319 21.6914 229.624 21.7617C229.952 21.8086 230.233 21.8555 230.467 21.9023C230.866 22.0195 231.241 22.1133 231.592 22.1836C231.944 22.2305 232.225 22.3477 232.436 22.5352L232.577 22.8164ZM241.235 22.8164C241.282 23.0039 241.317 23.1797 241.341 23.3438C241.364 23.5078 241.399 23.6836 241.446 23.8711C241.353 24.1055 241.271 24.3398 241.2 24.5742C241.13 24.7852 241.06 24.9961 240.989 25.207C240.919 25.3711 240.872 25.4766 240.849 25.5234C240.825 25.5703 240.814 25.6055 240.814 25.6289C240.814 25.6523 240.814 25.6875 240.814 25.7344C240.837 25.7578 240.849 25.8516 240.849 26.0156L240.708 26.4375C240.591 26.6016 240.45 26.7305 240.286 26.8242C240.122 26.918 239.958 27 239.794 27.0703C239.747 27.1172 239.677 27.1523 239.583 27.1758C239.489 27.2227 239.419 27.2695 239.372 27.3164L239.267 27.7383L238.81 27.8086C238.411 27.9023 238.071 27.9492 237.79 27.9492H237.368C237.087 27.6914 236.864 27.4922 236.7 27.3516C236.536 27.2109 236.36 27.082 236.173 26.9648C235.939 26.6367 235.81 26.4023 235.786 26.2617C235.763 26.0977 235.728 25.9453 235.681 25.8047C235.634 25.5 235.575 25.3008 235.505 25.207L235.013 24.7148L235.435 24.3984L235.048 23.7305C235.329 23.5195 235.54 23.3672 235.681 23.2734C235.821 23.1797 235.939 23.0859 236.032 22.9922C236.126 22.875 236.231 22.7344 236.349 22.5703C236.466 22.4062 236.653 22.1367 236.911 21.7617L237.228 21.3047L237.685 21.5508C237.778 21.6211 237.978 21.6914 238.282 21.7617C238.61 21.8086 238.892 21.8555 239.126 21.9023C239.524 22.0195 239.899 22.1133 240.251 22.1836C240.603 22.2305 240.884 22.3477 241.095 22.5352L241.235 22.8164ZM249.894 22.8164C249.941 23.0039 249.976 23.1797 249.999 23.3438C250.023 23.5078 250.058 23.6836 250.105 23.8711C250.011 24.1055 249.929 24.3398 249.859 24.5742C249.788 24.7852 249.718 24.9961 249.648 25.207C249.578 25.3711 249.531 25.4766 249.507 25.5234C249.484 25.5703 249.472 25.6055 249.472 25.6289C249.472 25.6523 249.472 25.6875 249.472 25.7344C249.495 25.7578 249.507 25.8516 249.507 26.0156L249.367 26.4375C249.249 26.6016 249.109 26.7305 248.945 26.8242C248.781 26.918 248.617 27 248.453 27.0703C248.406 27.1172 248.335 27.1523 248.242 27.1758C248.148 27.2227 248.078 27.2695 248.031 27.3164L247.925 27.7383L247.468 27.8086C247.07 27.9023 246.73 27.9492 246.449 27.9492H246.027C245.745 27.6914 245.523 27.4922 245.359 27.3516C245.195 27.2109 245.019 27.082 244.831 26.9648C244.597 26.6367 244.468 26.4023 244.445 26.2617C244.421 26.0977 244.386 25.9453 244.339 25.8047C244.292 25.5 244.234 25.3008 244.163 25.207L243.671 24.7148L244.093 24.3984L243.706 23.7305C243.988 23.5195 244.199 23.3672 244.339 23.2734C244.48 23.1797 244.597 23.0859 244.691 22.9922C244.785 22.875 244.89 22.7344 245.007 22.5703C245.124 22.4062 245.312 22.1367 245.57 21.7617L245.886 21.3047L246.343 21.5508C246.437 21.6211 246.636 21.6914 246.941 21.7617C247.269 21.8086 247.55 21.8555 247.785 21.9023C248.183 22.0195 248.558 22.1133 248.91 22.1836C249.261 22.2305 249.542 22.3477 249.753 22.5352L249.894 22.8164Z" fill="black"/>
</svg>
