<svg width="100" xmlns="http://www.w3.org/2000/svg" viewBox="0 0 332.38 107.9"><g data-name="Layer 2"><g data-name="Layer 1"><circle cx="130.74" cy="54.66" r="25.25" fill="#06bf9d"/><path d="M31.74 36.28a21 21 0 0112.65 4.07 6.1 6.1 0 004.9 1.4 6.64 6.64 0 004.45-2.54 6.4 6.4 0 001.34-5 6.49 6.49 0 00-2.54-4.51 32.54 32.54 0 00-20.23-7 32 32 0 00-22.77 9.38A30.12 30.12 0 000 54.47a30.3 30.3 0 009.54 22.45 31.37 31.37 0 0022.77 9.35 34.06 34.06 0 0020.23-6.74 7.38 7.38 0 002.54-4.64A6.19 6.19 0 0053.74 70a6.68 6.68 0 00-4.51-2.54 6 6 0 00-4.84 1.27 21.1 21.1 0 01-12.72 4.07A17.58 17.58 0 0119 67.38a17.53 17.53 0 01.06-25.63 17.64 17.64 0 0112.68-5.47zm63.41-13.61a28.62 28.62 0 00-21.56 9.48 31.71 31.71 0 00-9 22.58 31.63 31.63 0 008.9 22.51 28.8 28.8 0 0021.76 9.41A26.93 26.93 0 00116.52 77q8.9-8.65 8.9-21.88a32.57 32.57 0 00-8.84-22.84 28.07 28.07 0 00-21.43-9.61zM107 68.08a17.54 17.54 0 01-23.92 0 20.6 20.6 0 01-4.59-13.48 19.62 19.62 0 014.57-13.23 17.2 17.2 0 0123.92 0 18.69 18.69 0 015 13.23A19.6 19.6 0 01107 68.08zm58.11-45.41a28.63 28.63 0 00-21.56 9.48 31.71 31.71 0 00-9 22.58 31.6 31.6 0 008.91 22.51 28.76 28.76 0 0021.75 9.41A26.92 26.92 0 00186.48 77q8.91-8.65 8.91-21.88a32.62 32.62 0 00-8.84-22.84 28.09 28.09 0 00-21.44-9.61zm11.83 45.41a17.53 17.53 0 01-23.91 0 20.56 20.56 0 01-4.58-13.48A19.58 19.58 0 01153 41.37a17.18 17.18 0 0123.91 0 18.69 18.69 0 015 13.23 19.6 19.6 0 01-4.97 13.48zm60.49-45.41a28.19 28.19 0 00-16.67 5.2V6.93a6.93 6.93 0 10-13.86 0v49.34a7.49 7.49 0 00.1 1.17 31.41 31.41 0 008.8 19.8 28.79 28.79 0 0021.75 9.41A26.94 26.94 0 00258.8 77q8.9-8.65 8.9-21.88a32.62 32.62 0 00-8.84-22.84 28.07 28.07 0 00-21.43-9.61zm11.83 45.41a17.54 17.54 0 01-23.92 0 20.61 20.61 0 01-4.58-13.48 19.63 19.63 0 014.58-13.23 17.2 17.2 0 0123.92 0 18.73 18.73 0 015 13.23 19.64 19.64 0 01-5 13.48zm81.09-43.44a6.73 6.73 0 00-4.83-2 6.4 6.4 0 00-4.71 1.91 6.55 6.55 0 00-1.91 4.83v30a12.4 12.4 0 01-3.82 9.22 12.71 12.71 0 01-9.28 3.76 12.92 12.92 0 01-9.35-3.76 12.3 12.3 0 01-3.88-9.22v-30a6.55 6.55 0 00-1.91-4.83 6.4 6.4 0 00-4.66-1.88 6.73 6.73 0 00-6.74 6.74v30A25.79 25.79 0 00287 78.26a25.45 25.45 0 0018.76 7.88 23.86 23.86 0 0012.08-3A15.8 15.8 0 01312 91.3a15.34 15.34 0 01-9 3.3 16.33 16.33 0 01-7.63-1.46 7.46 7.46 0 00-5.79-.64 6.84 6.84 0 00-4 3.18 7.12 7.12 0 00-.25 5.28 6.12 6.12 0 003.56 3.76A29 29 0 00302 107.9a30.18 30.18 0 0030.4-30.4V29.41a6.43 6.43 0 00-2.05-4.77z" fill="#333132"/></g></g></svg>