<svg width="455" height="304" viewBox="0 0 455 304" fill="none" xmlns="http://www.w3.org/2000/svg">
<g filter="url(#filter0_d)">
<rect x="63.5" y="40.5" width="326" height="83" rx="15.5" fill="white"/>
<rect x="63.5" y="40.5" width="326" height="83" rx="15.5" fill="white" stroke="#F5F5F5"/>
<path d="M342.62 75H341.588V69.012C341.588 68.668 341.592 68.392 341.6 68.184C341.608 67.976 341.62 67.76 341.636 67.536C341.508 67.664 341.392 67.772 341.288 67.86C341.184 67.948 341.052 68.06 340.892 68.196L339.98 68.94L339.428 68.232L341.744 66.432H342.62V75ZM346.128 71.34C346.128 70.724 346.18 70.12 346.284 69.528C346.396 68.928 346.592 68.388 346.872 67.908C347.16 67.42 347.56 67.032 348.072 66.744C348.584 66.456 349.244 66.312 350.052 66.312C350.22 66.312 350.404 66.32 350.604 66.336C350.812 66.352 350.98 66.38 351.108 66.42V67.32C350.964 67.272 350.8 67.236 350.616 67.212C350.44 67.188 350.26 67.176 350.076 67.176C349.524 67.176 349.064 67.268 348.696 67.452C348.328 67.636 348.036 67.888 347.82 68.208C347.612 68.528 347.46 68.896 347.364 69.312C347.268 69.728 347.208 70.172 347.184 70.644H347.256C347.44 70.364 347.696 70.128 348.024 69.936C348.352 69.736 348.772 69.636 349.284 69.636C350.028 69.636 350.628 69.864 351.084 70.32C351.54 70.768 351.768 71.408 351.768 72.24C351.768 73.136 351.52 73.84 351.024 74.352C350.536 74.864 349.876 75.12 349.044 75.12C348.5 75.12 348.008 74.984 347.568 74.712C347.128 74.44 346.776 74.024 346.512 73.464C346.256 72.904 346.128 72.196 346.128 71.34ZM349.032 74.232C349.536 74.232 349.944 74.072 350.256 73.752C350.568 73.424 350.724 72.92 350.724 72.24C350.724 71.696 350.584 71.264 350.304 70.944C350.032 70.624 349.62 70.464 349.068 70.464C348.692 70.464 348.364 70.544 348.084 70.704C347.804 70.856 347.584 71.052 347.424 71.292C347.272 71.532 347.196 71.78 347.196 72.036C347.196 72.38 347.264 72.724 347.4 73.068C347.536 73.404 347.74 73.684 348.012 73.908C348.284 74.124 348.624 74.232 349.032 74.232ZM353.439 69.216C353.439 68.912 353.511 68.7 353.655 68.58C353.799 68.46 353.971 68.4 354.171 68.4C354.379 68.4 354.555 68.46 354.699 68.58C354.851 68.7 354.927 68.912 354.927 69.216C354.927 69.504 354.851 69.712 354.699 69.84C354.555 69.968 354.379 70.032 354.171 70.032C353.971 70.032 353.799 69.968 353.655 69.84C353.511 69.712 353.439 69.504 353.439 69.216ZM353.439 74.352C353.439 74.056 353.511 73.848 353.655 73.728C353.799 73.608 353.971 73.548 354.171 73.548C354.379 73.548 354.555 73.608 354.699 73.728C354.851 73.848 354.927 74.056 354.927 74.352C354.927 74.64 354.851 74.848 354.699 74.976C354.555 75.104 354.379 75.168 354.171 75.168C353.971 75.168 353.799 75.104 353.655 74.976C353.511 74.848 353.439 74.64 353.439 74.352ZM362.266 75H356.602V74.124L358.846 71.856C359.278 71.424 359.642 71.04 359.938 70.704C360.234 70.368 360.458 70.04 360.61 69.72C360.762 69.392 360.838 69.036 360.838 68.652C360.838 68.18 360.698 67.824 360.418 67.584C360.138 67.336 359.774 67.212 359.326 67.212C358.91 67.212 358.542 67.284 358.222 67.428C357.91 67.572 357.59 67.772 357.262 68.028L356.698 67.32C357.034 67.04 357.418 66.804 357.85 66.612C358.29 66.412 358.782 66.312 359.326 66.312C360.126 66.312 360.758 66.516 361.222 66.924C361.686 67.324 361.918 67.88 361.918 68.592C361.918 69.04 361.826 69.46 361.642 69.852C361.458 70.244 361.202 70.632 360.874 71.016C360.546 71.392 360.162 71.796 359.722 72.228L357.934 73.992V74.04H362.266V75ZM369.049 68.436C369.049 69.012 368.889 69.472 368.569 69.816C368.249 70.152 367.817 70.376 367.273 70.488V70.536C367.961 70.616 368.473 70.832 368.809 71.184C369.145 71.536 369.313 71.996 369.313 72.564C369.313 73.06 369.197 73.504 368.965 73.896C368.733 74.28 368.373 74.58 367.885 74.796C367.405 75.012 366.785 75.12 366.025 75.12C365.577 75.12 365.161 75.084 364.777 75.012C364.393 74.948 364.025 74.828 363.673 74.652V73.668C364.033 73.844 364.421 73.984 364.837 74.088C365.253 74.184 365.653 74.232 366.037 74.232C366.805 74.232 367.357 74.084 367.693 73.788C368.037 73.484 368.209 73.068 368.209 72.54C368.209 72.004 367.997 71.62 367.573 71.388C367.157 71.148 366.569 71.028 365.809 71.028H364.981V70.128H365.821C366.525 70.128 367.057 69.98 367.417 69.684C367.785 69.388 367.969 68.996 367.969 68.508C367.969 68.092 367.829 67.772 367.549 67.548C367.269 67.316 366.889 67.2 366.409 67.2C365.945 67.2 365.549 67.268 365.221 67.404C364.893 67.54 364.569 67.712 364.249 67.92L363.721 67.2C364.025 66.96 364.401 66.752 364.849 66.576C365.305 66.4 365.821 66.312 366.397 66.312C367.293 66.312 367.957 66.512 368.389 66.912C368.829 67.312 369.049 67.82 369.049 68.436Z" fill="#5D04D9"/>
<path d="M126.2 76.5H123.656L118.248 67.54H118.184C118.216 68.02 118.243 68.5373 118.264 69.092C118.296 69.636 118.317 70.1853 118.328 70.74V76.5H116.488V65.076H119.016L124.408 73.972H124.456C124.435 73.5453 124.413 73.0547 124.392 72.5C124.371 71.9453 124.355 71.4067 124.344 70.884V65.076H126.2V76.5ZM136.727 72.148C136.727 73.588 136.354 74.7027 135.608 75.492C134.861 76.2707 133.848 76.66 132.568 76.66C131.778 76.66 131.074 76.484 130.456 76.132C129.837 75.78 129.352 75.268 129 74.596C128.648 73.924 128.472 73.108 128.472 72.148C128.472 70.708 128.84 69.604 129.576 68.836C130.322 68.0573 131.336 67.668 132.616 67.668C133.416 67.668 134.125 67.844 134.744 68.196C135.362 68.5373 135.848 69.044 136.2 69.716C136.552 70.3773 136.727 71.188 136.727 72.148ZM130.536 72.148C130.536 73.0653 130.696 73.7747 131.016 74.276C131.346 74.7773 131.874 75.028 132.6 75.028C133.325 75.028 133.848 74.7773 134.168 74.276C134.498 73.7747 134.664 73.0653 134.664 72.148C134.664 71.2307 134.498 70.5267 134.168 70.036C133.848 69.5453 133.32 69.3 132.584 69.3C131.869 69.3 131.346 69.5453 131.016 70.036C130.696 70.5267 130.536 71.2307 130.536 72.148ZM142.172 75.044C142.417 75.044 142.657 75.0227 142.892 74.98C143.137 74.9267 143.361 74.868 143.564 74.804V76.308C143.35 76.404 143.073 76.484 142.732 76.548C142.39 76.6227 142.033 76.66 141.66 76.66C141.169 76.66 140.721 76.58 140.316 76.42C139.91 76.2493 139.59 75.9613 139.356 75.556C139.121 75.1507 139.004 74.5853 139.004 73.86V69.348H137.836V68.468L139.116 67.764L139.756 65.924H141.02V67.828H143.484V69.348H141.02V73.844C141.02 74.2493 141.126 74.5533 141.34 74.756C141.553 74.948 141.83 75.044 142.172 75.044ZM148.8 67.668C149.962 67.668 150.88 68.0147 151.552 68.708C152.234 69.4013 152.576 70.3667 152.576 71.604V72.628H146.848C146.869 73.4173 147.088 74.0307 147.504 74.468C147.92 74.8947 148.496 75.108 149.232 75.108C149.786 75.108 150.288 75.0547 150.736 74.948C151.184 74.8307 151.642 74.6653 152.112 74.452V76.068C151.685 76.2707 151.242 76.42 150.784 76.516C150.325 76.612 149.776 76.66 149.136 76.66C148.293 76.66 147.541 76.5 146.88 76.18C146.229 75.8493 145.717 75.3533 145.344 74.692C144.981 74.0307 144.8 73.2093 144.8 72.228C144.8 70.7453 145.168 69.6147 145.904 68.836C146.64 68.0573 147.605 67.668 148.8 67.668ZM148.8 69.156C148.256 69.156 147.813 69.332 147.472 69.684C147.141 70.0253 146.949 70.5373 146.896 71.22H150.624C150.613 70.6227 150.458 70.132 150.16 69.748C149.872 69.3533 149.418 69.156 148.8 69.156Z" fill="black"/>
<path d="M119.13 91.004C120.437 91.004 121.389 91.27 121.986 91.802C122.583 92.3247 122.882 93.0573 122.882 94C122.882 94.56 122.756 95.0827 122.504 95.568C122.261 96.0533 121.851 96.45 121.272 96.758C120.693 97.0567 119.909 97.206 118.92 97.206H117.842V101H116.33V91.004H119.13ZM119.018 92.278H117.842V95.932H118.752C119.601 95.932 120.241 95.7873 120.67 95.498C121.109 95.2087 121.328 94.728 121.328 94.056C121.328 93.4587 121.141 93.0153 120.768 92.726C120.395 92.4273 119.811 92.278 119.018 92.278ZM126.498 101H125.014V90.36H126.498V101ZM132.035 93.314C132.977 93.314 133.682 93.524 134.149 93.944C134.625 94.3547 134.863 95.0033 134.863 95.89V101H133.813L133.519 99.95H133.463C133.136 100.361 132.791 100.664 132.427 100.86C132.072 101.047 131.577 101.14 130.943 101.14C130.261 101.14 129.697 100.958 129.249 100.594C128.801 100.221 128.577 99.642 128.577 98.858C128.577 98.0927 128.866 97.5093 129.445 97.108C130.023 96.7067 130.915 96.4873 132.119 96.45L133.407 96.408V95.988C133.407 95.4373 133.281 95.05 133.029 94.826C132.777 94.5927 132.422 94.476 131.965 94.476C131.582 94.476 131.213 94.532 130.859 94.644C130.504 94.756 130.163 94.8913 129.837 95.05L129.361 93.972C129.715 93.7853 130.121 93.6313 130.579 93.51C131.045 93.3793 131.531 93.314 132.035 93.314ZM132.385 97.402C131.526 97.4393 130.929 97.584 130.593 97.836C130.266 98.0787 130.103 98.424 130.103 98.872C130.103 99.264 130.219 99.5487 130.453 99.726C130.686 99.9033 130.989 99.992 131.363 99.992C131.941 99.992 132.422 99.8287 132.805 99.502C133.197 99.1753 133.393 98.6853 133.393 98.032V97.374L132.385 97.402ZM141.25 93.314C142.127 93.314 142.799 93.5333 143.266 93.972C143.732 94.4107 143.966 95.1153 143.966 96.086V101H142.496V96.296C142.496 95.12 141.978 94.532 140.942 94.532C140.167 94.532 139.635 94.7607 139.346 95.218C139.056 95.6753 138.912 96.3333 138.912 97.192V101H137.428V93.454H138.604L138.814 94.462H138.898C139.14 94.07 139.472 93.7807 139.892 93.594C140.321 93.4073 140.774 93.314 141.25 93.314ZM151.538 98.872C151.538 99.6093 151.267 100.174 150.726 100.566C150.185 100.949 149.433 101.14 148.472 101.14C147.94 101.14 147.483 101.098 147.1 101.014C146.727 100.939 146.381 100.827 146.064 100.678V99.376C146.391 99.5347 146.773 99.6793 147.212 99.81C147.66 99.9313 148.094 99.992 148.514 99.992C149.074 99.992 149.475 99.9033 149.718 99.726C149.97 99.5487 150.096 99.3107 150.096 99.012C150.096 98.844 150.049 98.6947 149.956 98.564C149.863 98.424 149.685 98.284 149.424 98.144C149.172 97.9947 148.799 97.8267 148.304 97.64C147.819 97.444 147.408 97.2527 147.072 97.066C146.745 96.87 146.493 96.6413 146.316 96.38C146.139 96.1093 146.05 95.764 146.05 95.344C146.05 94.6907 146.311 94.1913 146.834 93.846C147.366 93.4913 148.066 93.314 148.934 93.314C149.391 93.314 149.821 93.3607 150.222 93.454C150.633 93.5473 151.029 93.678 151.412 93.846L150.922 94.98C150.595 94.84 150.259 94.7233 149.914 94.63C149.569 94.5273 149.219 94.476 148.864 94.476C148.416 94.476 148.075 94.546 147.842 94.686C147.609 94.826 147.492 95.022 147.492 95.274C147.492 95.4513 147.548 95.6053 147.66 95.736C147.772 95.8667 147.959 95.9973 148.22 96.128C148.491 96.2587 148.859 96.4173 149.326 96.604C149.793 96.7813 150.189 96.9633 150.516 97.15C150.852 97.3367 151.104 97.5653 151.272 97.836C151.449 98.1067 151.538 98.452 151.538 98.872ZM160.22 99.936C160.416 99.936 160.617 99.922 160.822 99.894C161.027 99.8567 161.205 99.81 161.354 99.754V100.874C161.186 100.949 160.967 101.009 160.696 101.056C160.435 101.112 160.169 101.14 159.898 101.14C159.487 101.14 159.109 101.07 158.764 100.93C158.419 100.79 158.143 100.547 157.938 100.202C157.742 99.8567 157.644 99.376 157.644 98.76V94.588H156.594V93.916L157.7 93.356L158.218 91.76H159.128V93.454H161.284V94.588H159.128V98.732C159.128 99.1427 159.226 99.446 159.422 99.642C159.627 99.838 159.893 99.936 160.22 99.936ZM169.793 97.22C169.793 98.4707 169.471 99.4367 168.827 100.118C168.183 100.799 167.315 101.14 166.223 101.14C165.542 101.14 164.935 100.986 164.403 100.678C163.881 100.37 163.465 99.9267 163.157 99.348C162.859 98.76 162.709 98.0507 162.709 97.22C162.709 95.9693 163.027 95.008 163.661 94.336C164.296 93.6547 165.164 93.314 166.265 93.314C166.956 93.314 167.563 93.468 168.085 93.776C168.617 94.0747 169.033 94.5133 169.331 95.092C169.639 95.6707 169.793 96.38 169.793 97.22ZM164.235 97.22C164.235 98.0693 164.394 98.732 164.711 99.208C165.038 99.684 165.551 99.922 166.251 99.922C166.951 99.922 167.46 99.684 167.777 99.208C168.104 98.732 168.267 98.0693 168.267 97.22C168.267 96.3613 168.104 95.7033 167.777 95.246C167.451 94.7793 166.937 94.546 166.237 94.546C165.537 94.546 165.029 94.7793 164.711 95.246C164.394 95.7033 164.235 96.3613 164.235 97.22ZM178.909 101.14C177.864 101.14 177.024 100.832 176.389 100.216C175.755 99.5907 175.437 98.6107 175.437 97.276C175.437 96.3427 175.591 95.5867 175.899 95.008C176.207 94.4293 176.632 94.0047 177.173 93.734C177.715 93.454 178.331 93.314 179.021 93.314C179.441 93.314 179.833 93.3607 180.197 93.454C180.571 93.538 180.879 93.636 181.121 93.748L180.673 94.952C180.412 94.8493 180.132 94.7607 179.833 94.686C179.544 94.6113 179.269 94.574 179.007 94.574C177.645 94.574 176.963 95.47 176.963 97.262C176.963 98.1207 177.131 98.774 177.467 99.222C177.803 99.67 178.298 99.894 178.951 99.894C179.371 99.894 179.74 99.8473 180.057 99.754C180.384 99.6607 180.683 99.5393 180.953 99.39V100.678C180.683 100.837 180.389 100.953 180.071 101.028C179.754 101.103 179.367 101.14 178.909 101.14ZM185.983 93.314C186.972 93.314 187.751 93.622 188.321 94.238C188.89 94.8447 189.175 95.6753 189.175 96.73V97.542H184.107C184.125 98.3167 184.326 98.9093 184.709 99.32C185.101 99.7307 185.647 99.936 186.347 99.936C186.832 99.936 187.261 99.894 187.635 99.81C188.017 99.7167 188.409 99.5813 188.811 99.404V100.636C188.428 100.804 188.045 100.93 187.663 101.014C187.28 101.098 186.823 101.14 186.291 101.14C185.553 101.14 184.905 100.995 184.345 100.706C183.794 100.417 183.36 99.9873 183.043 99.418C182.735 98.8393 182.581 98.13 182.581 97.29C182.581 96.4407 182.721 95.722 183.001 95.134C183.29 94.546 183.687 94.098 184.191 93.79C184.704 93.4727 185.301 93.314 185.983 93.314ZM185.983 94.462C185.451 94.462 185.021 94.6347 184.695 94.98C184.377 95.3253 184.191 95.8153 184.135 96.45H187.691C187.681 95.862 187.537 95.386 187.257 95.022C186.986 94.6487 186.561 94.462 185.983 94.462ZM192.79 101H191.306V90.36H192.79V101ZM198.369 93.314C199.358 93.314 200.138 93.622 200.707 94.238C201.276 94.8447 201.561 95.6753 201.561 96.73V97.542H196.493C196.512 98.3167 196.712 98.9093 197.095 99.32C197.487 99.7307 198.033 99.936 198.733 99.936C199.218 99.936 199.648 99.894 200.021 99.81C200.404 99.7167 200.796 99.5813 201.197 99.404V100.636C200.814 100.804 200.432 100.93 200.049 101.014C199.666 101.098 199.209 101.14 198.677 101.14C197.94 101.14 197.291 100.995 196.731 100.706C196.18 100.417 195.746 99.9873 195.429 99.418C195.121 98.8393 194.967 98.13 194.967 97.29C194.967 96.4407 195.107 95.722 195.387 95.134C195.676 94.546 196.073 94.098 196.577 93.79C197.09 93.4727 197.688 93.314 198.369 93.314ZM198.369 94.462C197.837 94.462 197.408 94.6347 197.081 94.98C196.764 95.3253 196.577 95.8153 196.521 96.45H200.077C200.068 95.862 199.923 95.386 199.643 95.022C199.372 94.6487 198.948 94.462 198.369 94.462ZM205.177 92.922C205.177 93.23 205.167 93.524 205.149 93.804C205.13 94.084 205.116 94.2987 205.107 94.448H205.177C205.382 94.1307 205.667 93.8647 206.031 93.65C206.404 93.4353 206.88 93.328 207.459 93.328C208.364 93.328 209.092 93.6547 209.643 94.308C210.203 94.9613 210.483 95.932 210.483 97.22C210.483 98.5173 210.203 99.4973 209.643 100.16C209.083 100.813 208.35 101.14 207.445 101.14C206.857 101.14 206.381 101.037 206.017 100.832C205.662 100.617 205.382 100.365 205.177 100.076H205.065L204.785 101H203.693V90.36H205.177V92.922ZM207.109 94.532C206.381 94.532 205.877 94.7467 205.597 95.176C205.317 95.596 205.177 96.2447 205.177 97.122V97.234C205.177 98.102 205.312 98.7693 205.583 99.236C205.863 99.6933 206.381 99.922 207.137 99.922C207.734 99.922 208.187 99.6887 208.495 99.222C208.803 98.7553 208.957 98.0833 208.957 97.206C208.957 95.4233 208.341 94.532 207.109 94.532ZM216.378 93.314C216.509 93.314 216.649 93.3233 216.798 93.342C216.957 93.3513 217.092 93.3653 217.204 93.384L217.05 94.77C216.808 94.7047 216.556 94.672 216.294 94.672C215.921 94.672 215.566 94.7653 215.23 94.952C214.904 95.1387 214.638 95.4093 214.432 95.764C214.236 96.1093 214.138 96.5293 214.138 97.024V101H212.654V93.454H213.83L214.026 94.798H214.082C214.325 94.3967 214.638 94.0513 215.02 93.762C215.403 93.4633 215.856 93.314 216.378 93.314ZM221.534 93.314C222.477 93.314 223.181 93.524 223.648 93.944C224.124 94.3547 224.362 95.0033 224.362 95.89V101H223.312L223.018 99.95H222.962C222.635 100.361 222.29 100.664 221.926 100.86C221.571 101.047 221.077 101.14 220.442 101.14C219.761 101.14 219.196 100.958 218.748 100.594C218.3 100.221 218.076 99.642 218.076 98.858C218.076 98.0927 218.365 97.5093 218.944 97.108C219.523 96.7067 220.414 96.4873 221.618 96.45L222.906 96.408V95.988C222.906 95.4373 222.78 95.05 222.528 94.826C222.276 94.5927 221.921 94.476 221.464 94.476C221.081 94.476 220.713 94.532 220.358 94.644C220.003 94.756 219.663 94.8913 219.336 95.05L218.86 93.972C219.215 93.7853 219.621 93.6313 220.078 93.51C220.545 93.3793 221.03 93.314 221.534 93.314ZM221.884 97.402C221.025 97.4393 220.428 97.584 220.092 97.836C219.765 98.0787 219.602 98.424 219.602 98.872C219.602 99.264 219.719 99.5487 219.952 99.726C220.185 99.9033 220.489 99.992 220.862 99.992C221.441 99.992 221.921 99.8287 222.304 99.502C222.696 99.1753 222.892 98.6853 222.892 98.032V97.374L221.884 97.402ZM229.643 99.936C229.839 99.936 230.04 99.922 230.245 99.894C230.45 99.8567 230.628 99.81 230.777 99.754V100.874C230.609 100.949 230.39 101.009 230.119 101.056C229.858 101.112 229.592 101.14 229.321 101.14C228.91 101.14 228.532 101.07 228.187 100.93C227.842 100.79 227.566 100.547 227.361 100.202C227.165 99.8567 227.067 99.376 227.067 98.76V94.588H226.017V93.916L227.123 93.356L227.641 91.76H228.551V93.454H230.707V94.588H228.551V98.732C228.551 99.1427 228.649 99.446 228.845 99.642C229.05 99.838 229.316 99.936 229.643 99.936ZM235.535 93.314C236.524 93.314 237.303 93.622 237.873 94.238C238.442 94.8447 238.727 95.6753 238.727 96.73V97.542H233.659C233.677 98.3167 233.878 98.9093 234.261 99.32C234.653 99.7307 235.199 99.936 235.899 99.936C236.384 99.936 236.813 99.894 237.187 99.81C237.569 99.7167 237.961 99.5813 238.363 99.404V100.636C237.98 100.804 237.597 100.93 237.215 101.014C236.832 101.098 236.375 101.14 235.843 101.14C235.105 101.14 234.457 100.995 233.897 100.706C233.346 100.417 232.912 99.9873 232.595 99.418C232.287 98.8393 232.133 98.13 232.133 97.29C232.133 96.4407 232.273 95.722 232.553 95.134C232.842 94.546 233.239 94.098 233.743 93.79C234.256 93.4727 234.853 93.314 235.535 93.314ZM235.535 94.462C235.003 94.462 234.573 94.6347 234.247 94.98C233.929 95.3253 233.743 95.8153 233.687 96.45H237.243C237.233 95.862 237.089 95.386 236.809 95.022C236.538 94.6487 236.113 94.462 235.535 94.462ZM244.565 100.174C244.565 99.81 244.654 99.5533 244.831 99.404C245.018 99.2547 245.246 99.18 245.517 99.18C245.778 99.18 246.002 99.2547 246.189 99.404C246.385 99.5533 246.483 99.81 246.483 100.174C246.483 100.538 246.385 100.799 246.189 100.958C246.002 101.117 245.778 101.196 245.517 101.196C245.246 101.196 245.018 101.117 244.831 100.958C244.654 100.799 244.565 100.538 244.565 100.174ZM248.673 100.174C248.673 99.81 248.762 99.5533 248.939 99.404C249.126 99.2547 249.354 99.18 249.625 99.18C249.886 99.18 250.11 99.2547 250.297 99.404C250.493 99.5533 250.591 99.81 250.591 100.174C250.591 100.538 250.493 100.799 250.297 100.958C250.11 101.117 249.886 101.196 249.625 101.196C249.354 101.196 249.126 101.117 248.939 100.958C248.762 100.799 248.673 100.538 248.673 100.174ZM252.781 100.174C252.781 99.81 252.87 99.5533 253.047 99.404C253.234 99.2547 253.463 99.18 253.733 99.18C253.995 99.18 254.219 99.2547 254.405 99.404C254.601 99.5533 254.699 99.81 254.699 100.174C254.699 100.538 254.601 100.799 254.405 100.958C254.219 101.117 253.995 101.196 253.733 101.196C253.463 101.196 253.234 101.117 253.047 100.958C252.87 100.799 252.781 100.538 252.781 100.174Z" fill="#636466"/>
<path d="M285.819 103.744C285.576 103.744 285.366 103.725 285.189 103.688C285.002 103.66 284.844 103.618 284.713 103.562V102.302C284.862 102.339 285.021 102.372 285.189 102.4C285.357 102.428 285.534 102.442 285.721 102.442C285.954 102.442 286.174 102.395 286.379 102.302C286.584 102.209 286.748 102.041 286.869 101.798C287 101.555 287.065 101.215 287.065 100.776V91.004H288.577V100.706C288.577 101.761 288.32 102.531 287.807 103.016C287.303 103.501 286.64 103.744 285.819 103.744ZM294.22 93.314C295.162 93.314 295.867 93.524 296.334 93.944C296.81 94.3547 297.048 95.0033 297.048 95.89V101H295.998L295.704 99.95H295.648C295.321 100.361 294.976 100.664 294.612 100.86C294.257 101.047 293.762 101.14 293.128 101.14C292.446 101.14 291.882 100.958 291.434 100.594C290.986 100.221 290.762 99.642 290.762 98.858C290.762 98.0927 291.051 97.5093 291.63 97.108C292.208 96.7067 293.1 96.4873 294.304 96.45L295.592 96.408V95.988C295.592 95.4373 295.466 95.05 295.214 94.826C294.962 94.5927 294.607 94.476 294.15 94.476C293.767 94.476 293.398 94.532 293.044 94.644C292.689 94.756 292.348 94.8913 292.022 95.05L291.546 93.972C291.9 93.7853 292.306 93.6313 292.764 93.51C293.23 93.3793 293.716 93.314 294.22 93.314ZM294.57 97.402C293.711 97.4393 293.114 97.584 292.778 97.836C292.451 98.0787 292.288 98.424 292.288 98.872C292.288 99.264 292.404 99.5487 292.638 99.726C292.871 99.9033 293.174 99.992 293.548 99.992C294.126 99.992 294.607 99.8287 294.99 99.502C295.382 99.1753 295.578 98.6853 295.578 98.032V97.374L294.57 97.402ZM303.435 93.314C304.312 93.314 304.984 93.5333 305.451 93.972C305.917 94.4107 306.151 95.1153 306.151 96.086V101H304.681V96.296C304.681 95.12 304.163 94.532 303.127 94.532C302.352 94.532 301.82 94.7607 301.531 95.218C301.241 95.6753 301.097 96.3333 301.097 97.192V101H299.613V93.454H300.789L300.999 94.462H301.083C301.325 94.07 301.657 93.7807 302.077 93.594C302.506 93.4073 302.959 93.314 303.435 93.314ZM311.679 93.314C312.668 93.314 313.448 93.622 314.017 94.238C314.586 94.8447 314.871 95.6753 314.871 96.73V97.542H309.803C309.822 98.3167 310.022 98.9093 310.405 99.32C310.797 99.7307 311.343 99.936 312.043 99.936C312.528 99.936 312.958 99.894 313.331 99.81C313.714 99.7167 314.106 99.5813 314.507 99.404V100.636C314.124 100.804 313.742 100.93 313.359 101.014C312.976 101.098 312.519 101.14 311.987 101.14C311.25 101.14 310.601 100.995 310.041 100.706C309.49 100.417 309.056 99.9873 308.739 99.418C308.431 98.8393 308.277 98.13 308.277 97.29C308.277 96.4407 308.417 95.722 308.697 95.134C308.986 94.546 309.383 94.098 309.887 93.79C310.4 93.4727 310.998 93.314 311.679 93.314ZM311.679 94.462C311.147 94.462 310.718 94.6347 310.391 94.98C310.074 95.3253 309.887 95.8153 309.831 96.45H313.387C313.378 95.862 313.233 95.386 312.953 95.022C312.682 94.6487 312.258 94.462 311.679 94.462ZM325.357 92.166C324.359 92.166 323.579 92.5113 323.019 93.202C322.459 93.8833 322.179 94.8213 322.179 96.016C322.179 97.2013 322.441 98.1347 322.963 98.816C323.486 99.4973 324.28 99.838 325.343 99.838C325.773 99.838 326.183 99.8007 326.575 99.726C326.977 99.642 327.383 99.5347 327.793 99.404V100.706C327.401 100.855 327 100.963 326.59 101.028C326.188 101.103 325.712 101.14 325.161 101.14C324.135 101.14 323.285 100.93 322.613 100.51C321.941 100.081 321.437 99.4833 321.101 98.718C320.765 97.9433 320.597 97.038 320.597 96.002C320.597 94.994 320.779 94.1027 321.143 93.328C321.517 92.5533 322.058 91.9513 322.767 91.522C323.477 91.0833 324.345 90.864 325.372 90.864C325.875 90.864 326.366 90.92 326.842 91.032C327.327 91.1347 327.77 91.284 328.171 91.48L327.612 92.74C327.285 92.5907 326.93 92.46 326.547 92.348C326.174 92.2267 325.777 92.166 325.357 92.166ZM336.709 97.22C336.709 98.4707 336.387 99.4367 335.743 100.118C335.099 100.799 334.231 101.14 333.139 101.14C332.458 101.14 331.851 100.986 331.319 100.678C330.796 100.37 330.381 99.9267 330.073 99.348C329.774 98.76 329.625 98.0507 329.625 97.22C329.625 95.9693 329.942 95.008 330.577 94.336C331.212 93.6547 332.08 93.314 333.181 93.314C333.872 93.314 334.478 93.468 335.001 93.776C335.533 94.0747 335.948 94.5133 336.247 95.092C336.555 95.6707 336.709 96.38 336.709 97.22ZM331.151 97.22C331.151 98.0693 331.31 98.732 331.627 99.208C331.954 99.684 332.467 99.922 333.167 99.922C333.867 99.922 334.376 99.684 334.693 99.208C335.02 98.732 335.183 98.0693 335.183 97.22C335.183 96.3613 335.02 95.7033 334.693 95.246C334.366 94.7793 333.853 94.546 333.153 94.546C332.453 94.546 331.944 94.7793 331.627 95.246C331.31 95.7033 331.151 96.3613 331.151 97.22ZM345.52 97.22C345.52 98.4707 345.198 99.4367 344.554 100.118C343.91 100.799 343.042 101.14 341.95 101.14C341.269 101.14 340.662 100.986 340.13 100.678C339.607 100.37 339.192 99.9267 338.884 99.348C338.585 98.76 338.436 98.0507 338.436 97.22C338.436 95.9693 338.753 95.008 339.388 94.336C340.023 93.6547 340.891 93.314 341.992 93.314C342.683 93.314 343.289 93.468 343.812 93.776C344.344 94.0747 344.759 94.5133 345.058 95.092C345.366 95.6707 345.52 96.38 345.52 97.22ZM339.962 97.22C339.962 98.0693 340.121 98.732 340.438 99.208C340.765 99.684 341.278 99.922 341.978 99.922C342.678 99.922 343.187 99.684 343.504 99.208C343.831 98.732 343.994 98.0693 343.994 97.22C343.994 96.3613 343.831 95.7033 343.504 95.246C343.177 94.7793 342.664 94.546 341.964 94.546C341.264 94.546 340.755 94.7793 340.438 95.246C340.121 95.7033 339.962 96.3613 339.962 97.22ZM351.447 93.314C352.353 93.314 353.081 93.6407 353.631 94.294C354.191 94.9473 354.471 95.9227 354.471 97.22C354.471 98.4987 354.191 99.474 353.631 100.146C353.071 100.809 352.339 101.14 351.433 101.14C350.855 101.14 350.383 101.037 350.019 100.832C349.665 100.617 349.38 100.365 349.165 100.076H349.067C349.095 100.244 349.119 100.445 349.137 100.678C349.156 100.902 349.165 101.103 349.165 101.28V104.36H347.681V93.454H348.885L349.095 94.462H349.165C349.38 94.1447 349.665 93.874 350.019 93.65C350.383 93.426 350.859 93.314 351.447 93.314ZM351.097 94.532C350.397 94.532 349.903 94.7373 349.613 95.148C349.324 95.5493 349.175 96.1607 349.165 96.982V97.206C349.165 98.074 349.305 98.746 349.585 99.222C349.865 99.6887 350.379 99.922 351.125 99.922C351.741 99.922 352.199 99.67 352.497 99.166C352.796 98.662 352.945 98.004 352.945 97.192C352.945 96.3707 352.796 95.722 352.497 95.246C352.199 94.77 351.732 94.532 351.097 94.532ZM359.611 93.314C360.6 93.314 361.38 93.622 361.949 94.238C362.518 94.8447 362.803 95.6753 362.803 96.73V97.542H357.735C357.754 98.3167 357.954 98.9093 358.337 99.32C358.729 99.7307 359.275 99.936 359.975 99.936C360.46 99.936 360.89 99.894 361.263 99.81C361.646 99.7167 362.038 99.5813 362.439 99.404V100.636C362.056 100.804 361.674 100.93 361.291 101.014C360.908 101.098 360.451 101.14 359.919 101.14C359.182 101.14 358.533 100.995 357.973 100.706C357.422 100.417 356.988 99.9873 356.671 99.418C356.363 98.8393 356.209 98.13 356.209 97.29C356.209 96.4407 356.349 95.722 356.629 95.134C356.918 94.546 357.315 94.098 357.819 93.79C358.332 93.4727 358.93 93.314 359.611 93.314ZM359.611 94.462C359.079 94.462 358.65 94.6347 358.323 94.98C358.006 95.3253 357.819 95.8153 357.763 96.45H361.319C361.31 95.862 361.165 95.386 360.885 95.022C360.614 94.6487 360.19 94.462 359.611 94.462ZM368.659 93.314C368.789 93.314 368.929 93.3233 369.079 93.342C369.237 93.3513 369.373 93.3653 369.485 93.384L369.331 94.77C369.088 94.7047 368.836 94.672 368.575 94.672C368.201 94.672 367.847 94.7653 367.511 94.952C367.184 95.1387 366.918 95.4093 366.713 95.764C366.517 96.1093 366.419 96.5293 366.419 97.024V101H364.935V93.454H366.111L366.307 94.798H366.363C366.605 94.3967 366.918 94.0513 367.301 93.762C367.683 93.4633 368.136 93.314 368.659 93.314Z" fill="#636466"/>
<path d="M100.492 66.7394L100.484 66.6909C100.476 66.6342 100.468 66.5776 100.444 66.5048C100.444 66.4967 100.436 66.4805 100.428 66.4643C100.395 66.3834 100.347 66.3187 100.299 66.2701L95.09 61.0274C95.0418 60.9789 94.9775 60.9303 94.8971 60.898C94.881 60.8899 94.865 60.8818 94.8408 60.8737C94.7846 60.8575 94.7283 60.8413 94.672 60.8413L87.7749 60.8333C86.5209 60.8333 85.5 61.8608 85.5 63.1229V76.8769C85.5 78.1391 86.5209 79.1666 87.7749 79.1666H98.2251C99.4791 79.1666 100.5 78.1391 100.5 76.8769V66.7394H100.492ZM95.2669 66.0517L95.2749 63.1067L98.2251 66.076H98.1286L95.2669 66.0922V66.0517ZM99.1656 76.8769C99.1656 77.4028 98.7395 77.8235 98.2251 77.8235H87.7749C87.2524 77.8235 86.8344 77.3947 86.8344 76.8769V63.1229C86.8344 62.597 87.2605 62.1763 87.7749 62.1763H93.9646V62.2167L93.9405 66.7556C93.9405 66.9336 94.0129 67.1035 94.1334 67.2329C94.254 67.3543 94.4309 67.4271 94.6077 67.4271L99.1656 67.4109V76.8769Z" fill="#5D04D9"/>
<rect x="115" y="88" width="255" height="20" rx="4" fill="#F6F6F6"/>
<rect x="63.5" y="40.5" width="326" height="83" rx="15.5" stroke="#F5F5F5"/>
<rect x="63.5" y="132.5" width="326" height="83" rx="15.5" fill="white"/>
<rect x="63.5" y="132.5" width="326" height="83" rx="15.5" fill="white" stroke="#F5F5F5"/>
<path d="M341.336 167.156C343.004 167.156 344.072 165.632 344.072 162.572C344.072 159.524 343.004 158.036 341.336 158.036C339.656 158.036 338.588 159.512 338.588 162.572C338.588 165.632 339.656 167.156 341.336 167.156ZM341.336 166.28C340.328 166.28 339.656 165.164 339.656 162.572C339.656 160.004 340.328 158.912 341.336 158.912C342.332 158.912 343.004 160.004 343.004 162.572C343.004 165.164 342.332 166.28 341.336 166.28ZM348.364 167.156C350.02 167.156 351.124 166.16 351.124 164.876C351.124 163.676 350.404 163.016 349.636 162.572V162.512C350.164 162.104 350.812 161.312 350.812 160.388C350.812 159.032 349.9 158.072 348.4 158.072C347.032 158.072 345.988 158.96 345.988 160.304C345.988 161.228 346.528 161.888 347.176 162.332V162.392C346.372 162.824 345.556 163.64 345.556 164.816C345.556 166.172 346.744 167.156 348.364 167.156ZM348.964 162.224C347.932 161.816 346.984 161.36 346.984 160.304C346.984 159.452 347.572 158.876 348.388 158.876C349.336 158.876 349.876 159.584 349.876 160.448C349.876 161.096 349.564 161.696 348.964 162.224ZM348.388 166.34C347.332 166.34 346.552 165.656 346.552 164.72C346.552 163.88 347.044 163.184 347.752 162.728C349 163.232 350.08 163.676 350.08 164.852C350.08 165.728 349.396 166.34 348.388 166.34ZM353.701 162.32C354.133 162.32 354.493 161.972 354.493 161.492C354.493 160.988 354.133 160.64 353.701 160.64C353.269 160.64 352.909 160.988 352.909 161.492C352.909 161.972 353.269 162.32 353.701 162.32ZM353.701 167.156C354.133 167.156 354.493 166.82 354.493 166.328C354.493 165.824 354.133 165.476 353.701 165.476C353.269 165.476 352.909 165.824 352.909 166.328C352.909 166.82 353.269 167.156 353.701 167.156ZM358.9 167.156C360.46 167.156 361.72 166.22 361.72 164.648C361.72 163.448 360.892 162.656 359.86 162.416V162.368C360.784 162.02 361.42 161.312 361.42 160.244C361.42 158.852 360.34 158.036 358.864 158.036C357.844 158.036 357.064 158.48 356.404 159.092L356.992 159.788C357.484 159.284 358.108 158.936 358.816 158.936C359.728 158.936 360.304 159.488 360.304 160.328C360.304 161.276 359.68 162.008 357.868 162.008V162.848C359.896 162.848 360.604 163.556 360.604 164.6C360.604 165.62 359.86 166.244 358.816 166.244C357.82 166.244 357.148 165.776 356.632 165.236L356.08 165.956C356.656 166.58 357.52 167.156 358.9 167.156ZM364.129 163.7L366.133 160.7C366.385 160.268 366.625 159.836 366.841 159.404H366.889C366.865 159.86 366.829 160.568 366.829 161V163.7H364.129ZM366.829 167H367.861V164.576H369.025V163.7H367.861V158.192H366.649L362.989 163.856V164.576H366.829V167Z" fill="#5D04D9"/>
<path d="M121.352 169.208C122.968 169.208 124.296 168.616 125.08 167.832V162.728H121.064V164.248H123.4V167.016C122.984 167.384 122.264 167.592 121.544 167.592C119.112 167.592 117.816 165.88 117.816 163.08C117.816 160.312 119.272 158.616 121.464 158.616C122.6 158.616 123.32 159.08 123.912 159.672L124.904 158.488C124.184 157.736 123.064 157 121.4 157C118.28 157 115.912 159.304 115.912 163.144C115.912 167 118.216 169.208 121.352 169.208ZM128.251 169H130.091V162.76C130.811 161.96 131.467 161.56 132.059 161.56C133.067 161.56 133.531 162.168 133.531 163.688V169H135.371V162.76C136.107 161.96 136.747 161.56 137.355 161.56C138.347 161.56 138.827 162.168 138.827 163.688V169H140.667V163.464C140.667 161.224 139.803 159.976 137.963 159.976C136.859 159.976 135.963 160.664 135.099 161.592C134.715 160.584 133.979 159.976 132.667 159.976C131.579 159.976 130.699 160.632 129.947 161.432H129.899L129.755 160.2H128.251V169ZM146.049 169.208C147.105 169.208 148.049 168.68 148.849 167.992H148.913L149.057 169H150.561V163.704C150.561 161.368 149.553 159.976 147.361 159.976C145.953 159.976 144.721 160.552 143.809 161.128L144.497 162.376C145.249 161.896 146.113 161.48 147.041 161.48C148.337 161.48 148.705 162.376 148.721 163.4C145.057 163.8 143.457 164.776 143.457 166.664C143.457 168.216 144.529 169.208 146.049 169.208ZM146.609 167.752C145.825 167.752 145.233 167.4 145.233 166.536C145.233 165.544 146.113 164.872 148.721 164.568V166.728C148.001 167.384 147.377 167.752 146.609 167.752ZM153.812 169H155.652V160.2H153.812V169ZM154.724 158.552C155.396 158.552 155.876 158.12 155.876 157.448C155.876 156.792 155.396 156.36 154.724 156.36C154.052 156.36 153.588 156.792 153.588 157.448C153.588 158.12 154.052 158.552 154.724 158.552ZM160.87 169.208C161.334 169.208 161.638 169.144 161.862 169.064L161.622 167.672C161.462 167.704 161.398 167.704 161.318 167.704C161.094 167.704 160.886 167.528 160.886 167.032V156.248H159.046V166.936C159.046 168.36 159.542 169.208 160.87 169.208ZM172.269 169.208C173.277 169.208 174.317 168.84 175.133 168.12L174.365 166.904C173.837 167.352 173.181 167.704 172.445 167.704C170.989 167.704 169.965 166.472 169.965 164.6C169.965 162.744 171.021 161.496 172.509 161.496C173.101 161.496 173.597 161.752 174.077 162.184L174.989 160.984C174.349 160.424 173.533 159.976 172.413 159.976C170.093 159.976 168.061 161.672 168.061 164.6C168.061 167.528 169.885 169.208 172.269 169.208ZM180.689 169.208C182.865 169.208 184.833 167.528 184.833 164.6C184.833 161.672 182.865 159.976 180.689 159.976C178.513 159.976 176.545 161.672 176.545 164.6C176.545 167.528 178.513 169.208 180.689 169.208ZM180.689 167.704C179.313 167.704 178.449 166.472 178.449 164.6C178.449 162.744 179.313 161.496 180.689 161.496C182.081 161.496 182.945 162.744 182.945 164.6C182.945 166.472 182.081 167.704 180.689 167.704ZM187.637 169H189.477V162.76C190.245 161.976 190.805 161.56 191.621 161.56C192.661 161.56 193.109 162.168 193.109 163.688V169H194.949V163.464C194.949 161.224 194.117 159.976 192.245 159.976C191.045 159.976 190.149 160.632 189.333 161.416H189.285L189.141 160.2H187.637V169ZM201.221 169.208C201.861 169.208 202.453 169.048 202.949 168.888L202.613 167.528C202.357 167.64 201.973 167.736 201.669 167.736C200.757 167.736 200.389 167.192 200.389 166.136V161.672H202.677V160.2H200.389V157.768H198.853L198.645 160.2L197.269 160.296V161.672H198.549V166.12C198.549 167.976 199.237 169.208 201.221 169.208ZM206.935 169.208C207.991 169.208 208.935 168.68 209.735 167.992H209.799L209.943 169H211.447V163.704C211.447 161.368 210.439 159.976 208.247 159.976C206.839 159.976 205.607 160.552 204.695 161.128L205.383 162.376C206.135 161.896 206.999 161.48 207.927 161.48C209.223 161.48 209.591 162.376 209.607 163.4C205.943 163.8 204.343 164.776 204.343 166.664C204.343 168.216 205.415 169.208 206.935 169.208ZM207.495 167.752C206.711 167.752 206.119 167.4 206.119 166.536C206.119 165.544 206.999 164.872 209.607 164.568V166.728C208.887 167.384 208.263 167.752 207.495 167.752ZM218.282 169.208C219.29 169.208 220.33 168.84 221.146 168.12L220.378 166.904C219.85 167.352 219.194 167.704 218.458 167.704C217.002 167.704 215.978 166.472 215.978 164.6C215.978 162.744 217.034 161.496 218.522 161.496C219.114 161.496 219.61 161.752 220.09 162.184L221.002 160.984C220.362 160.424 219.546 159.976 218.426 159.976C216.106 159.976 214.074 161.672 214.074 164.6C214.074 167.528 215.898 169.208 218.282 169.208ZM226.391 169.208C227.031 169.208 227.623 169.048 228.119 168.888L227.783 167.528C227.527 167.64 227.143 167.736 226.839 167.736C225.927 167.736 225.559 167.192 225.559 166.136V161.672H227.847V160.2H225.559V157.768H224.023L223.815 160.2L222.439 160.296V161.672H223.719V166.12C223.719 167.976 224.407 169.208 226.391 169.208ZM233.813 169.208C234.965 169.208 235.974 168.824 236.79 168.28L236.149 167.112C235.51 167.528 234.838 167.768 234.054 167.768C232.533 167.768 231.477 166.76 231.333 165.08H237.045C237.094 164.856 237.142 164.504 237.142 164.136C237.142 161.656 235.878 159.976 233.542 159.976C231.493 159.976 229.525 161.752 229.525 164.6C229.525 167.512 231.429 169.208 233.813 169.208ZM231.317 163.8C231.493 162.264 232.469 161.416 233.574 161.416C234.853 161.416 235.542 162.296 235.542 163.8H231.317ZM242.876 169.208C243.868 169.208 244.78 168.68 245.436 168.008H245.5L245.644 169H247.148V156.248H245.308V159.512L245.388 160.968C244.668 160.36 244.028 159.976 243.02 159.976C241.052 159.976 239.244 161.752 239.244 164.6C239.244 167.528 240.668 169.208 242.876 169.208ZM243.308 167.688C241.932 167.688 241.148 166.584 241.148 164.584C241.148 162.68 242.14 161.512 243.372 161.512C244.028 161.512 244.652 161.72 245.308 162.312V166.616C244.668 167.352 244.044 167.688 243.308 167.688Z" fill="black"/>
<path d="M119.256 194.182C121.398 194.182 122.742 192.894 122.742 191.27C122.742 189.744 121.818 189.044 120.628 188.526L119.158 187.896C118.36 187.56 117.464 187.182 117.464 186.188C117.464 185.264 118.22 184.676 119.382 184.676C120.334 184.676 121.09 185.054 121.72 185.642L122.406 184.816C121.678 184.06 120.6 183.542 119.382 183.542C117.52 183.542 116.148 184.69 116.148 186.272C116.148 187.77 117.282 188.498 118.234 188.904L119.718 189.548C120.684 189.982 121.426 190.318 121.426 191.368C121.426 192.376 120.614 193.048 119.27 193.048C118.206 193.048 117.17 192.544 116.442 191.774L115.658 192.656C116.554 193.594 117.8 194.182 119.256 194.182ZM127.274 194.182C128.324 194.182 129.08 193.636 129.794 192.81H129.836L129.934 194H130.998V186.398H129.724V191.788C128.996 192.698 128.45 193.076 127.666 193.076C126.658 193.076 126.238 192.474 126.238 191.06V186.398H124.964V191.214C124.964 193.146 125.678 194.182 127.274 194.182ZM136.547 197.5C138.899 197.5 140.397 196.282 140.397 194.868C140.397 193.622 139.501 193.062 137.737 193.062H136.253C135.231 193.062 134.923 192.726 134.923 192.236C134.923 191.816 135.133 191.564 135.413 191.326C135.749 191.494 136.169 191.592 136.547 191.592C138.087 191.592 139.319 190.57 139.319 188.946C139.319 188.288 139.067 187.728 138.703 187.378H140.257V186.398H137.611C137.345 186.3 136.967 186.202 136.547 186.202C135.007 186.202 133.691 187.252 133.691 188.918C133.691 189.828 134.181 190.556 134.685 190.962V191.018C134.293 191.298 133.831 191.802 133.831 192.432C133.831 193.034 134.125 193.44 134.531 193.678V193.734C133.817 194.196 133.411 194.812 133.411 195.456C133.411 196.772 134.685 197.5 136.547 197.5ZM136.547 190.724C135.665 190.724 134.923 190.024 134.923 188.918C134.923 187.798 135.651 187.14 136.547 187.14C137.443 187.14 138.171 187.812 138.171 188.918C138.171 190.024 137.415 190.724 136.547 190.724ZM136.729 196.632C135.357 196.632 134.531 196.1 134.531 195.288C134.531 194.84 134.755 194.392 135.301 194C135.637 194.084 136.001 194.126 136.281 194.126H137.597C138.605 194.126 139.151 194.364 139.151 195.064C139.151 195.862 138.185 196.632 136.729 196.632ZM144.856 197.5C147.208 197.5 148.706 196.282 148.706 194.868C148.706 193.622 147.81 193.062 146.046 193.062H144.562C143.54 193.062 143.232 192.726 143.232 192.236C143.232 191.816 143.442 191.564 143.722 191.326C144.058 191.494 144.478 191.592 144.856 191.592C146.396 191.592 147.628 190.57 147.628 188.946C147.628 188.288 147.376 187.728 147.012 187.378H148.566V186.398H145.92C145.654 186.3 145.276 186.202 144.856 186.202C143.316 186.202 142 187.252 142 188.918C142 189.828 142.49 190.556 142.994 190.962V191.018C142.602 191.298 142.14 191.802 142.14 192.432C142.14 193.034 142.434 193.44 142.84 193.678V193.734C142.126 194.196 141.72 194.812 141.72 195.456C141.72 196.772 142.994 197.5 144.856 197.5ZM144.856 190.724C143.974 190.724 143.232 190.024 143.232 188.918C143.232 187.798 143.96 187.14 144.856 187.14C145.752 187.14 146.48 187.812 146.48 188.918C146.48 190.024 145.724 190.724 144.856 190.724ZM145.038 196.632C143.666 196.632 142.84 196.1 142.84 195.288C142.84 194.84 143.064 194.392 143.61 194C143.946 194.084 144.31 194.126 144.59 194.126H145.906C146.914 194.126 147.46 194.364 147.46 195.064C147.46 195.862 146.494 196.632 145.038 196.632ZM153.464 194.182C154.5 194.182 155.312 193.832 155.984 193.398L155.522 192.558C154.962 192.936 154.36 193.16 153.618 193.16C152.176 193.16 151.182 192.124 151.098 190.5H156.222C156.25 190.318 156.278 190.052 156.278 189.772C156.278 187.602 155.186 186.202 153.254 186.202C151.49 186.202 149.824 187.742 149.824 190.206C149.824 192.712 151.448 194.182 153.464 194.182ZM151.084 189.576C151.238 188.092 152.19 187.224 153.268 187.224C154.458 187.224 155.158 188.05 155.158 189.576H151.084ZM160.558 194.182C162.35 194.182 163.33 193.16 163.33 191.928C163.33 190.486 162.112 190.038 161.006 189.618C160.152 189.296 159.368 189.03 159.368 188.302C159.368 187.714 159.816 187.21 160.782 187.21C161.454 187.21 161.986 187.49 162.504 187.882L163.12 187.056C162.532 186.594 161.706 186.202 160.768 186.202C159.116 186.202 158.136 187.154 158.136 188.358C158.136 189.646 159.298 190.164 160.362 190.556C161.202 190.878 162.098 191.214 162.098 191.998C162.098 192.656 161.608 193.188 160.6 193.188C159.69 193.188 159.004 192.824 158.346 192.292L157.716 193.132C158.444 193.734 159.48 194.182 160.558 194.182ZM167.618 194.182C168.08 194.182 168.584 194.042 169.018 193.902L168.766 192.95C168.514 193.048 168.164 193.146 167.898 193.146C167.016 193.146 166.722 192.614 166.722 191.676V187.434H168.78V186.398H166.722V184.256H165.658L165.504 186.398L164.314 186.468V187.434H165.448V191.648C165.448 193.16 165.994 194.182 167.618 194.182ZM170.921 194H172.195V186.398H170.921V194ZM171.565 184.83C172.069 184.83 172.419 184.494 172.419 183.976C172.419 183.486 172.069 183.15 171.565 183.15C171.061 183.15 170.711 183.486 170.711 183.976C170.711 184.494 171.061 184.83 171.565 184.83ZM178.151 194.182C180.013 194.182 181.679 192.726 181.679 190.206C181.679 187.672 180.013 186.202 178.151 186.202C176.289 186.202 174.623 187.672 174.623 190.206C174.623 192.726 176.289 194.182 178.151 194.182ZM178.151 193.118C176.835 193.118 175.953 191.956 175.953 190.206C175.953 188.456 176.835 187.266 178.151 187.266C179.467 187.266 180.363 188.456 180.363 190.206C180.363 191.956 179.467 193.118 178.151 193.118ZM184.107 194H185.381V188.484C186.151 187.714 186.683 187.322 187.467 187.322C188.475 187.322 188.909 187.924 188.909 189.352V194H190.183V189.184C190.183 187.238 189.455 186.202 187.859 186.202C186.823 186.202 186.039 186.776 185.311 187.49H185.269L185.157 186.398H184.107V194ZM196.847 194H198.121V187.434H199.731V186.398H198.121V185.194C198.121 184.214 198.471 183.696 199.199 183.696C199.465 183.696 199.773 183.766 200.053 183.892L200.333 182.926C199.983 182.772 199.521 182.674 199.059 182.674C197.547 182.674 196.847 183.64 196.847 185.18V186.398L195.811 186.468V187.434H196.847V194ZM204.413 194.182C206.275 194.182 207.941 192.726 207.941 190.206C207.941 187.672 206.275 186.202 204.413 186.202C202.551 186.202 200.885 187.672 200.885 190.206C200.885 192.726 202.551 194.182 204.413 194.182ZM204.413 193.118C203.097 193.118 202.215 191.956 202.215 190.206C202.215 188.456 203.097 187.266 204.413 187.266C205.729 187.266 206.625 188.456 206.625 190.206C206.625 191.956 205.729 193.118 204.413 193.118ZM210.369 194H211.643V189.114C212.147 187.812 212.931 187.364 213.561 187.364C213.869 187.364 214.051 187.392 214.303 187.49L214.541 186.37C214.303 186.244 214.065 186.202 213.729 186.202C212.875 186.202 212.105 186.818 211.573 187.784H211.531L211.419 186.398H210.369V194ZM223.674 193.118C221.826 193.118 220.622 191.452 220.622 188.834C220.622 186.258 221.826 184.676 223.674 184.676C225.508 184.676 226.726 186.258 226.726 188.834C226.726 191.452 225.508 193.118 223.674 193.118ZM226.81 196.576C227.426 196.576 227.972 196.464 228.28 196.352L228.028 195.344C227.762 195.428 227.412 195.498 226.95 195.498C225.844 195.498 224.892 195.036 224.43 194.126C226.6 193.748 228.056 191.788 228.056 188.834C228.056 185.544 226.25 183.542 223.674 183.542C221.098 183.542 219.292 185.544 219.292 188.834C219.292 191.844 220.804 193.832 223.044 194.14C223.618 195.554 224.92 196.576 226.81 196.576ZM232.986 194.182C234.806 194.182 236.276 193.118 236.276 191.34C236.276 189.968 235.31 189.086 234.106 188.792V188.736C235.184 188.344 235.926 187.574 235.926 186.37C235.926 184.746 234.666 183.836 232.944 183.836C231.754 183.836 230.844 184.354 230.074 185.082L230.76 185.88C231.334 185.292 232.062 184.872 232.888 184.872C233.952 184.872 234.624 185.488 234.624 186.454C234.624 187.504 233.896 188.33 231.782 188.33V189.31C234.148 189.31 234.974 190.094 234.974 191.284C234.974 192.404 234.106 193.118 232.888 193.118C231.726 193.118 230.942 192.572 230.34 191.942L229.696 192.782C230.368 193.51 231.376 194.182 232.986 194.182ZM239.422 194.182C239.926 194.182 240.346 193.79 240.346 193.216C240.346 192.628 239.926 192.222 239.422 192.222C238.918 192.222 238.498 192.628 238.498 193.216C238.498 193.79 238.918 194.182 239.422 194.182ZM243.738 194.182C244.242 194.182 244.662 193.79 244.662 193.216C244.662 192.628 244.242 192.222 243.738 192.222C243.234 192.222 242.814 192.628 242.814 193.216C242.814 193.79 243.234 194.182 243.738 194.182ZM248.055 194.182C248.559 194.182 248.979 193.79 248.979 193.216C248.979 192.628 248.559 192.222 248.055 192.222C247.551 192.222 247.131 192.628 247.131 193.216C247.131 193.79 247.551 194.182 248.055 194.182Z" fill="#636466"/>
<path d="M286.079 194.182C288.081 194.182 288.893 192.754 288.893 190.99V183.724H287.605V190.864C287.605 192.418 287.059 193.048 285.953 193.048C285.211 193.048 284.637 192.712 284.175 191.9L283.251 192.558C283.853 193.622 284.777 194.182 286.079 194.182ZM293.725 194.182C294.663 194.182 295.517 193.692 296.245 193.09H296.287L296.399 194H297.449V189.324C297.449 187.448 296.665 186.202 294.817 186.202C293.599 186.202 292.521 186.748 291.821 187.196L292.325 188.078C292.927 187.672 293.725 187.266 294.607 187.266C295.853 187.266 296.175 188.204 296.175 189.184C292.941 189.548 291.499 190.374 291.499 192.026C291.499 193.398 292.451 194.182 293.725 194.182ZM294.089 193.16C293.333 193.16 292.745 192.81 292.745 191.942C292.745 190.962 293.613 190.332 296.175 190.024V192.152C295.433 192.81 294.831 193.16 294.089 193.16ZM300.297 194H301.571V188.484C302.341 187.714 302.873 187.322 303.657 187.322C304.665 187.322 305.099 187.924 305.099 189.352V194H306.373V189.184C306.373 187.238 305.645 186.202 304.049 186.202C303.013 186.202 302.229 186.776 301.501 187.49H301.459L301.347 186.398H300.297V194ZM312.342 194.182C313.378 194.182 314.19 193.832 314.862 193.398L314.4 192.558C313.84 192.936 313.238 193.16 312.496 193.16C311.054 193.16 310.06 192.124 309.976 190.5H315.1C315.128 190.318 315.156 190.052 315.156 189.772C315.156 187.602 314.064 186.202 312.132 186.202C310.368 186.202 308.702 187.742 308.702 190.206C308.702 192.712 310.326 194.182 312.342 194.182ZM309.962 189.576C310.116 188.092 311.068 187.224 312.146 187.224C313.336 187.224 314.036 188.05 314.036 189.576H309.962ZM324.988 194.182C326.318 194.182 327.326 193.65 328.138 192.712L327.424 191.9C326.766 192.614 326.024 193.048 325.044 193.048C323.084 193.048 321.852 191.424 321.852 188.834C321.852 186.272 323.14 184.676 325.086 184.676C325.968 184.676 326.654 185.082 327.186 185.656L327.886 184.816C327.298 184.158 326.318 183.542 325.072 183.542C322.468 183.542 320.522 185.558 320.522 188.876C320.522 192.208 322.44 194.182 324.988 194.182ZM333.3 194.182C335.162 194.182 336.828 192.726 336.828 190.206C336.828 187.672 335.162 186.202 333.3 186.202C331.438 186.202 329.772 187.672 329.772 190.206C329.772 192.726 331.438 194.182 333.3 194.182ZM333.3 193.118C331.984 193.118 331.102 191.956 331.102 190.206C331.102 188.456 331.984 187.266 333.3 187.266C334.616 187.266 335.512 188.456 335.512 190.206C335.512 191.956 334.616 193.118 333.3 193.118ZM342.21 194.182C344.072 194.182 345.738 192.726 345.738 190.206C345.738 187.672 344.072 186.202 342.21 186.202C340.348 186.202 338.682 187.672 338.682 190.206C338.682 192.726 340.348 194.182 342.21 194.182ZM342.21 193.118C340.894 193.118 340.012 191.956 340.012 190.206C340.012 188.456 340.894 187.266 342.21 187.266C343.526 187.266 344.422 188.456 344.422 190.206C344.422 191.956 343.526 193.118 342.21 193.118ZM348.167 197.206H349.441V194.63L349.413 193.3C350.099 193.86 350.827 194.182 351.513 194.182C353.263 194.182 354.817 192.684 354.817 190.08C354.817 187.742 353.753 186.202 351.793 186.202C350.911 186.202 350.057 186.706 349.371 187.266H349.329L349.217 186.398H348.167V197.206ZM351.303 193.118C350.799 193.118 350.127 192.908 349.441 192.32V188.33C350.183 187.644 350.841 187.28 351.485 187.28C352.927 187.28 353.487 188.414 353.487 190.094C353.487 191.984 352.563 193.118 351.303 193.118ZM360.334 194.182C361.37 194.182 362.182 193.832 362.854 193.398L362.392 192.558C361.832 192.936 361.23 193.16 360.488 193.16C359.046 193.16 358.052 192.124 357.968 190.5H363.092C363.12 190.318 363.148 190.052 363.148 189.772C363.148 187.602 362.056 186.202 360.124 186.202C358.36 186.202 356.694 187.742 356.694 190.206C356.694 192.712 358.318 194.182 360.334 194.182ZM357.954 189.576C358.108 188.092 359.06 187.224 360.138 187.224C361.328 187.224 362.028 188.05 362.028 189.576H357.954ZM365.44 194H366.714V189.114C367.218 187.812 368.002 187.364 368.632 187.364C368.94 187.364 369.122 187.392 369.374 187.49L369.612 186.37C369.374 186.244 369.136 186.202 368.8 186.202C367.946 186.202 367.176 186.818 366.644 187.784H366.602L366.49 186.398H365.44V194Z" fill="#636466"/>
<path fill-rule="evenodd" clip-rule="evenodd" d="M86.3332 155.333H99.6665C100.583 155.333 101.333 156.083 101.333 157V167C101.333 167.917 100.583 168.667 99.6665 168.667H86.3332C85.4165 168.667 84.6665 167.917 84.6665 167V157C84.6665 156.083 85.4165 155.333 86.3332 155.333Z" stroke="#5D04D9" stroke-width="1.5" stroke-linecap="round" stroke-linejoin="round"/>
<path d="M101.333 157L92.9998 162.833L84.6665 157" stroke="#5D04D9" stroke-width="1.5" stroke-linecap="round" stroke-linejoin="round"/>
<rect x="115" y="179" width="255" height="20" rx="4" fill="#F6F6F6"/>
<rect x="63.5" y="132.5" width="326" height="83" rx="15.5" stroke="#F5F5F5"/>
</g>
<defs>
<filter id="filter0_d" x="0" y="0" width="455" height="304" filterUnits="userSpaceOnUse" color-interpolation-filters="sRGB">
<feFlood flood-opacity="0" result="BackgroundImageFix"/>
<feColorMatrix in="SourceAlpha" type="matrix" values="0 0 0 0 0 0 0 0 0 0 0 0 0 0 0 0 0 0 127 0"/>
<feOffset dx="1" dy="24"/>
<feGaussianBlur stdDeviation="32"/>
<feColorMatrix type="matrix" values="0 0 0 0 0.0862745 0 0 0 0 0.109804 0 0 0 0 0.176471 0 0 0 0.05 0"/>
<feBlend mode="normal" in2="BackgroundImageFix" result="effect1_dropShadow"/>
<feBlend mode="normal" in="SourceGraphic" in2="effect1_dropShadow" result="shape"/>
</filter>
</defs>
</svg>
